{
.appVersion = "3260";
.formatVersion = 3;
DisplayStrings = (
"maßjeck",
"glücklichat"
);
axes = (
{
name = Weight;
tag = wght;
}
);
classes = (
{
code = "A B D E F H I J K L M N O P Q R S U Z Aacute Abreve Acircumflex Adieresis Agrave Amacron Aogonek Aring Atilde Dcaron Dcroat Eacute Ecaron Ecircumflex Edieresis Edotaccent Egrave Emacron Eogonek Etilde Hbar Hcircumflex IJ Iacute Icircumflex Idieresis Idotaccent Igrave Imacron Itilde Nacute Ncaron Ncommaaccent Ntilde Racute Rcaron Rcommaaccent Sacute Scaron Scedilla Scircumflex Scommaaccent Oacute Ocircumflex Odieresis Ograve Ohungarumlaut Omacron Oslash Otilde Uacute Ucircumflex Udieresis Ugrave Uhungarumlaut Umacron Uogonek Uring Utilde Zacute Zcaron Zdotaccent Jacute Jcircumflex
";
name = left_ortho;
},
{
code = "W V Y T T_T Wacute Wcircumflex Wdieresis Wgrave Yacute Ycircumflex Ydieresis Ygrave Ytilde Tcaron Tcedilla Tcommaaccent
";
name = right_overhang;
},
{
code = "W V Y T T_T Wacute Wcircumflex Wdieresis Wgrave Yacute Ycircumflex Ydieresis Ygrave Ytilde Tcaron Tcedilla Tcommaaccent";
name = left_overhang;
},
{
code = "A H I J M N O Q U Z Aacute Abreve Acircumflex Adieresis Agrave Amacron Aogonek Aring Atilde Hbar Hcircumflex Iacute Icircumflex Idieresis Idotaccent Igrave Imacron Itilde Jacute Nacute Ncaron Ncommaaccent Ntilde Oacute Ocircumflex Odieresis Ograve Ohungarumlaut Omacron Oslash Otilde Uacute Ucircumflex Udieresis Ugrave Uhungarumlaut Umacron Uogonek Uring Utilde Zacute Zcaron Zdotaccent
";
name = right_ortho;
},
{
code = "t ";
name = trigger_special_h;
}
);
customParameters = (
{
name = "Use Typo Metrics";
value = 1;
},
{
name = fsType;
value = (
);
}
);
date = "2024-06-12 18:02:59 +0000";
familyName = Brokken;
featurePrefixes = (
{
automatic = 1;
code = "languagesystem DFLT dflt;

languagesystem latn dflt;
languagesystem latn AZE;
languagesystem latn CRT;
languagesystem latn KAZ;
languagesystem latn TAT;
languagesystem latn TRK;
languagesystem latn ROM;
languagesystem latn MOL;

glyphs = (
{
glyphname = A;
kernLeft = A_new_left;
kernRight = A_new_right;
lastChange = "2024-06-19 10:30:46 +0000";
layers = (
{
anchors = (
{
name = bottom;
pos = (588,-13);
},
{
name = ogonek;
pos = (608,31);
},
{
name = top;
pos = (354,714);
}
);
hints = (
{
horizontal = 1;
place = (662,-20);
target = down;
type = TopGhost;
},
{
place = (90.5,139.5);
type = Stem;
},
{
place = (409,168);
type = Stem;
},
{
place = (97,135.375);
type = Stem;
},
{
place = (403.5,173.5);
type = Stem;
}
);
layerId = m01;
shapes = (
{
closed = 1;
nodes = (
(459,235,l),
(502,304,l),
(487,362,l),
(124,362,l),
(103,304,l),
(113,234,l)
);
},
{
closed = 1;
nodes = (
(150,700,l),
(170,590,l),
(271,551,l),
(442,551,l),
(427,700,l),
(179,700,l)
);
},
{
closed = 1;
nodes = (
(800,55,l),
(751,117,l),
(519,681,l),
(427,700,l),
(345,681,l),
(410,526,l),
(454,422,l),
(591,99,l),
(563,31,l),
(588,0,l),
(781,0,l)
);
},
{
closed = 1;
nodes = (
(240,0,l),
(257,28,l),
(250,115,l),
(345,496,l),
(271,564,l),
(225,604,l),
(58,0,l)
);
},
{
closed = 1;
nodes = (
(44,64,l),
(58,0,l),
(196,39,l),
(196,126,l),
(142,163,l)
);
}
);
width = 829;
},
{
anchors = (
{
name = bottom;
pos = (676,-20);
},
{
name = ogonek;
pos = (708,10);
},
{
name = top;
pos = (377,758);
}
);
guides = (
{
angle = 270;
pos = (377,436);
showMeasurement = 1;
},
{
pos = (272,396);
showMeasurement = 1;
}
);
hints = (
{
horizontal = 1;
place = (662,-20);
target = down;
type = TopGhost;
},
{
place = (90.5,139.5);
type = Stem;
},
{
place = (409,168);
type = Stem;
},
{
place = (99,71);
type = Stem;
},
{
place = (403.5,173.5);
type = Stem;
}
);
layerId = m002;
shapes = (
{
closed = 1;
nodes = (
(535,282,l),
(608,304,l),
(593,362,l),
(176,357,l),
(186,330,l),
(252,319,l)
);
},
{
closed = 1;
nodes = (
(132,689,l),
(129,661,l),
(201,630,l),
(515,649,l),
(436,700,l),
(153,700,l)
);
},
{
closed = 1;
nodes = (
(809,45,l),
(760,117,l),
(535,681,l),
(436,700,l),
(342,681,l),
(484,602,l),
(548,422,l),
(685,99,l),
(669,21,l),
(694,0,l),
(784,0,l)
);
},
{
closed = 1;
nodes = (
(194,0,l),
(200,37,l),
(162,87,l),
(243,433,l),
(245,637,l),
(214,680,l),
(67,0,l)
);
},
{
closed = 1;
nodes = (
(53,64,l),
(67,0,l),
(176,21,l),
(169,53,l),
(135,100,l)
);
}
);
width = 843;
}
);
metricLeft = B;
unicode = 65;
},
{
glyphname = AE;
kernLeft = A;
kernRight = E;
lastChange = "2024-05-29 09:58:23 +0000";
layers = (
{
anchors = (
{
name = bottom;
pos = (892,0);
},
{
name = ogonek;
pos = (1106,8);
},
{
name = top;
pos = (523,714);
},
{
name = topleft;
pos = (641,680);
}
);
hints = (
{
horizontal = 1;
origin = (3,9);
target = down;
type = TopGhost;
},
{
place = (90.5,139.5);
type = Stem;
},
{
place = (409,168);
type = Stem;
},
{
origin = (0,5);
target = (0,1,1,0);
type = Stem;
},
{
place = (403.5,173.5);
type = Stem;
}
);
layerId = m01;
shapes = (
{
closed = 1;
nodes = (
(231,19,l),
(231,500,l),
(398,660,l),
(178,699,l),
(83,622,l),
(96,123,l),
(50,71,l),
(67,0,l),
(211,0,l)
);
},
{
closed = 1;
nodes = (
(385,217,l),
(478,323,l),
(463,381,l),
(63,311,l),
(44,224,l),
(78,213,l)
);
},
{
closed = 1;
nodes = (
(567,700,l),
(281,700,l),
(194,520,l),
(282,568,l),
(528,568,l),
(593,684,l)
);
},
{
closed = 1;
nodes = (
(593,684,l),
(435,520,l),
(430,457,l),
(437,163,l),
(447,14,l),
(495,0,l),
(611,24,l),
(596,516,l),
(627,582,l),
(627,662,l)
);
},
{
closed = 1;
nodes = (
(626,80,l),
(607,126,l),
(455,154,l),
(412,48,l),
(429,0,l),
(616,0,l)
);
},
{
closed = 1;
nodes = (
(65,487,l),
(117,472,l),
(83,622,l),
(54,601,l)
);
},
{
closed = 1;
nodes = (
(457,0,l),
(895,0,l),
(918,163,l),
(720,111,l),
(628,117,l),
(604,117,l),
(604,222,l),
(595,494,l),
(518,552,l),
(667,644,l),
(437,639,l),
(447,178,l),
(452,43,l)
);
},
{
closed = 1;
nodes = (
(752,296,l),
(881,386,l),
(867,464,l),
(463,381,l),
(406,354,l),
(402,271,l)
);
},
{
closed = 1;
nodes = (
(808,538,l),
(928,613,l),
(912,702,l),
(583,661,l),
(500,532,l)
);
},
{
closed = 1;
nodes = (
(402,700,l),
(410,591,l),
(460,557,l),
(779,628,l),
(675,700,l)
);
},
{
closed = 1;
nodes = (
(720,111,l),
(850,92,l),
(918,163,l),
(889,188,l),
(734,164,l)
);
}
);
width = 958;
},
{
anchors = (
{
name = bottom;
pos = (901,0);
},
{
name = ogonek;
pos = (1115,8);
},
{
name = top;
pos = (532,714);
},
{
name = topleft;
pos = (650,680);
}
);
guides = (
{
pos = (1095,198);
showMeasurement = 1;
}
);
hints = (
{
horizontal = 1;
origin = (3,9);
target = down;
type = TopGhost;
},
{
place = (90.5,139.5);
type = Stem;
},
{
place = (409,168);
type = Stem;
},
{
origin = (0,5);
target = (0,1,1,0);
type = Stem;
},
{
place = (403.5,173.5);
type = Stem;
}
);
layerId = m002;
shapes = (
{
closed = 1;
nodes = (
(183,19,l),
(183,621,l),
(407,660,l),
(187,699,l),
(92,642,l),
(106,79,l),
(60,27,l),
(76,0,l),
(163,0,l)
);
},
{
closed = 1;
nodes = (
(476,304,l),
(516,323,l),
(501,381,l),
(72,311,l),
(53,264,l),
(87,253,l)
);
},
{
closed = 1;
nodes = (
(576,700,l),
(290,700,l),
(146,614,l),
(234,642,l),
(537,642,l),
(602,684,l)
);
},
{
closed = 1;
nodes = (
(602,684,l),
(473,594,l),
(468,457,l),
(475,96,l),
(485,14,l),
(533,0,l),
(572,24,l),
(530,616,l),
(588,656,l),
(636,662,l)
);
},
{
closed = 1;
nodes = (
(570,48,l),
(568,59,l),
(493,87,l),
(450,48,l),
(467,0,l),
(577,0,l)
);
},
{
closed = 1;
nodes = (
(74,581,l),
(126,566,l),
(92,642,l),
(63,621,l)
);
},
{
closed = 1;
nodes = (
(495,0,l),
(904,0,l),
(927,96,l),
(796,44,l),
(589,50,l),
(565,50,l),
(565,155,l),
(556,576,l),
(527,634,l),
(676,644,l),
(446,639,l),
(485,111,l),
(490,43,l)
);
},
{
closed = 1;
nodes = (
(636,329,l),
(775,402,l),
(770,436,l),
(501,381,l),
(444,354,l),
(433,300,l)
);
},
{
closed = 1;
nodes = (
(817,612,l),
(896,648,l),
(896,691,l),
(592,661,l),
(509,614,l)
);
},
{
closed = 1;
nodes = (
(411,700,l),
(448,591,l),
(498,639,l),
(788,628,l),
(684,700,l)
);
},
{
closed = 1;
nodes = (
(796,44,l),
(859,25,l),
(927,96,l),
(898,121,l),
(810,97,l)
);
}
);
width = 972;
}
);
metricLeft = A;
metricRight = E;
unicode = 198;
},
{
glyphname = B;
kernLeft = A;
lastChange = "2024-06-18 12:24:48 +0000";
layers = (
{
layerId = m01;
shapes = (
{
closed = 1;
nodes = (
(106,44,l),
(144,0,l),
(485,-1,l),
(585,25,l),
(638,263,l),
(583,363,l),
(474,356,l),
(608,426,l),
(648,584,l),
(596,700,l),
(263,700,l),
(224,675,l),
(185,700,l),
(114,622,l),
(114,353,l),
(92,348,l),
(51,244,l),
(78,205,l),
(118,219,l),
(118,150,l),
(86,65,l)
);
},
{
closed = 1;
nodes = (
(220,569,l),
(267,569,l),
(474,571,l),
(467,497,l),
(463,436,l),
(270,387,l),
(266,530,l)
);
},
{
closed = 1;
nodes = (
(428,329,l),
(439,334,l),
(532,141,l),
(190,135,l),
(277,187,l),
(274,269,l)
);
},
{
closed = 1;
nodes = (
(44,700,l),
(52,591,l),
(103,558,l),
(151,563,l),
(185,700,l)
);
},
{
closed = 1;
nodes = (
(508,124,l),
(563,136,l),
(523,203,l)
);
}
);
width = 656;
},
{
guides = (
{
pos = (-7,536);
showMeasurement = 1;
},
{
angle = 270;
pos = (328,-56);
showMeasurement = 1;
}
);
layerId = m002;
shapes = (
{
closed = 1;
nodes = (
(111,44,l),
(149,0,l),
(490,-1,l),
(590,25,l),
(643,263,l),
(590,355,l),
(479,383,l),
(566,426,l),
(606,584,l),
(554,700,l),
(422,700,l),
(383,675,l),
(344,700,l),
(111,622,l),
(120,376,l),
(98,371,l),
(77,338,l),
(90,312,l),
(124,313,l),
(123,203,l),
(91,65,l)
);
},
{
closed = 1;
nodes = (
(164,634,l),
(497,634,l),
(527,608,l),
(526,522,l),
(504,447,l),
(199,387,l),
(195,558,l)
);
},
{
closed = 1;
nodes = (
(433,363,l),
(550,307,l),
(546,78,l),
(164,78,l),
(206,187,l),
(203,326,l)
);
},
{
closed = 1;
nodes = (
(84,700,l),
(53,634,l),
(120,585,l),
(137,605,l),
(344,700,l)
);
},
{
closed = 1;
nodes = (
(478,48,l),
(573,77,l),
(569,151,l)
);
}
);
width = 673;
}
);
unicode = 66;
},
{
glyphname = C;
kernLeft = O;
lastChange = "2024-06-10 18:24:03 +0000";
layers = (
{
anchors = (
{
name = bottom;
pos = (310,0);
},
{
name = top;
pos = (310,714);
}
);
layerId = m01;
shapes = (
{
closed = 1;
nodes = (
(372,68,l),
(269,101,l),
(210,211,l),
(200,235,l),
(200,557,l),
(218,603,l),
(152,700,l),
(56,655,l),
(20,506,l),
(20,209,l),
(44,84,l),
(70,43,l)
);
},
{
closed = 1;
nodes = (
(152,0,l),
(220,30,l),
(352,0,l),
(531,1,l),
(550,179,l),
(513,231,l),
(385,177,l),
(375,123,l),
(347,78,l),
(70,43,l)
);
},
{
closed = 1;
nodes = (
(573,444,l),
(573,671,l),
(442,704,l),
(411,686,l),
(152,700,l),
(156,594,l),
(156,484,l),
(286,608,l),
(380,613,l),
(380,447,l),
(459,435,l)
);
}
);
width = 589;
},
{
anchors = (
{
name = bottom;
pos = (315,0);
},
{
name = top;
pos = (315,714);
}
);
guides = (
{
pos = (357,468);
showMeasurement = 1;
}
);
layerId = m002;
shapes = (
{
closed = 1;
nodes = (
(377,68,l),
(151,90,l),
(109,185,l),
(106,235,l),
(114,570,l),
(184,630,l),
(157,700,l),
(61,655,l),
(27,499,l),
(25,209,l),
(49,84,l),
(75,43,l)
);
},
{
closed = 1;
nodes = (
(157,0,l),
(225,30,l),
(357,0,l),
(536,1,l),
(555,179,l),
(531,196,l),
(470,177,l),
(460,123,l),
(432,78,l),
(75,43,l)
);
},
{
closed = 1;
nodes = (
(578,444,l),
(573,672,l),
(447,704,l),
(416,686,l),
(157,700,l),
(137,642,l),
(137,616,l),
(444,637,l),
(487,610,l),
(500,444,l),
(522,435,l)
);
}
);
width = 599;
}
);
unicode = 67;
},
{
glyphname = D;
kernLeft = A;
kernRight = O;
lastChange = "2024-06-18 14:39:20 +0000";
layers = (
{
anchors = (
{
name = top;
pos = (304,714);
}
);
layerId = m01;
shapes = (
{
closed = 1;
nodes = (
(410,0,l),
(628,232,l),
(638,521,l),
(410,700,l),
(280,700,l),
(252,549,l),
(410,554,l),
(477,554,l),
(492,211,l),
(463,149,l),
(126,143,l),
(304,0,l)
);
},
{
closed = 1;
nodes = (
(163,105,l),
(263,184,l),
(253,597,l),
(179,554,l),
(110,491,l),
(110,189,l),
(97,39,l)
);
},
{
closed = 1;
nodes = (
(226,546,l),
(440,619,l),
(280,700,l),
(68,700,l),
(16,558,l),
(66,522,l)
);
},
{
closed = 1;
nodes = (
(77,149,l),
(47,98,l),
(83,0,l),
(304,0,l),
(361,47,l),
(298,120,l),
(126,143,l)
);
}
);
width = 668;
},
{
anchors = (
{
name = top;
pos = (309,714);
}
);
guides = (
{
angle = 270;
pos = (239,432);
showMeasurement = 1;
}
);
layerId = m002;
shapes = (
{
closed = 1;
nodes = (
(415,0,l),
(633,232,l),
(643,521,l),
(415,700,l),
(285,700,l),
(297,652,l),
(448,614,l),
(556,546,l),
(537,292,l),
(469,83,l),
(120,73,l),
(309,0,l)
);
},
{
closed = 1;
nodes = (
(191,110,l),
(194,184,l),
(184,639,l),
(155,631,l),
(115,570,l),
(115,189,l),
(102,39,l)
);
},
{
closed = 1;
nodes = (
(271,621,l),
(445,627,l),
(285,700,l),
(73,700,l),
(58,650,l),
(71,614,l)
);
},
{
closed = 1;
nodes = (
(71,79,l),
(58,45,l),
(88,0,l),
(309,0,l),
(366,47,l),
(297,66,l),
(120,73,l)
);
}
);
width = 678;
}
);
unicode = 68;
},
{
glyphname = Dcroat;
kernLeft = A;
kernRight = O;
lastChange = "2024-05-29 09:58:23 +0000";
layers = (
{
layerId = m01;
shapes = (
{
ref = D;
},
{
closed = 1;
nodes = (
(39,325,l),
(67,286,l),
(281,286,l),
(323,372,l),
(315,402,l),
(43,410,l)
);
}
);
width = 663;
},
{
layerId = m002;
shapes = (
{
pos = (5,0);
ref = D;
},
{
closed = 1;
nodes = (
(44,382,l),
(72,343,l),
(286,343,l),
(328,372,l),
(320,402,l),
(48,410,l)
);
}
);
width = 673;
}
);
unicode = 272;
},
{
glyphname = Eth;
kernLeft = A;
kernRight = O;
lastChange = "2024-05-29 09:58:24 +0000";
layers = (
{
layerId = m01;
shapes = (
{
ref = D;
},
{
closed = 1;
nodes = (
(20,325,l),
(48,286,l),
(338,316,l),
(380,402,l),
(372,433,l),
(24,410,l)
);
}
);
width = 668;
},
{
layerId = m002;
shapes = (
{
pos = (38,0);
ref = D;
},
{
closed = 1;
nodes = (
(58,380,l),
(86,341,l),
(376,371,l),
(418,402,l),
(410,433,l),
(62,410,l)
);
}
);
width = 716;
}
);
metricLeft = D;
metricRight = D;
unicode = 208;
},
{
glyphname = E;
kernLeft = A;
kernRight = E;
lastChange = "2024-06-23 19:12:39 +0000";
layers = (
{
anchors = (
{
name = bottom;
pos = (259,0);
},
{
name = ogonek;
pos = (473,8);
},
{
name = top;
pos = (305,738);
},
{
name = topleft;
pos = (8,680);
}
);
layerId = m01;
shapes = (
{
closed = 1;
nodes = (
(118,0,l),
(556,0,l),
(579,163,l),
(550,188,l),
(395,164,l),
(381,111,l),
(297,111,l),
(232,111,l),
(265,155,l),
(264,299,l),
(406,299,l),
(484,371,l),
(469,428,l),
(261,428,l),
(256,513,l),
(204,552,l),
(469,557,l),
(589,613,l),
(573,702,l),
(309,700,l),
(231,677,l),
(197,700,l),
(115,700,l),
(44,649,l),
(52,591,l),
(100,568,l),
(104,418,l),
(67,401,l),
(78,322,l),
(106,311,l),
(108,178,l),
(78,25,l)
);
}
);
width = 619;
},
{
anchors = (
{
name = bottom;
pos = (268,0);
},
{
name = ogonek;
pos = (482,8);
},
{
name = top;
pos = (314,738);
},
{
name = topleft;
pos = (17,680);
}
);
guides = (
{
angle = 270;
pos = (322,216);
showMeasurement = 1;
},
{
pos = (463,275);
showMeasurement = 1;
}
);
layerId = m002;
shapes = (
{
closed = 1;
nodes = (
(127,0,l),
(565,0,l),
(588,89,l),
(559,114,l),
(488,91,l),
(475,85,l),
(390,60,l),
(192,66,l),
(192,222,l),
(188,377,l),
(361,377,l),
(490,428,l),
(476,458,l),
(186,442,l),
(183,542,l),
(159,621,l),
(525,621,l),
(582,644,l),
(577,700,l),
(232,700,l),
(163,689,l),
(125,700,l),
(82,700,l),
(53,700,l),
(61,641,l),
(107,625,l),
(112,429,l),
(76,412,l),
(72,377,l),
(113,377,l),
(117,178,l),
(87,25,l)
);
}
);
width = 633;
}
);
metricLeft = B;
unicode = 69;
},
{
glyphname = Schwa;
kernLeft = O;
kernRight = O;
lastChange = "2024-05-29 09:58:23 +0000";
layers = (
{
layerId = m01;
shapes = (
{
closed = 1;
nodes = (
(354,700,l),
(272,660,l),
(356,538,l),
(392,502,l),
(438,257,l),
(420,163,l),
(310,59,l),
(525,35,l),
(586,538,l),
(524,643,l)
);
},
{
closed = 1;
nodes = (
(476,0,l),
(525,35,l),
(403,60,l),
(173,101,l),
(103,193,l),
(34,163,l),
(48,129,l),
(132,0,l)
);
},
{
closed = 1;
nodes = (
(88,649,l),
(53,419,l),
(139,375,l),
(287,564,l),
(191,653,l)
);
},
{
closed = 1;
nodes = (
(88,649,l),
(489,460,l),
(539,498,l),
(481,626,l),
(229,700,l),
(166,700,l)
);
},
{
closed = 1;
nodes = (
(53,419,l),
(56,348,l),
(81,298,l),
(449,312,l),
(482,338,l),
(449,375,l)
);
},
{
closed = 1;
nodes = (
(20,129,l),
(101,92,l),
(194,85,l),
(230,188,l),
(219,260,l),
(60,236,l)
);
}
);
width = 616;
},
{
guides = (
{
pos = (804,275);
showMeasurement = 1;
}
);
layerId = m002;
shapes = (
{
closed = 1;
nodes = (
(359,700,l),
(277,660,l),
(424,574,l),
(503,520,l),
(494,257,l),
(476,163,l),
(414,52,l),
(530,35,l),
(591,538,l),
(529,643,l)
);
},
{
closed = 1;
nodes = (
(481,0,l),
(530,35,l),
(456,53,l),
(127,60,l),
(108,193,l),
(39,163,l),
(53,129,l),
(137,0,l)
);
},
{
closed = 1;
nodes = (
(93,649,l),
(58,386,l),
(144,375,l),
(219,641,l),
(196,653,l)
);
},
{
closed = 1;
nodes = (
(93,649,l),
(452,588,l),
(544,498,l),
(486,626,l),
(234,700,l),
(171,700,l)
);
},
{
closed = 1;
nodes = (
(58,386,l),
(61,348,l),
(86,298,l),
(505,312,l),
(538,338,l),
(505,375,l)
);
},
{
closed = 1;
nodes = (
(25,129,l),
(106,92,l),
(127,85,l),
(163,188,l),
(150,228,l),
(65,236,l)
);
}
);
width = 626;
}
);
metricLeft = O;
metricRight = D;
unicode = 399;
},
{
glyphname = F;
kernLeft = A;
lastChange = "2024-06-23 19:11:08 +0000";
layers = (
{
layerId = m01;
shapes = (
{
closed = 1;
nodes = (
(131,28,l),
(273,48,l),
(259,505,l),
(212,540,l),
(440,547,l),
(578,629,l),
(562,700,l),
(302,700,l),
(232,678,l),
(217,700,l),
(157,700,l),
(80,551,l),
(112,204,l),
(80,40,l)
);
},
{
closed = 1;
nodes = (
(321,0,l),
(319,75,l),
(242,148,l),
(80,40,l),
(116,0,l)
);
},
{
closed = 1;
nodes = (
(68,291,l),
(228,291,l),
(313,291,l),
(442,291,l),
(498,387,l),
(480,428,l),
(92,428,l),
(45,371,l)
);
},
{
closed = 1;
nodes = (
(259,579,l),
(259,639,l),
(157,700,l),
(62,642,l),
(44,551,l),
(120,540,l)
);
}
);
width = 578;
},
{
guides = (
{
pos = (382,488);
showMeasurement = 1;
},
{
angle = 270;
pos = (287,488);
showMeasurement = 1;
}
);
layerId = m002;
shapes = (
{
closed = 1;
nodes = (
(116,28,l),
(176,48,l),
(162,587,l),
(116,622,l),
(425,629,l),
(563,644,l),
(547,700,l),
(287,700,l),
(217,678,l),
(202,700,l),
(142,700,l),
(79,623,l),
(97,105,l),
(65,40,l)
);
},
{
closed = 1;
nodes = (
(192,0,l),
(203,58,l),
(156,94,l),
(65,40,l),
(81,0,l)
);
},
{
closed = 1;
nodes = (
(64,309,l),
(224,309,l),
(298,309,l),
(363,309,l),
(393,360,l),
(375,376,l),
(100,376,l),
(53,326,l)
);
},
{
closed = 1;
nodes = (
(244,649,l),
(192,670,l),
(142,700,l),
(65,682,l),
(87,593,l),
(105,639,l)
);
}
);
width = 568;
}
);
metricLeft = B;
unicode = 70;
},
{
glyphname = G;
kernLeft = O;
lastChange = "2024-06-24 12:00:01 +0000";
layers = (
{
anchors = (
{
name = bottom;
pos = (364,30);
},
{
name = top;
pos = (326,731);
}
);
layerId = m01;
shapes = (
{
closed = 1;
nodes = (
(415,68,l),
(278,84,l),
(210,211,l),
(200,235,l),
(208,557,l),
(218,603,l),
(152,700,l),
(56,655,l),
(22,499,l),
(20,209,l),
(44,84,l),
(70,43,l)
);
},
{
closed = 1;
nodes = (
(152,0,l),
(234,0,l),
(380,0,l),
(396,30,l),
(490,0,l),
(574,1,l),
(593,233,l),
(556,285,l),
(428,231,l),
(418,123,l),
(390,78,l),
(70,43,l)
);
},
{
closed = 1;
nodes = (
(586,496,l),
(581,672,l),
(455,704,l),
(424,686,l),
(152,700,l),
(156,594,l),
(156,484,l),
(286,608,l),
(380,613,l),
(393,499,l),
(472,487,l)
);
},
{
closed = 1;
nodes = (
(329,281,l),
(349,254,l),
(472,217,l),
(593,233,l),
(593,278,l),
(567,373,l),
(340,373,l)
);
}
);
width = 613;
},
{
anchors = (
{
name = bottom;
pos = (251,0);
},
{
name = top;
pos = (307,731);
}
);
guides = (
{
pos = (-150,155);
showMeasurement = 1;
}
);
layerId = m002;
shapes = (
{
closed = 1;
nodes = (
(396,68,l),
(141,61,l),
(114,211,l),
(104,235,l),
(112,557,l),
(122,603,l),
(157,700,l),
(61,655,l),
(27,499,l),
(25,209,l),
(49,84,l),
(75,43,l)
);
},
{
closed = 1;
nodes = (
(157,0,l),
(239,0,l),
(361,0,l),
(377,30,l),
(471,0,l),
(555,1,l),
(574,287,l),
(537,339,l),
(494,285,l),
(484,123,l),
(456,78,l),
(75,43,l)
);
},
{
closed = 1;
nodes = (
(574,496,l),
(569,672,l),
(526,704,l),
(495,686,l),
(157,700,l),
(60,594,l),
(92,515,l),
(186,634,l),
(473,649,l),
(502,499,l),
(551,487,l)
);
},
{
closed = 1;
nodes = (
(299,335,l),
(319,308,l),
(538,271,l),
(574,287,l),
(574,332,l),
(548,373,l),
(310,373,l)
);
}
);
width = 629;
}
);
metricLeft = O;
unicode = 71;
},
{
glyphname = H;
kernLeft = A;
kernRight = M;
lastChange = "2024-06-23 13:28:13 +0000";
layers = (
{
anchors = (
{
name = top;
pos = (345,719);
}
);
layerId = m01;
shapes = (
{
closed = 1;
nodes = (
(86,0,l),
(247,0,l),
(235,504,l),
(235,700,l),
(78,652,l),
(93,152,l),
(59,27,l)
);
},
{
closed = 1;
nodes = (
(163,254,l),
(155,348,l),
(136,384,l),
(52,384,l),
(59,254,l)
);
},
{
closed = 1;
nodes = (
(384,254,l),
(473,384,l),
(181,384,l),
(190,254,l)
);
},
{
closed = 1;
nodes = (
(603,1,l),
(590,525,l),
(590,695,l),
(426,624,l),
(430,91,l),
(418,41,l),
(466,0,l)
);
},
{
closed = 1;
nodes = (
(406,652,l),
(446,556,l),
(570,548,l),
(626,597,l),
(615,700,l),
(430,700,l)
);
},
{
closed = 1;
nodes = (
(615,0,l),
(626,103,l),
(570,152,l),
(446,144,l),
(406,48,l),
(430,0,l)
);
},
{
closed = 1;
nodes = (
(55,700,l),
(44,597,l),
(100,548,l),
(224,556,l),
(264,652,l),
(240,700,l)
);
}
);
width = 655;
},
{
anchors = (
{
name = top;
pos = (331,694);
}
);
guides = (
{
pos = (329,179);
showMeasurement = 1;
}
);
layerId = m002;
shapes = (
{
closed = 1;
nodes = (
(89,0,l),
(180,0,l),
(169,635,l),
(168,700,l),
(81,652,l),
(96,91,l),
(62,27,l)
);
},
{
closed = 1;
nodes = (
(133,314,l),
(133,354,l),
(127,381,l),
(59,381,l),
(70,314,l)
);
},
{
closed = 1;
nodes = (
(466,314,l),
(522,381,l),
(144,381,l),
(162,314,l)
);
},
{
closed = 1;
nodes = (
(580,1,l),
(567,525,l),
(571,694,l),
(492,624,l),
(496,91,l),
(484,41,l),
(532,0,l)
);
},
{
closed = 1;
nodes = (
(472,652,l),
(512,556,l),
(555,617,l),
(603,639,l),
(603,700,l),
(496,700,l)
);
},
{
closed = 1;
nodes = (
(603,0,l),
(603,61,l),
(555,83,l),
(512,144,l),
(472,48,l),
(496,0,l)
);
},
{
closed = 1;
nodes = (
(53,700,l),
(53,639,l),
(121,581,l),
(151,556,l),
(184,652,l),
(173,700,l)
);
}
);
width = 637;
}
);
metricLeft = B;
metricRight = A;
unicode = 72;
},
{
glyphname = Hbar;
kernLeft = A;
kernRight = M;
lastChange = "2024-05-29 09:58:23 +0000";
layers = (
{
layerId = m01;
shapes = (
{
closed = 1;
nodes = (
(500,271,l),
(510,374,l),
(160,324,l),
(177,182,l)
);
},
{
closed = 1;
nodes = (
(596,0,l),
(582,495,l),
(578,685,l),
(539,700,l),
(411,700,l),
(422,91,l),
(410,41,l),
(459,0,l)
);
},
{
closed = 1;
nodes = (
(616,454,l),
(625,556,l),
(160,508,l),
(177,366,l)
);
},
{
closed = 1;
nodes = (
(219,372,l),
(237,518,l),
(143,511,l),
(44,479,l),
(49,326,l)
);
},
{
closed = 1;
nodes = (
(262,700,l),
(96,700,l),
(109,191,l),
(77,27,l),
(104,0,l),
(265,0,l),
(253,474,l),
(284,678,l)
);
}
);
width = 654;
},
{
guides = (
{
pos = (715,159);
showMeasurement = 1;
}
);
layerId = m002;
shapes = (
{
closed = 1;
nodes = (
(532,308,l),
(519,374,l),
(169,324,l),
(175,263,l)
);
},
{
closed = 1;
nodes = (
(605,0,l),
(591,495,l),
(587,685,l),
(548,700,l),
(509,700,l),
(520,91,l),
(508,41,l),
(557,0,l)
);
},
{
closed = 1;
nodes = (
(628,479,l),
(634,556,l),
(169,508,l),
(169,422,l)
);
},
{
closed = 1;
nodes = (
(150,423,l),
(156,507,l),
(134,505,l),
(53,479,l),
(61,408,l)
);
},
{
closed = 1;
nodes = (
(167,700,l),
(105,700,l),
(118,88,l),
(86,27,l),
(113,0,l),
(195,0,l),
(189,474,l),
(189,678,l)
);
}
);
width = 668;
}
);
metricLeft = H;
metricRight = H;
unicode = 294;
},
{
glyphname = I;
kernLeft = A;
lastChange = "2024-06-18 19:20:08 +0000";
layers = (
{
anchors = (
{
name = bottom;
pos = (184,0);
},
{
name = ogonek;
pos = (326,8);
},
{
name = top;
pos = (193,726);
},
{
name = topleft;
pos = (21,680);
}
);
layerId = m01;
shapes = (
{
closed = 1;
nodes = (
(48,607,l),
(75,567,l),
(127,561,l),
(177,615,l),
(281,700,l),
(221,700,l),
(98,700,l),
(44,680,l)
);
},
{
closed = 1;
nodes = (
(101,0,l),
(249,14,l),
(250,488,l),
(302,672,l),
(281,700,l),
(92,646,l),
(91,164,l),
(60,28,l)
);
},
{
closed = 1;
nodes = (
(239,140,l),
(125,174,l),
(94,132,l),
(184,79,l),
(101,0,l),
(268,0,l),
(273,17,l),
(277,90,l)
);
}
);
width = 331;
},
{
anchors = (
{
name = bottom;
pos = (161,0);
},
{
name = ogonek;
pos = (303,8);
},
{
name = top;
pos = (170,726);
},
{
name = topleft;
pos = (-2,680);
}
);
guides = (
{
pos = (18,334);
showMeasurement = 1;
}
);
layerId = m002;
shapes = (
{
closed = 1;
nodes = (
(53,662,l),
(80,622,l),
(132,616,l),
(154,615,l),
(219,700,l),
(198,700,l),
(103,700,l),
(64,700,l)
);
},
{
closed = 1;
nodes = (
(83,0,l),
(177,14,l),
(178,622,l),
(227,654,l),
(219,700,l),
(97,646,l),
(96,87,l),
(65,28,l)
);
},
{
closed = 1;
nodes = (
(160,108,l),
(123,142,l),
(99,132,l),
(154,47,l),
(83,0,l),
(196,0,l),
(201,17,l),
(198,58,l)
);
}
);
width = 261;
}
);
metricLeft = B;
metricRight = H;
unicode = 73;
},
{
glyphname = J;
kernLeft = J;
kernRight = M;
lastChange = "2024-06-18 12:56:51 +0000";
layers = (
{
anchors = (
{
name = bottom;
pos = (276,0);
},
{
name = top;
pos = (427,707);
}
);
layerId = m01;
shapes = (
{
closed = 1;
nodes = (
(477,40,l),
(498,585,l),
(537,631,l),
(542,663,l),
(517,700,l),
(288,700,l),
(267,628,l),
(321,555,l),
(318,422,l),
(309,44,l),
(350,0,l)
);
},
{
closed = 1;
nodes = (
(158,46,l),
(192,177,l),
(155,313,l),
(112,332,l),
(10,192,l),
(138,0,l)
);
},
{
closed = 1;
nodes = (
(472,58,l),
(390,242,l),
(128,58,l),
(138,0,l)
);
}
);
width = 563;
},
{
anchors = (
{
name = bottom;
pos = (301,0);
},
{
name = top;
pos = (496,672);
}
);
guides = (
{
pos = (-66,271);
showMeasurement = 1;
}
);
layerId = m002;
shapes = (
{
closed = 1;
nodes = (
(502,40,l),
(523,601,l),
(562,647,l),
(567,679,l),
(542,700,l),
(422,700,l),
(413,654,l),
(434,612,l),
(431,422,l),
(422,46,l),
(482,0,l)
);
},
{
closed = 1;
nodes = (
(183,46,l),
(183,109,l),
(125,234,l),
(82,253,l),
(35,192,l),
(163,0,l)
);
},
{
closed = 1;
nodes = (
(497,58,l),
(397,121,l),
(153,58,l),
(163,0,l)
);
}
);
width = 593;
}
);
unicode = 74;
},
{
glyphname = K;
kernLeft = A;
lastChange = "2024-07-01 17:08:37 +0000";
layers = (
{
anchors = (
{
name = bottom;
pos = (388,-2);
},
{
name = top;
pos = (374,695);
}
);
layerId = m01;
shapes = (
{
closed = 1;
nodes = (
(132,0,l),
(287,0,l),
(275,449,l),
(290,680,l),
(112,622,l),
(126,175,l),
(96,37,l)
);
},
{
closed = 1;
nodes = (
(565,21,l),
(489,96,l),
(525,177,l),
(442,297,l),
(357,302,l),
(228,266,l),
(265,212,l),
(360,191,l),
(447,0,l)
);
},
{
closed = 1;
nodes = (
(380,258,l),
(388,339,l),
(412,439,l),
(76,338,l),
(44,233,l),
(71,194,l)
);
},
{
closed = 1;
nodes = (
(639,563,l),
(643,658,l),
(533,702,l),
(469,671,l),
(247,310,l),
(348,266,l)
);
},
{
closed = 1;
nodes = (
(75,574,l),
(167,520,l),
(275,449,l),
(290,680,l),
(229,714,l),
(49,689,l)
);
},
{
closed = 1;
nodes = (
(447,0,l),
(579,0,l),
(615,-1,l),
(618,114,l),
(534,148,l),
(453,86,l)
);
}
);
width = 658;
},
{
anchors = (
{
name = bottom;
pos = (366,-2);
},
{
name = top;
pos = (352,695);
}
);
guides = (
{
pos = (671,431);
showMeasurement = 1;
}
);
layerId = m002;
shapes = (
{
closed = 1;
nodes = (
(110,0,l),
(186,0,l),
(174,449,l),
(189,680,l),
(90,622,l),
(104,175,l),
(74,37,l)
);
},
{
closed = 1;
nodes = (
(543,21,l),
(540,96,l),
(503,177,l),
(420,297,l),
(256,359,l),
(127,301,l),
(237,306,l),
(390,258,l),
(498,0,l)
);
},
{
closed = 1;
nodes = (
(281,296,l),
(288,337,l),
(319,418,l),
(153,353,l),
(122,343,l),
(121,299,l)
);
},
{
closed = 1;
nodes = (
(607,634,l),
(606,673,l),
(528,700,l),
(480,645,l),
(221,352,l),
(274,329,l)
);
},
{
closed = 1;
nodes = (
(53,641,l),
(145,587,l),
(174,449,l),
(189,680,l),
(127,703,l),
(61,701,l)
);
},
{
closed = 1;
nodes = (
(498,0,l),
(557,0,l),
(583,14,l),
(591,58,l),
(532,81,l),
(504,86,l)
);
}
);
width = 641;
}
);
metricLeft = B;
unicode = 75;
},
{
glyphname = L;
kernLeft = A;
kernRight = L;
lastChange = "2024-06-23 13:11:02 +0000";
layers = (
{
anchors = (
{
name = bottom;
pos = (274,0);
},
{
name = center;
pos = (274,340);
},
{
name = top;
pos = (161,699);
},
{
name = topright;
pos = (499,680);
}
);
layerId = m01;
shapes = (
{
closed = 1;
nodes = (
(86,0,l),
(439,0,l),
(515,135,l),
(480,148,l),
(263,140,l),
(200,120,l),
(237,168,l),
(238,518,l),
(298,662,l),
(267,700,l),
(81,622,l),
(94,201,l),
(60,28,l)
);
},
{
closed = 1;
nodes = (
(44,700,l),
(44,609,l),
(136,559,l),
(280,641,l),
(267,700,l)
);
},
{
closed = 1;
nodes = (
(466,216,l),
(360,197,l),
(331,135,l),
(415,124,l),
(515,135,l),
(496,201,l)
);
}
);
width = 515;
},
{
anchors = (
{
name = bottom;
pos = (283,0);
},
{
name = center;
pos = (283,340);
},
{
name = top;
pos = (170,699);
},
{
name = topright;
pos = (508,680);
}
);
guides = (
{
pos = (38,307);
showMeasurement = 1;
}
);
layerId = m002;
shapes = (
{
closed = 1;
nodes = (
(95,0,l),
(448,0,l),
(509,110,l),
(369,35,l),
(208,65,l),
(145,45,l),
(176,93,l),
(177,576,l),
(237,662,l),
(206,700,l),
(90,680,l),
(103,201,l),
(69,28,l)
);
},
{
closed = 1;
nodes = (
(53,700,l),
(53,667,l),
(139,617,l),
(185,674,l),
(206,700,l)
);
},
{
closed = 1;
nodes = (
(482,129,l),
(376,110,l),
(354,66,l),
(424,48,l),
(509,110,l),
(502,132,l)
);
}
);
width = 529;
}
);
metricLeft = B;
unicode = 76;
},
{
glyphname = Lslash;
kernLeft = A;
kernRight = L;
lastChange = "2024-05-29 09:58:24 +0000";
layers = (
{
layerId = m01;
shapes = (
{
ref = L;
},
{
closed = 1;
nodes = (
(46,308,l),
(74,269,l),
(290,291,l),
(333,378,l),
(325,408,l),
(50,393,l)
);
}
);
width = 515;
},
{
layerId = m002;
shapes = (
{
pos = (7,0);
ref = L;
},
{
closed = 1;
nodes = (
(53,363,l),
(81,324,l),
(297,346,l),
(340,378,l),
(332,408,l),
(57,393,l)
);
}
);
width = 536;
}
);
metricLeft = L;
metricRight = L;
unicode = 321;
},
{
glyphname = M;
kernLeft = A;
kernRight = A;
lastChange = "2024-06-24 12:02:14 +0000";
layers = (
{
layerId = m01;
shapes = (
{
closed = 1;
nodes = (
(549,44,l),
(669,546,l),
(735,576,l),
(892,648,l),
(730,717,l),
(573,661,l),
(428,0,l)
);
},
{
closed = 1;
nodes = (
(231,0,l),
(264,42,l),
(256,178,l),
(91,143,l),
(59,90,l),
(77,0,l)
);
},
{
closed = 1;
nodes = (
(264,42,l),
(257,485,l),
(175,534,l),
(256,553,l),
(295,539,l),
(326,700,l),
(278,720,l),
(79,630,l),
(92,178,l),
(83,81,l),
(120,33,l)
);
},
{
closed = 1;
nodes = (
(861,0,l),
(852,493,l),
(892,648,l),
(707,586,l),
(702,572,l),
(700,508,l),
(684,129,l),
(655,74,l),
(684,0,l)
);
},
{
closed = 1;
nodes = (
(47,534,l),
(114,474,l),
(132,421,l),
(201,653,l),
(278,720,l),
(44,660,l)
);
},
{
closed = 1;
nodes = (
(326,700,l),
(259,644,l),
(428,0,l),
(507,186,l),
(363,681,l)
);
}
);
width = 892;
},
{
guides = (
{
pos = (53,383);
showMeasurement = 1;
}
);
layerId = m002;
shapes = (
{
closed = 1;
nodes = (
(490,202,l),
(731,630,l),
(761,619,l),
(816,652,l),
(746,700,l),
(676,700,l),
(414,205,l)
);
},
{
closed = 1;
nodes = (
(148,0,l),
(173,65,l),
(173,140,l),
(100,105,l),
(68,52,l),
(86,0,l)
);
},
{
closed = 1;
nodes = (
(181,0,l),
(171,555,l),
(171,588,l),
(170,624,l),
(220,651,l),
(241,700,l),
(191,700,l),
(88,630,l),
(101,140,l),
(92,43,l),
(148,0,l)
);
},
{
closed = 1;
nodes = (
(825,0,l),
(816,570,l),
(816,652,l),
(740,652,l),
(740,575,l),
(740,553,l),
(740,105,l),
(704,50,l),
(733,0,l)
);
},
{
closed = 1;
nodes = (
(56,627,l),
(123,567,l),
(146,568,l),
(150,640,l),
(191,700,l),
(53,660,l)
);
},
{
closed = 1;
nodes = (
(199,676,l),
(181,640,l),
(414,205,l),
(469,283,l),
(241,700,l)
);
}
);
width = 860;
}
);
metricLeft = B;
unicode = 77;
},
{
glyphname = N;
kernLeft = A;
kernRight = N;
lastChange = "2024-06-01 09:49:39 +0000";
layers = (
{
anchors = (
{
name = bottom;
pos = (357,0);
},
{
name = top;
pos = (418,712);
}
);
layerId = m01;
shapes = (
{
closed = 1;
nodes = (
(664,0,l),
(662,501,l),
(702,650,l),
(665,700,l),
(507,700,l),
(519,221,l),
(529,147,l),
(498,203,l),
(257,700,l),
(32,700,l),
(34,625,l),
(88,579,l),
(102,178,l),
(74,31,l),
(102,0,l),
(272,0,l),
(272,426,l),
(289,384,l),
(495,0,l)
);
}
);
width = 731;
},
{
anchors = (
{
name = bottom;
pos = (362,0);
},
{
name = top;
pos = (391,712);
}
);
guides = (
{
pos = (-66,309);
showMeasurement = 1;
}
);
layerId = m002;
shapes = (
{
closed = 1;
nodes = (
(669,0,l),
(667,591,l),
(707,650,l),
(670,700,l),
(576,700,l),
(588,221,l),
(588,73,l),
(461,289,l),
(218,700,l),
(37,700,l),
(41,654,l),
(95,608,l),
(109,102,l),
(79,52,l),
(107,0,l),
(185,0,l),
(174,616,l),
(406,240,l),
(554,0,l)
);
}
);
width = 741;
}
);
metricRight = H;
unicode = 78;
},
{
glyphname = O;
kernLeft = O;
kernRight = O;
lastChange = "2024-07-01 17:12:43 +0000";
layers = (
{
anchors = (
{
name = bottom;
pos = (246,0);
},
{
name = center;
pos = (246,311);
},
{
name = ogonek;
pos = (503,9);
},
{
name = top;
pos = (317,735);
},
{
name = topleft;
pos = (-57,622);
},
{
name = topright;
pos = (549,622);
}
);
guides = (
{
pos = (624,476);
showMeasurement = 1;
}
);
layerId = m01;
shapes = (
{
closed = 1;
nodes = (
(198,0,l),
(265,108,l),
(196,174,l),
(196,589,l),
(262,612,l),
(124,648,l),
(75,631,l),
(21,583,l),
(20,495,l),
(20,151,l),
(159,0,l)
);
},
{
closed = 1;
nodes = (
(582,140,l),
(582,558,l),
(578,607,l),
(501,699,l),
(417,683,l),
(349,614,l),
(425,541,l),
(424,254,l),
(424,213,l),
(424,132,l),
(365,132,l),
(132,133,l),
(176,0,l),
(330,0,l),
(412,0,l)
);
},
{
closed = 1;
nodes = (
(275,576,l),
(495,576,l),
(501,699,l),
(304,699,l),
(242,676,l),
(187,699,l),
(22,611,l),
(21,583,l),
(122,570,l)
);
}
);
width = 603;
},
{
anchors = (
{
name = bottom;
pos = (258,0);
},
{
name = center;
pos = (258,311);
},
{
name = ogonek;
pos = (515,9);
},
{
name = top;
pos = (333,728);
},
{
name = topleft;
pos = (-45,622);
},
{
name = topright;
pos = (561,622);
}
);
guides = (
{
pos = (328,330);
showMeasurement = 1;
}
);
layerId = m002;
shapes = (
{
closed = 1;
nodes = (
(69,48,l),
(63,69,l),
(123,129,l),
(116,590,l),
(182,657,l),
(123,686,l),
(87,676,l),
(25,596,l),
(32,495,l),
(49,41,l),
(76,25,l)
);
},
{
closed = 1;
nodes = (
(538,41,l),
(594,558,l),
(560,664,l),
(513,700,l),
(429,683,l),
(477,663,l),
(500,586,l),
(490,232,l),
(489,191,l),
(487,129,l),
(452,75,l),
(52,76,l),
(76,25,l),
(134,-1,l),
(424,0,l)
);
},
{
closed = 1;
nodes = (
(96,633,l),
(522,633,l),
(513,700,l),
(316,700,l),
(240,680,l),
(166,700,l),
(78,683,l),
(25,596,l),
(52,561,l)
);
}
);
width = 620;
}
);
metricLeft = C;
unicode = 79;
},
{
glyphname = Oslash;
kernLeft = O;
kernRight = O;
lastChange = "2024-07-01 17:41:33 +0000";
layers = (
{
layerId = m01;
shapes = (
{
closed = 1;
nodes = (
(193,-49,l),
(509,664,l),
(538,712,l),
(517,744,l),
(430,744,l),
(406,692,l),
(67,-33,l),
(97,-64,l)
);
},
{
ref = O;
}
);
width = 603;
},
{
layerId = m002;
shapes = (
{
closed = 1;
nodes = (
(182,-49,l),
(498,664,l),
(527,712,l),
(517,744,l),
(464,744,l),
(440,692,l),
(101,-33,l),
(97,-64,l)
);
},
{
ref = O;
}
);
width = 620;
}
);
metricLeft = O;
metricRight = O;
unicode = 216;
},
{
glyphname = OE;
kernLeft = O;
kernRight = E;
lastChange = "2024-06-01 08:32:59 +0000";
layers = (
{
anchors = (
{
name = bottom;
pos = (255,0);
},
{
name = center;
pos = (255,311);
},
{
name = ogonek;
pos = (512,9);
},
{
name = top;
pos = (420,742);
},
{
name = topleft;
pos = (-48,622);
},
{
name = topright;
pos = (558,622);
}
);
layerId = m01;
shapes = (
{
closed = 1;
nodes = (
(143,119,l),
(210,186,l),
(203,545,l),
(269,612,l),
(131,648,l),
(82,631,l),
(20,596,l),
(27,495,l),
(44,41,l),
(69,15,l)
);
},
{
closed = 1;
nodes = (
(533,41,l),
(589,558,l),
(555,664,l),
(508,699,l),
(424,688,l),
(407,129,l),
(372,132,l),
(139,133,l),
(71,25,l),
(129,-1,l),
(419,0,l)
);
},
{
closed = 1;
nodes = (
(142,576,l),
(508,598,l),
(508,699,l),
(165,699,l),
(73,683,l),
(20,596,l),
(47,561,l)
);
},
{
closed = 1;
nodes = (
(543,0,l),
(868,0,l),
(891,163,l),
(693,111,l),
(601,117,l),
(577,117,l),
(577,222,l),
(568,494,l),
(491,552,l),
(640,644,l),
(410,639,l),
(420,178,l),
(493,67,l)
);
},
{
closed = 1;
nodes = (
(725,296,l),
(854,386,l),
(840,464,l),
(436,381,l),
(440,357,l),
(436,274,l)
);
},
{
closed = 1;
nodes = (
(781,538,l),
(901,613,l),
(885,702,l),
(619,700,l),
(556,661,l),
(473,532,l)
);
},
{
closed = 1;
nodes = (
(375,700,l),
(383,591,l),
(433,557,l),
(633,628,l),
(529,700,l)
);
},
{
closed = 1;
nodes = (
(693,111,l),
(823,92,l),
(891,163,l),
(862,188,l),
(707,164,l)
);
}
);
width = 931;
},
{
anchors = (
{
name = bottom;
pos = (224,0);
},
{
name = center;
pos = (224,311);
},
{
name = ogonek;
pos = (481,9);
},
{
name = top;
pos = (389,742);
},
{
name = topleft;
pos = (-79,622);
},
{
name = topright;
pos = (527,622);
}
);
guides = (
{
pos = (927,496);
showMeasurement = 1;
},
{
angle = 270;
pos = (686,149);
showMeasurement = 1;
}
);
layerId = m002;
shapes = (
{
closed = 1;
nodes = (
(74,65,l),
(118,114,l),
(111,583,l),
(177,650,l),
(136,686,l),
(87,631,l),
(25,596,l),
(32,495,l),
(49,41,l),
(74,15,l)
);
},
{
closed = 1;
nodes = (
(479,41,l),
(522,611,l),
(524,664,l),
(477,699,l),
(435,688,l),
(429,129,l),
(372,80,l),
(63,73,l),
(74,15,l),
(134,-1,l),
(388,0,l)
);
},
{
closed = 1;
nodes = (
(57,614,l),
(477,636,l),
(477,699,l),
(170,699,l),
(78,683,l),
(25,596,l),
(52,561,l)
);
},
{
closed = 1;
nodes = (
(512,0,l),
(837,0,l),
(860,138,l),
(752,82,l),
(570,76,l),
(523,80,l),
(507,108,l),
(514,557,l),
(437,615,l),
(609,644,l),
(444,673,l),
(444,178,l),
(462,67,l)
);
},
{
closed = 1;
nodes = (
(678,352,l),
(727,379,l),
(728,451,l),
(453,405,l),
(457,381,l),
(452,348,l)
);
},
{
closed = 1;
nodes = (
(818,627,l),
(870,676,l),
(854,702,l),
(588,700,l),
(525,661,l),
(510,621,l)
);
},
{
closed = 1;
nodes = (
(346,699,l),
(411,642,l),
(453,583,l),
(545,662,l),
(498,700,l)
);
},
{
closed = 1;
nodes = (
(752,82,l),
(792,92,l),
(860,138,l),
(831,163,l),
(766,114,l)
);
}
);
width = 915;
}
);
metricLeft = O;
metricRight = E;
unicode = 338;
},
{
glyphname = P;
kernLeft = A;
kernRight = P;
lastChange = "2024-06-26 17:04:33 +0000";
layers = (
{
layerId = m01;
shapes = (
{
closed = 1;
nodes = (
(78,17,l),
(118,0,l),
(282,0,l),
(294,98,l),
(249,138,l),
(249,210,l),
(421,211,l),
(598,352,l),
(632,583,l),
(559,700,l),
(321,700,l),
(283,674,l),
(180,700,l),
(44,644,l),
(52,567,l),
(100,520,l),
(101,143,l),
(67,41,l)
);
},
{
closed = 1;
nodes = (
(447,571,l),
(445,336,l),
(302,336,l),
(254,284,l),
(254,519,l),
(208,571,l)
);
}
);
width = 644;
},
{
guides = (
{
pos = (364,424);
showMeasurement = 1;
}
);
layerId = m002;
shapes = (
{
closed = 1;
nodes = (
(89,17,l),
(129,0,l),
(226,0,l),
(236,44,l),
(198,77,l),
(195,259,l),
(562,258,l),
(576,337,l),
(631,649,l),
(558,700,l),
(218,700,l),
(157,700,l),
(111,700,l),
(53,675,l),
(71,596,l),
(111,560,l),
(111,109,l),
(78,41,l)
);
},
{
closed = 1;
nodes = (
(553,641,l),
(498,341,l),
(445,302,l),
(194,296,l),
(195,596,l),
(141,639,l)
);
}
);
width = 653;
}
);
metricLeft = B;
unicode = 80;
},
{
glyphname = Thorn;
kernLeft = A;
lastChange = "2024-05-29 09:58:23 +0000";
layers = (
{
layerId = m01;
shapes = (
{
closed = 1;
nodes = (
(48,607,l),
(75,567,l),
(127,561,l),
(177,615,l),
(268,668,l),
(296,703,l),
(108,704,l),
(44,680,l)
);
},
{
closed = 1;
nodes = (
(101,0,l),
(260,0,l),
(255,476,l),
(311,671,l),
(296,703,l),
(92,646,l),
(91,164,l),
(60,28,l)
);
},
{
closed = 1;
nodes = (
(254,121,l),
(125,174,l),
(94,132,l),
(184,32,l),
(260,0,l),
(287,6,l),
(293,43,l),
(297,94,l)
);
},
{
closed = 1;
nodes = (
(367,144,l),
(492,144,l),
(428,268,l),
(185,259,l),
(205,213,l)
);
},
{
closed = 1;
nodes = (
(580,457,l),
(440,470,l),
(403,308,l),
(343,227,l),
(492,144,l)
);
},
{
closed = 1;
nodes = (
(539,451,l),
(580,457,l),
(519,558,l),
(271,549,l),
(226,422,l)
);
}
);
width = 609;
},
{
guides = (
{
pos = (990,363);
showMeasurement = 1;
}
);
layerId = m002;
shapes = (
{
closed = 1;
nodes = (
(53,667,l),
(80,627,l),
(132,621,l),
(98,675,l),
(149,668,l),
(177,703,l),
(113,704,l),
(60,700,l)
);
},
{
closed = 1;
nodes = (
(106,0,l),
(181,0,l),
(176,624,l),
(192,671,l),
(177,703,l),
(97,684,l),
(96,111,l),
(83,30,l)
);
},
{
closed = 1;
nodes = (
(175,73,l),
(130,220,l),
(99,178,l),
(105,32,l),
(181,0,l),
(208,6,l),
(214,43,l),
(218,46,l)
);
},
{
closed = 1;
nodes = (
(372,144,l),
(497,144,l),
(485,236,l),
(106,227,l),
(126,213,l)
);
},
{
closed = 1;
nodes = (
(585,457,l),
(497,539,l),
(460,276,l),
(400,195,l),
(497,144,l)
);
},
{
closed = 1;
nodes = (
(524,494,l),
(585,457,l),
(524,558,l),
(218,550,l),
(147,466,l)
);
}
);
width = 619;
}
);
metricLeft = I;
metricRight = A;
unicode = 222;
},
{
glyphname = Q;
kernLeft = O;
kernRight = O;
lastChange = "2024-07-01 17:12:27 +0000";
layers = (
{
layerId = m01;
shapes = (
{
closed = 1;
nodes = (
(532,-33,l),
(400,128,l),
(372,236,l),
(249,266,l),
(213,226,l),
(397,-61,l),
(496,-86,l)
);
},
{
closed = 1;
nodes = (
(198,0,l),
(265,108,l),
(196,174,l),
(196,589,l),
(262,612,l),
(124,648,l),
(75,631,l),
(21,583,l),
(20,495,l),
(20,151,l),
(159,0,l)
);
},
{
closed = 1;
nodes = (
(582,140,l),
(582,558,l),
(578,607,l),
(501,699,l),
(417,683,l),
(349,614,l),
(425,541,l),
(424,254,l),
(424,213,l),
(424,132,l),
(365,132,l),
(132,133,l),
(176,0,l),
(330,0,l),
(412,0,l)
);
},
{
closed = 1;
nodes = (
(275,576,l),
(495,576,l),
(501,699,l),
(304,699,l),
(242,676,l),
(187,699,l),
(22,611,l),
(21,583,l),
(122,570,l)
);
}
);
width = 603;
},
{
guides = (
{
pos = (368,369);
showMeasurement = 1;
}
);
layerId = m002;
shapes = (
{
closed = 1;
nodes = (
(520,-42,l),
(388,119,l),
(360,227,l),
(254,266,l),
(246,238,l),
(430,-49,l),
(501,-86,l)
);
},
{
closed = 1;
nodes = (
(69,48,l),
(63,69,l),
(123,129,l),
(116,590,l),
(182,657,l),
(123,686,l),
(87,676,l),
(25,596,l),
(32,495,l),
(49,41,l),
(76,25,l)
);
},
{
closed = 1;
nodes = (
(538,41,l),
(594,558,l),
(560,664,l),
(513,700,l),
(429,683,l),
(477,663,l),
(500,586,l),
(490,232,l),
(489,191,l),
(487,129,l),
(452,75,l),
(52,76,l),
(76,25,l),
(134,-1,l),
(424,0,l)
);
},
{
closed = 1;
nodes = (
(83,634,l),
(513,634,l),
(513,700,l),
(316,700,l),
(240,680,l),
(166,700,l),
(78,683,l),
(25,596,l),
(52,561,l)
);
}
);
width = 620;
}
);
metricLeft = O;
metricRight = O;
unicode = 81;
},
{
glyphname = R;
kernLeft = A;
lastChange = "2024-06-26 17:04:48 +0000";
layers = (
{
anchors = (
{
name = bottom;
pos = (321,0);
},
{
name = top;
pos = (354,700);
}
);
layerId = m01;
shapes = (
{
closed = 1;
nodes = (
(123,0,l),
(270,0,l),
(261,520,l),
(202,557,l),
(311,660,l),
(92,622,l),
(105,136,l),
(86,67,l)
);
},
{
closed = 1;
nodes = (
(563,-62,l),
(553,62,l),
(478,184,l),
(353,216,l),
(406,264,l),
(267,213,l),
(445,-80,l)
);
},
{
closed = 1;
nodes = (
(501,229,l),
(578,251,l),
(637,592,l),
(569,652,l),
(479,618,l),
(434,304,l),
(306,304,l),
(201,168,l)
);
},
{
closed = 1;
nodes = (
(529,550,l),
(637,592,l),
(563,700,l),
(326,698,l),
(191,550,l)
);
},
{
closed = 1;
nodes = (
(70,536,l),
(139,460,l),
(232,444,l),
(126,558,l),
(322,662,l),
(174,700,l),
(44,651,l)
);
},
{
closed = 1;
nodes = (
(445,-80,l),
(570,-82,l),
(610,-52,l),
(608,26,l),
(595,42,l),
(501,42,l)
);
}
);
width = 666;
},
{
anchors = (
{
name = bottom;
pos = (330,0);
},
{
name = top;
pos = (363,700);
}
);
guides = (
{
pos = (-108,367);
showMeasurement = 1;
}
);
layerId = m002;
shapes = (
{
closed = 1;
nodes = (
(132,0,l),
(194,0,l),
(185,573,l),
(128,610,l),
(320,660,l),
(101,633,l),
(114,136,l),
(95,67,l)
);
},
{
closed = 1;
nodes = (
(521,7,l),
(517,117,l),
(431,215,l),
(363,245,l),
(363,269,l),
(304,260,l),
(518,0,l)
);
},
{
closed = 1;
nodes = (
(556,242,l),
(575,309,l),
(646,568,l),
(609,627,l),
(572,640,l),
(517,302,l),
(231,300,l),
(162,229,l)
);
},
{
closed = 1;
nodes = (
(609,627,l),
(646,568,l),
(572,700,l),
(335,698,l),
(135,623,l)
);
},
{
closed = 1;
nodes = (
(79,617,l),
(104,591,l),
(142,591,l),
(202,639,l),
(331,662,l),
(183,700,l),
(53,662,l)
);
},
{
closed = 1;
nodes = (
(518,0,l),
(534,0,l),
(580,0,l),
(600,57,l),
(562,96,l),
(465,87,l)
);
}
);
width = 680;
}
);
metricLeft = B;
metricRight = H;
unicode = 82;
},
{
glyphname = S;
kernLeft = S;
kernRight = S;
lastChange = "2024-06-19 10:33:45 +0000";
layers = (
{
anchors = (
{
name = bottom;
pos = (316,35);
},
{
name = top;
pos = (310,714);
}
);
layerId = m01;
shapes = (
{
closed = 1;
nodes = (
(129,296,l),
(177,323,l),
(366,323,l),
(366,87,l),
(256,87,l),
(214,173,l),
(160,205,l),
(42,137,l),
(41,10,l),
(115,0,l),
(461,0,l),
(543,143,l),
(543,363,l),
(461,428,l),
(211,395,l),
(209,593,l),
(364,593,l),
(384,551,l),
(419,478,l),
(522,515,l),
(569,621,l),
(552,690,l),
(229,706,l),
(81,676,l),
(78,646,l),
(28,626,l),
(28,296,l)
);
}
);
width = 594;
},
{
anchors = (
{
name = bottom;
pos = (261,9);
},
{
name = top;
pos = (240,538);
}
);
guides = (
{
pos = (545,267);
showMeasurement = 1;
},
{
angle = 90;
pos = (32,212);
}
);
layerId = m002;
shapes = (
{
closed = 1;
nodes = (
(93,377,l),
(230,357,l),
(430,327,l),
(422,60,l),
(272,59,l),
(171,59,l),
(122,125,l),
(47,137,l),
(46,10,l),
(120,0,l),
(437,0,l),
(508,69,l),
(508,343,l),
(426,392,l),
(115,413,l),
(137,624,l),
(293,634,l),
(427,643,l),
(447,530,l),
(491,515,l),
(538,621,l),
(496,661,l),
(455,700,l),
(117,700,l),
(78,654,l),
(57,634,l),
(32,419,l)
);
}
);
width = 563;
}
);
unicode = 83;
},
{
glyphname = Germandbls;
kernLeft = A;
lastChange = "2024-05-29 09:58:23 +0000";
layers = (
{
layerId = m01;
shapes = (
{
closed = 1;
nodes = (
(311,0,l),
(307,64,l),
(276,113,l),
(284,464,l),
(186,580,l),
(154,671,l),
(109,609,l),
(113,105,l),
(89,46,l),
(113,0,l)
);
},
{
closed = 1;
nodes = (
(276,395,l),
(268,463,l),
(200,506,l),
(74,471,l),
(44,441,l),
(100,342,l)
);
},
{
closed = 1;
nodes = (
(593,3,l),
(641,115,l),
(672,287,l),
(554,385,l),
(446,436,l),
(367,376,l),
(378,280,l),
(422,285,l),
(552,301,l),
(564,265,l),
(475,130,l),
(398,179,l),
(332,198,l),
(312,123,l),
(417,-19,l)
);
},
{
closed = 1;
nodes = (
(529,434,l),
(589,478,l),
(600,626,l),
(465,696,l),
(296,672,l),
(312,585,l),
(432,570,l),
(457,567,l),
(493,554,l),
(423,493,l),
(396,446,l),
(367,376,l)
);
},
{
closed = 1;
nodes = (
(465,696,l),
(221,708,l),
(136,681,l),
(109,609,l),
(185,549,l),
(432,570,l)
);
}
);
width = 680;
},
{
guides = (
{
angle = 270;
pos = (310,791);
showMeasurement = 1;
},
{
pos = (818,241);
showMeasurement = 1;
}
);
layerId = m002;
shapes = (
{
closed = 1;
nodes = (
(233,0,l),
(229,49,l),
(198,98,l),
(206,559,l),
(148,633,l),
(163,671,l),
(118,665,l),
(122,90,l),
(98,31,l),
(122,0,l)
);
},
{
closed = 1;
nodes = (
(164,367,l),
(190,463,l),
(122,506,l),
(83,471,l),
(53,441,l),
(79,407,l)
);
},
{
closed = 1;
nodes = (
(602,3,l),
(650,115,l),
(681,287,l),
(563,385,l),
(455,436,l),
(376,376,l),
(393,342,l),
(437,347,l),
(561,301,l),
(619,265,l),
(524,58,l),
(401,107,l),
(341,141,l),
(321,123,l),
(426,-19,l)
);
},
{
closed = 1;
nodes = (
(538,434,l),
(598,478,l),
(609,626,l),
(474,696,l),
(305,672,l),
(234,658,l),
(441,643,l),
(466,640,l),
(545,538,l),
(475,477,l),
(405,446,l),
(376,376,l)
);
},
{
closed = 1;
nodes = (
(474,696,l),
(230,708,l),
(145,681,l),
(118,665,l),
(118,606,l),
(441,643,l)
);
}
);
width = 711;
}
);
metricLeft = E;
metricRight = B;
unicode = 7838;
},
{
glyphname = T;
kernLeft = T;
kernRight = T;
lastChange = "2024-06-18 12:55:40 +0000";
layers = (
{
anchors = (
{
name = bottom;
pos = (322,22);
},
{
name = center;
pos = (283,340);
},
{
name = top;
pos = (283,697);
}
);
layerId = m01;
shapes = (
{
closed = 1;
nodes = (
(397,0,l),
(415,77,l),
(403,84,l),
(370,111,l),
(371,515,l),
(335,559,l),
(367,615,l),
(212,586,l),
(214,521,l),
(225,142,l),
(198,0,l),
(256,0,l)
);
},
{
closed = 1;
nodes = (
(290,557,l),
(531,561,l),
(590,630,l),
(546,700,l),
(41,658,l),
(5,586,l),
(50,556,l)
);
},
{
closed = 1;
nodes = (
(546,635,l),
(546,700,l),
(93,700,l),
(69,630,l)
);
},
{
closed = 1;
nodes = (
(184,0,l),
(256,0,l),
(278,16,l),
(278,149,l),
(180,69,l)
);
}
);
width = 590;
},
{
anchors = (
{
name = bottom;
pos = (298,34);
},
{
name = center;
pos = (298,340);
},
{
name = top;
pos = (298,697);
}
);
guides = (
{
pos = (171,288);
showMeasurement = 1;
}
);
layerId = m002;
shapes = (
{
closed = 1;
nodes = (
(370,0,l),
(382,24,l),
(382,75,l),
(349,102,l),
(344,564,l),
(306,635,l),
(340,664,l),
(259,635,l),
(261,570,l),
(272,110,l),
(245,0,l),
(303,0,l)
);
},
{
closed = 1;
nodes = (
(295,625,l),
(556,632,l),
(586,673,l),
(561,700,l),
(32,680,l),
(20,638,l),
(41,621,l)
);
},
{
closed = 1;
nodes = (
(561,635,l),
(561,700,l),
(108,700,l),
(84,630,l)
);
},
{
closed = 1;
nodes = (
(231,0,l),
(303,0,l),
(325,16,l),
(325,117,l),
(227,37,l)
);
}
);
width = 610;
}
);
unicode = 84;
},
{
glyphname = U;
kernRight = N;
lastChange = "2024-06-19 10:31:42 +0000";
layers = (
{
anchors = (
{
name = bottom;
pos = (363,0);
},
{
name = ogonek;
pos = (613,8);
},
{
name = top;
pos = (381,730);
},
{
name = topright;
pos = (659,680);
}
);
layerId = m01;
shapes = (
{
closed = 1;
nodes = (
(612,98,l),
(621,510,l),
(648,655,l),
(607,700,l),
(456,700,l),
(418,659,l),
(458,575,l),
(464,137,l),
(464,70,l),
(286,138,l),
(287,167,l),
(281,551,l),
(299,642,l),
(266,700,l),
(94,622,l),
(101,219,l),
(101,68,l),
(169,52,l),
(169,0,l),
(544,0,l)
);
},
{
closed = 1;
nodes = (
(122,494,l),
(228,554,l),
(266,700,l),
(130,700,l),
(53,650,l),
(44,571,l)
);
}
);
width = 677;
},
{
anchors = (
{
name = bottom;
pos = (334,-32);
},
{
name = ogonek;
pos = (622,8);
},
{
name = top;
pos = (390,730);
},
{
name = topright;
pos = (668,680);
}
);
guides = (
{
pos = (-94,283);
showMeasurement = 1;
}
);
layerId = m002;
shapes = (
{
closed = 1;
nodes = (
(621,98,l),
(630,592,l),
(657,655,l),
(619,697,l),
(538,646,l),
(539,603,l),
(539,570,l),
(546,137,l),
(553,54,l),
(190,89,l),
(191,118,l),
(185,606,l),
(203,657,l),
(170,706,l),
(103,637,l),
(110,219,l),
(110,68,l),
(147,35,l),
(178,0,l),
(553,0,l)
);
},
{
closed = 1;
nodes = (
(131,549,l),
(132,609,l),
(170,706,l),
(125,699,l),
(62,665,l),
(53,626,l)
);
}
);
width = 691;
}
);
metricLeft = B;
metricRight = H;
unicode = 85;
},
{
glyphname = V;
kernLeft = V;
kernRight = V;
lastChange = "2024-06-18 17:01:47 +0000";
layers = (
{
layerId = m01;
shapes = (
{
closed = 1;
nodes = (
(675,622,l),
(650,700,l),
(559,700,l),
(482,700,l),
(411,520,l),
(478,439,l),
(363,201,l),
(237,274,l),
(342,-28,l)
);
},
{
closed = 1;
nodes = (
(351,87,l),
(184,546,l),
(198,631,l),
(171,665,l),
(11,574,l),
(162,78,l),
(342,-28,l)
);
},
{
closed = 1;
nodes = (
(231,561,l),
(266,634,l),
(246,700,l),
(54,700,l),
(11,574,l),
(69,514,l)
);
}
);
width = 678;
},
{
guides = (
{
pos = (-109,290);
showMeasurement = 1;
}
);
layerId = m002;
shapes = (
{
closed = 1;
nodes = (
(680,622,l),
(655,700,l),
(601,700,l),
(524,700,l),
(501,641,l),
(568,560,l),
(405,201,l),
(300,36,l),
(366,-21,l)
);
},
{
closed = 1;
nodes = (
(248,113,l),
(80,581,l),
(102,631,l),
(92,665,l),
(16,574,l),
(167,104,l),
(366,-21,l)
);
},
{
closed = 1;
nodes = (
(129,600,l),
(170,634,l),
(150,700,l),
(59,700,l),
(16,574,l),
(68,553,l)
);
}
);
width = 688;
}
);
unicode = 86;
},
{
glyphname = W;
kernLeft = V;
kernRight = V;
lastChange = "2024-06-19 10:27:23 +0000";
layers = (
{
anchors = (
{
name = bottom;
pos = (454,0);
},
{
name = top;
pos = (454,714);
}
);
layerId = m01;
shapes = (
{
closed = 1;
nodes = (
(904,599,l),
(835,702,l),
(707,700,l),
(673,632,l),
(710,561,l),
(734,556,l),
(710,488,l),
(604,127,l),
(536,108,l),
(702,0,l)
);
},
{
closed = 1;
nodes = (
(434,113,l),
(484,241,l),
(532,362,l),
(468,447,l),
(448,480,l),
(400,480,l),
(446,304,l),
(381,215,l),
(325,139,l),
(233,0,l),
(390,0,l)
);
},
{
closed = 1;
nodes = (
(702,0,l),
(619,97,l),
(609,277,l),
(482,556,l),
(384,552,l),
(353,470,l),
(509,108,l),
(566,0,l)
);
},
{
closed = 1;
nodes = (
(345,87,l),
(204,529,l),
(170,573,l),
(165,665,l),
(11,665,l),
(156,78,l),
(233,0,l)
);
},
{
closed = 1;
nodes = (
(191,561,l),
(242,644,l),
(219,700,l),
(51,700,l),
(11,665,l),
(63,514,l)
);
}
);
width = 907;
},
{
anchors = (
{
name = bottom;
pos = (492,0);
},
{
name = top;
pos = (492,714);
}
);
guides = (
{
angle = 18.0196;
pos = (-68,287);
showMeasurement = 1;
},
{
pos = (873,47);
},
{
angle = 107.0486;
pos = (582,0);
}
);
layerId = m002;
shapes = (
{
closed = 1;
nodes = (
(942,599,l),
(873,702,l),
(816,700,l),
(782,670,l),
(819,599,l),
(843,594,l),
(819,488,l),
(713,127,l),
(659,18,l),
(740,0,l)
);
},
{
closed = 1;
nodes = (
(424,113,l),
(522,241,l),
(530,304,l),
(506,389,l),
(486,422,l),
(486,364,l),
(484,304,l),
(419,215,l),
(292,27,l),
(241,0,l),
(332,0,l)
);
},
{
closed = 1;
nodes = (
(740,0,l),
(666,22,l),
(576,277,l),
(494,556,l),
(440,548,l),
(436,470,l),
(547,108,l),
(628,0,l)
);
},
{
closed = 1;
nodes = (
(315,18,l),
(132,529,l),
(91,573,l),
(79,665,l),
(16,665,l),
(194,78,l),
(241,0,l)
);
},
{
closed = 1;
nodes = (
(81,601,l),
(156,644,l),
(133,700,l),
(56,700,l),
(16,665,l),
(68,514,l)
);
}
);
width = 950;
}
);
metricLeft = V;
metricRight = V;
unicode = 87;
},
{
glyphname = X;
lastChange = "2024-07-01 17:41:33 +0000";
layers = (
{
guides = (
{
angle = 270;
pos = (619,301);
}
);
layerId = m01;
shapes = (
{
closed = 1;
nodes = (
(584,0,l),
(619,67,l),
(553,182,l),
(250,619,l),
(250,678,l),
(215,700,l),
(102,700,l),
(51,668,l),
(48,576,l),
(427,58,l),
(460,0,l),
(534,0,l)
);
},
{
closed = 1;
nodes = (
(226,0,l),
(256,120,l),
(228,192,l),
(294,264,l),
(257,358,l),
(174,256,l),
(89,165,l),
(44,50,l),
(71,27,l),
(102,0,l)
);
},
{
closed = 1;
nodes = (
(380,311,l),
(487,418,l),
(590,521,l),
(619,665,l),
(594,700,l),
(485,700,l),
(409,634,l),
(411,587,l),
(443,551,l),
(334,403,l)
);
}
);
width = 634;
},
{
guides = (
{
pos = (-148,537);
showMeasurement = 1;
},
{
pos = (-151,90);
showMeasurement = 1;
},
{
angle = 270;
pos = (578,305);
}
);
layerId = m002;
shapes = (
{
closed = 1;
nodes = (
(578,0,l),
(568,66,l),
(487,130,l),
(174,619,l),
(204,653,l),
(204,700,l),
(107,700,l),
(71,681,l),
(79,626,l),
(456,58,l),
(462,0,l),
(505,0,l)
);
},
{
closed = 1;
nodes = (
(184,0,l),
(194,58,l),
(154,80,l),
(325,300,l),
(293,361,l),
(215,260,l),
(129,149,l),
(53,50,l),
(63,0,l),
(111,0,l)
);
},
{
closed = 1;
nodes = (
(350,310,l),
(470,450,l),
(569,549,l),
(592,665,l),
(567,700,l),
(519,700,l),
(476,685,l),
(477,620,l),
(515,599,l),
(315,372,l)
);
}
);
width = 626;
}
);
metricLeft = I;
metricRight = K;
unicode = 88;
},
{
glyphname = Y;
kernLeft = V;
kernRight = Y;
lastChange = "2024-06-23 13:12:18 +0000";
layers = (
{
anchors = (
{
name = bottom;
pos = (282,0);
},
{
name = top;
pos = (311,714);
},
{
name = topleft;
pos = (11,680);
}
);
layerId = m01;
shapes = (
{
closed = 1;
nodes = (
(361,238,l),
(561,627,l),
(540,700,l),
(423,700,l),
(381,674,l),
(235,253,l)
);
},
{
closed = 1;
nodes = (
(381,32,l),
(346,160,l),
(392,398,l),
(177,296,l),
(220,177,l),
(184,30,l),
(220,0,l),
(365,0,l)
);
},
{
closed = 1;
nodes = (
(269,263,l),
(187,561,l),
(96,582,l),
(115,653,l),
(11,558,l),
(130,262,l)
);
},
{
closed = 1;
nodes = (
(214,582,l),
(247,628,l),
(247,700,l),
(31,700,l),
(11,558,l)
);
}
);
width = 569;
},
{
anchors = (
{
name = bottom;
pos = (287,0);
},
{
name = top;
pos = (316,714);
},
{
name = topleft;
pos = (16,680);
}
);
guides = (
{
pos = (-249,103);
showMeasurement = 1;
},
{
angle = 28.6847;
pos = (-96,342);
showMeasurement = 1;
}
);
layerId = m002;
shapes = (
{
closed = 1;
nodes = (
(333,238,l),
(566,627,l),
(545,700,l),
(521,700,l),
(487,674,l),
(278,233,l)
);
},
{
closed = 1;
nodes = (
(321,32,l),
(313,188,l),
(323,275,l),
(212,296,l),
(237,169,l),
(237,28,l),
(265,0,l),
(300,0,l)
);
},
{
closed = 1;
nodes = (
(265,259,l),
(119,567,l),
(57,632,l),
(36,700,l),
(16,558,l),
(191,259,l)
);
},
{
closed = 1;
nodes = (
(85,629,l),
(129,663,l),
(129,698,l),
(36,700,l),
(44,622,l)
);
}
);
width = 579;
}
);
metricLeft = W;
unicode = 89;
},
{
glyphname = Z;
kernRight = Z;
lastChange = "2024-06-18 12:55:47 +0000";
layers = (
{
anchors = (
{
name = bottom;
pos = (311,0);
},
{
name = center;
pos = (311,340);
},
{
name = top;
pos = (304,714);
}
);
layerId = m01;
shapes = (
{
closed = 1;
nodes = (
(189,160,l),
(306,181,l),
(592,539,l),
(545,689,l),
(380,587,l),
(414,541,l),
(30,166,l),
(50,79,l),
(192,58,l)
);
},
{
closed = 1;
nodes = (
(509,0,l),
(540,65,l),
(125,153,l),
(60,117,l),
(30,0,l)
);
},
{
closed = 1;
nodes = (
(573,25,l),
(592,219,l),
(541,227,l),
(445,245,l),
(380,156,l),
(406,11,l)
);
},
{
closed = 1;
nodes = (
(208,526,l),
(226,586,l),
(257,647,l),
(461,652,l),
(573,695,l),
(156,709,l),
(130,645,l),
(257,647,l),
(273,680,l),
(42,650,l),
(32,534,l),
(44,472,l)
);
},
{
closed = 1;
nodes = (
(587,656,l),
(573,695,l),
(273,680,l),
(156,610,l),
(592,539,l)
);
}
);
width = 620;
},
{
anchors = (
{
name = bottom;
pos = (316,0);
},
{
name = center;
pos = (316,340);
},
{
name = top;
pos = (309,714);
}
);
guides = (
{
pos = (-168,359);
showMeasurement = 1;
},
{
angle = 270;
pos = (500,884);
showMeasurement = 1;
}
);
layerId = m002;
shapes = (
{
closed = 1;
nodes = (
(119,117,l),
(169,177,l),
(597,539,l),
(588,632,l),
(514,654,l),
(488,541,l),
(43,166,l),
(63,79,l),
(133,58,l)
);
},
{
closed = 1;
nodes = (
(514,0,l),
(545,69,l),
(121,65,l),
(43,166,l),
(43,0,l)
);
},
{
closed = 1;
nodes = (
(578,29,l),
(597,161,l),
(577,175,l),
(510,187,l),
(482,133,l),
(514,0,l)
);
},
{
closed = 1;
nodes = (
(129,526,l),
(147,586,l),
(178,647,l),
(466,652,l),
(578,700,l),
(152,700,l),
(106,645,l),
(178,647,l),
(194,680,l),
(47,650,l),
(37,534,l),
(49,472,l)
);
},
{
closed = 1;
nodes = (
(585,661,l),
(578,700,l),
(194,680,l),
(156,654,l),
(588,632,l)
);
}
);
width = 630;
}
);
unicode = 90;
},
{
glyphname = A.ss01;
kernLeft = altA1_l;
kernRight = altA1_r;
lastChange = "2024-05-29 09:58:23 +0000";
layers = (
{
anchors = (
{
name = bottom;
pos = (604,-26);
},
{
name = ogonek;
pos = (681,10);
},
{
name = top;
pos = (383,737);
}
);
layerId = m01;
shapes = (
{
closed = 1;
nodes = (
(196,0,l),
(213,28,l),
(206,115,l),
(338,430,l),
(347,597,l),
(239,605,l),
(8,-14,l)
);
},
{
closed = 1;
nodes = (
(756,45,l),
(707,117,l),
(482,681,l),
(342,715,l),
(289,681,l),
(535,99,l),
(519,21,l),
(544,-10,l),
(732,-8,l)
);
},
{
closed = 1;
nodes = (
(0,64,l),
(8,-14,l),
(152,39,l),
(152,126,l),
(98,163,l)
);
},
{
closed = 1;
nodes = (
(433,211,l),
(503,296,l),
(488,354,l),
(38,222,l),
(19,135,l),
(53,124,l)
);
}
);
width = 756;
},
{
anchors = (
{
name = bottom;
pos = (634,-14);
},
{
name = ogonek;
pos = (686,10);
},
{
name = top;
pos = (388,737);
}
);
guides = (
{
pos = (912,386);
showMeasurement = 1;
}
);
layerId = m002;
shapes = (
{
closed = 1;
nodes = (
(147,1,l),
(159,15,l),
(122,69,l),
(365,640,l),
(376,668,l),
(291,676,l),
(17,0,l)
);
},
{
closed = 1;
nodes = (
(761,45,l),
(718,97,l),
(459,681,l),
(365,700,l),
(360,681,l),
(640,79,l),
(624,38,l),
(643,0,l),
(746,0,l)
);
},
{
closed = 1;
nodes = (
(5,51,l),
(17,0,l),
(159,15,l),
(157,54,l),
(109,139,l)
);
},
{
closed = 1;
nodes = (
(485,290,l),
(550,345,l),
(548,368,l),
(43,222,l),
(36,185,l),
(53,172,l)
);
}
);
width = 766;
}
);
},
{
glyphname = G.ss01;
kernLeft = O;
lastChange = "2024-05-29 09:58:23 +0000";
layers = (
{
anchors = (
{
name = bottom;
pos = (270,0);
},
{
name = top;
pos = (326,731);
}
);
layerId = m01;
shapes = (
{
closed = 1;
nodes = (
(121,31,l),
(195,84,l),
(206,145,l),
(195,517,l),
(168,562,l),
(237,580,l),
(300,663,l),
(171,700,l),
(23,622,l),
(20,84,l)
);
},
{
closed = 1;
nodes = (
(312,0,l),
(364,50,l),
(455,124,l),
(20,84,l),
(97,0,l)
);
},
{
closed = 1;
nodes = (
(524,0,l),
(567,162,l),
(465,290,l),
(407,278,l),
(394,104,l),
(329,34,l),
(445,0,l)
);
},
{
closed = 1;
nodes = (
(554,227,l),
(554,345,l),
(319,345,l),
(326,266,l),
(371,223,l)
);
},
{
closed = 1;
nodes = (
(554,583,l),
(451,600,l),
(407,574,l),
(358,527,l),
(385,452,l),
(524,410,l)
);
},
{
closed = 1;
nodes = (
(444,562,l),
(554,583,l),
(496,700,l),
(300,700,l),
(218,654,l),
(168,562,l)
);
}
);
width = 603;
},
{
anchors = (
{
name = bottom;
pos = (275,0);
},
{
name = top;
pos = (331,731);
}
);
guides = (
{
pos = (-59,366);
showMeasurement = 1;
}
);
layerId = m002;
shapes = (
{
closed = 1;
nodes = (
(126,31,l),
(103,84,l),
(114,145,l),
(103,551,l),
(76,596,l),
(145,614,l),
(305,663,l),
(108,700,l),
(28,622,l),
(25,84,l)
);
},
{
closed = 1;
nodes = (
(317,0,l),
(369,50,l),
(391,50,l),
(25,84,l),
(102,0,l)
);
},
{
closed = 1;
nodes = (
(529,0,l),
(536,243,l),
(559,283,l),
(472,294,l),
(462,104,l),
(334,34,l),
(450,0,l)
);
},
{
closed = 1;
nodes = (
(559,283,l),
(559,345,l),
(324,345,l),
(331,322,l),
(376,279,l)
);
},
{
closed = 1;
nodes = (
(559,583,l),
(526,634,l),
(482,608,l),
(454,569,l),
(481,460,l),
(529,410,l)
);
},
{
closed = 1;
nodes = (
(433,634,l),
(559,583,l),
(501,700,l),
(305,700,l),
(223,654,l),
(76,596,l)
);
}
);
width = 613;
}
);
metricLeft = O;
},
{
glyphname = M.ss01;
kernLeft = A;
kernRight = A;
lastChange = "2024-06-19 10:42:29 +0000";
layers = (
{
layerId = m01;
shapes = (
{
closed = 1;
nodes = (
(519,44,l),
(609,546,l),
(675,576,l),
(832,648,l),
(670,717,l),
(513,661,l),
(391,0,l)
);
},
{
closed = 1;
nodes = (
(231,0,l),
(264,42,l),
(256,178,l),
(91,143,l),
(59,90,l),
(77,0,l)
);
},
{
closed = 1;
nodes = (
(264,42,l),
(256,553,l),
(295,539,l),
(326,700,l),
(278,720,l),
(79,630,l),
(92,178,l),
(83,81,l),
(120,33,l)
);
},
{
closed = 1;
nodes = (
(801,0,l),
(792,493,l),
(832,648,l),
(645,616,l),
(624,129,l),
(595,74,l),
(624,0,l)
);
},
{
closed = 1;
nodes = (
(47,534,l),
(114,474,l),
(132,421,l),
(201,653,l),
(278,720,l),
(44,660,l)
);
},
{
closed = 1;
nodes = (
(326,700,l),
(271,653,l),
(391,0,l),
(477,186,l),
(363,681,l)
);
}
);
width = 832;
},
{
guides = (
{
pos = (17,383);
showMeasurement = 1;
}
);
layerId = m002;
shapes = (
{
closed = 1;
nodes = (
(451,98,l),
(660,630,l),
(690,619,l),
(745,652,l),
(675,700,l),
(605,700,l),
(378,58,l)
);
},
{
closed = 1;
nodes = (
(148,0,l),
(173,65,l),
(173,140,l),
(100,105,l),
(68,52,l),
(86,0,l)
);
},
{
closed = 1;
nodes = (
(181,0,l),
(170,624,l),
(220,651,l),
(241,700,l),
(191,700,l),
(88,630,l),
(101,140,l),
(92,43,l),
(148,0,l)
);
},
{
closed = 1;
nodes = (
(754,0,l),
(745,570,l),
(745,652,l),
(669,652,l),
(669,105,l),
(633,50,l),
(662,0,l)
);
},
{
closed = 1;
nodes = (
(56,627,l),
(123,567,l),
(146,568,l),
(150,640,l),
(191,700,l),
(53,660,l)
);
},
{
closed = 1;
nodes = (
(199,676,l),
(178,633,l),
(378,58,l),
(424,153,l),
(241,700,l)
);
}
);
width = 789;
}
);
metricLeft = B;
},
{
glyphname = S.ss01;
kernLeft = S;
kernRight = S;
lastChange = "2024-06-19 10:10:24 +0000";
layers = (
{
anchors = (
{
name = bottom;
pos = (333,0);
},
{
name = top;
pos = (333,714);
}
);
layerId = m01;
shapes = (
{
closed = 1;
nodes = (
(220,303,l),
(314,350,l),
(399,303,l),
(362,101,l),
(268,64,l),
(252,95,l),
(222,177,l),
(75,221,l),
(28,179,l),
(46,71,l),
(64,0,l),
(314,0,l),
(371,23,l),
(446,0,l),
(537,31,l),
(565,315,l),
(557,376,l),
(434,440,l),
(220,386,l),
(220,479,l),
(220,570,l),
(278,637,l),
(378,638,l),
(382,610,l),
(395,529,l),
(417,520,l),
(554,529,l),
(549,672,l),
(361,704,l),
(285,700,l),
(160,700,l),
(64,672,l),
(35,485,l),
(38,400,l)
);
}
);
width = 590;
},
{
anchors = (
{
name = bottom;
pos = (323,0);
},
{
name = top;
pos = (323,714);
}
);
guides = (
{
pos = (365,468);
showMeasurement = 1;
}
);
layerId = m002;
shapes = (
{
closed = 1;
nodes = (
(240,322,l),
(416,346,l),
(485,303,l),
(463,82,l),
(176,62,l),
(131,119,l),
(118,177,l),
(57,196,l),
(33,179,l),
(39,65,l),
(120,0,l),
(231,0,l),
(363,30,l),
(431,0,l),
(522,31,l),
(555,205,l),
(542,349,l),
(419,413,l),
(388,395,l),
(125,400,l),
(122,588,l),
(179,637,l),
(405,637,l),
(448,610,l),
(461,529,l),
(483,520,l),
(539,529,l),
(534,672,l),
(408,704,l),
(377,686,l),
(165,700,l),
(69,655,l),
(35,499,l),
(43,400,l)
);
}
);
width = 580;
}
);
metricLeft = S;
metricRight = S;
},
{
glyphname = A.ss02;
kernLeft = altA2_l;
kernRight = altA2_r;
lastChange = "2024-06-18 13:15:24 +0000";
layers = (
{
anchors = (
{
name = bottom;
pos = (540,-7);
},
{
name = ogonek;
pos = (584,10);
},
{
name = top;
pos = (504,750);
}
);
layerId = m01;
shapes = (
{
closed = 1;
nodes = (
(661,696,l),
(574,553,l),
(504,546,l),
(486,196,l),
(496,47,l),
(540,-7,l),
(660,57,l),
(666,550,l),
(697,662,l)
);
},
{
closed = 1;
nodes = (
(686,12,l),
(686,94,l),
(657,132,l),
(504,108,l),
(478,75,l),
(466,8,l),
(540,-7,l)
);
},
{
closed = 1;
nodes = (
(206,0,l),
(223,28,l),
(216,115,l),
(383,507,l),
(485,570,l),
(293,579,l),
(250,468,l),
(197,449,l),
(24,-2,l)
);
},
{
closed = 1;
nodes = (
(16,76,l),
(24,-2,l),
(162,39,l),
(162,126,l),
(108,163,l)
);
},
{
closed = 1;
nodes = (
(221,631,l),
(250,442,l),
(369,546,l),
(613,542,l),
(661,696,l),
(449,678,l),
(396,700,l)
);
},
{
closed = 1;
nodes = (
(627,218,l),
(659,278,l),
(644,336,l),
(220,336,l),
(292,218,l)
);
}
);
width = 726;
},
{
anchors = (
{
name = bottom;
pos = (566,-11);
},
{
name = ogonek;
pos = (589,18);
},
{
name = top;
pos = (509,750);
}
);
guides = (
{
pos = (2,415);
showMeasurement = 1;
}
);
layerId = m002;
shapes = (
{
closed = 1;
nodes = (
(666,696,l),
(579,632,l),
(598,625,l),
(580,196,l),
(590,47,l),
(630,0,l),
(665,19,l),
(671,550,l),
(702,662,l)
);
},
{
closed = 1;
nodes = (
(682,0,l),
(691,56,l),
(662,94,l),
(594,70,l),
(568,37,l),
(576,0,l),
(630,0,l)
);
},
{
closed = 1;
nodes = (
(140,0,l),
(161,25,l),
(140,78,l),
(360,610,l),
(446,635,l),
(325,644,l),
(290,555,l),
(237,536,l),
(29,-2,l)
);
},
{
closed = 1;
nodes = (
(24,41,l),
(29,-2,l),
(140,29,l),
(133,70,l),
(87,102,l)
);
},
{
closed = 1;
nodes = (
(281,662,l),
(290,529,l),
(340,621,l),
(618,621,l),
(666,696,l),
(454,678,l),
(401,700,l)
);
},
{
closed = 1;
nodes = (
(325,228,l),
(603,296,l),
(588,354,l),
(185,250,l),
(221,225,l)
);
}
);
width = 736;
}
);
metricRight = A;
},
{
glyphname = S.ss02;
kernLeft = S;
kernRight = S;
lastChange = "2024-06-19 10:12:53 +0000";
layers = (
{
anchors = (
{
name = bottom;
pos = (292,0);
},
{
name = top;
pos = (295,714);
}
);
guides = (
{
pos = (146,700);
},
{
angle = 90;
pos = (513,-77);
}
);
layerId = m01;
shapes = (
{
closed = 1;
nodes = (
(141,357,l),
(219,435,l),
(167,667,l),
(115,700,l),
(28,625,l),
(28,335,l),
(67,291,l),
(222,331,l)
);
},
{
closed = 1;
nodes = (
(495,49,l),
(386,100,l),
(195,129,l),
(186,157,l),
(136,172,l),
(48,129,l),
(47,1,l),
(446,0,l)
);
},
{
closed = 1;
nodes = (
(495,49,l),
(513,366,l),
(374,335,l),
(374,261,l),
(352,219,l),
(338,56,l)
);
},
{
closed = 1;
nodes = (
(513,366,l),
(431,430,l),
(75,355,l),
(67,291,l),
(374,261,l),
(429,286,l)
);
},
{
closed = 1;
nodes = (
(462,493,l),
(528,649,l),
(423,700,l),
(162,698,l),
(115,700,l),
(80,622,l),
(144,561,l),
(317,590,l),
(351,464,l)
);
}
);
width = 553;
},
{
anchors = (
{
name = bottom;
pos = (297,0);
},
{
name = top;
pos = (300,714);
}
);
guides = (
{
angle = 270;
pos = (295,849);
showMeasurement = 1;
},
{
pos = (-168,109);
showMeasurement = 1;
},
{
angle = 270;
pos = (33,280);
},
{
angle = 270;
pos = (518,-160);
}
);
layerId = m002;
shapes = (
{
closed = 1;
nodes = (
(101,445,l),
(127,463,l),
(127,667,l),
(123,701,l),
(64,625,l),
(33,433,l),
(72,389,l),
(134,425,l)
);
},
{
closed = 1;
nodes = (
(518,49,l),
(475,55,l),
(131,83,l),
(124,157,l),
(98,172,l),
(44,129,l),
(43,1,l),
(469,0,l)
);
},
{
closed = 1;
nodes = (
(518,49,l),
(518,316,l),
(446,345,l),
(465,302,l),
(439,274,l),
(437,56,l)
);
},
{
closed = 1;
nodes = (
(518,316,l),
(436,380,l),
(75,453,l),
(72,389,l),
(465,302,l),
(476,310,l)
);
},
{
closed = 1;
nodes = (
(469,493,l),
(535,649,l),
(430,700,l),
(205,700,l),
(123,701,l),
(88,615,l),
(178,627,l),
(416,652,l),
(416,520,l)
);
}
);
width = 560;
}
);
},
{
glyphname = A.ss03;
kernLeft = altA3_l;
kernRight = altA3_r;
lastChange = "2024-05-29 09:58:23 +0000";
layers = (
{
anchors = (
{
name = bottom;
pos = (627,-20);
},
{
name = ogonek;
pos = (699,10);
},
{
name = top;
pos = (360,758);
}
);
layerId = m01;
shapes = (
{
closed = 1;
nodes = (
(416,208,l),
(502,304,l),
(487,362,l),
(93,240,l),
(74,153,l),
(108,142,l)
);
},
{
closed = 1;
nodes = (
(114,664,l),
(132,590,l),
(271,532,l),
(442,551,l),
(427,700,l),
(139,694,l)
);
},
{
closed = 1;
nodes = (
(800,45,l),
(751,117,l),
(526,681,l),
(427,700,l),
(333,681,l),
(398,526,l),
(442,422,l),
(579,99,l),
(563,21,l),
(588,-10,l),
(776,-8,l)
);
},
{
closed = 1;
nodes = (
(240,0,l),
(257,28,l),
(250,115,l),
(324,429,l),
(324,561,l),
(225,604,l),
(52,-14,l)
);
},
{
closed = 1;
nodes = (
(44,64,l),
(52,-14,l),
(196,39,l),
(196,126,l),
(142,163,l)
);
}
);
width = 775;
},
{
anchors = (
{
name = bottom;
pos = (676,-20);
},
{
name = ogonek;
pos = (708,10);
},
{
name = top;
pos = (369,758);
}
);
guides = (
{
angle = 14.1948;
pos = (-70,378);
showMeasurement = 1;
}
);
layerId = m002;
shapes = (
{
closed = 1;
nodes = (
(545,269,l),
(608,304,l),
(593,362,l),
(150,248,l),
(160,221,l),
(197,211,l)
);
},
{
closed = 1;
nodes = (
(123,664,l),
(121,666,l),
(201,630,l),
(515,649,l),
(436,700,l),
(148,694,l)
);
},
{
closed = 1;
nodes = (
(809,45,l),
(760,117,l),
(535,681,l),
(436,700,l),
(342,681,l),
(484,602,l),
(548,422,l),
(685,99,l),
(669,21,l),
(694,0,l),
(784,0,l)
);
},
{
closed = 1;
nodes = (
(194,0,l),
(201,21,l),
(169,119,l),
(243,433,l),
(245,637,l),
(214,680,l),
(67,0,l)
);
},
{
closed = 1;
nodes = (
(53,64,l),
(67,0,l),
(176,21,l),
(169,53,l),
(135,100,l)
);
}
);
width = 789;
}
);
metricLeft = A;
},
{
glyphname = A.ss04;
kernLeft = A;
kernRight = A;
lastChange = "2024-06-18 12:33:13 +0000";
layers = (
{
anchors = (
{
name = bottom;
pos = (496,17);
},
{
name = ogonek;
pos = (560,8);
},
{
name = top;
pos = (354,714);
}
);
hints = (
{
horizontal = 1;
origin = (3,9);
target = down;
type = TopGhost;
},
{
place = (90.5,139.5);
type = Stem;
},
{
place = (409,168);
type = Stem;
},
{
origin = (0,5);
target = (0,1,1,0);
type = Stem;
},
{
place = (403.5,173.5);
type = Stem;
}
);
layerId = m01;
shapes = (
{
closed = 1;
nodes = (
(232,19,l),
(233,549,l),
(399,660,l),
(179,699,l),
(99,630,l),
(97,123,l),
(51,71,l),
(68,0,l),
(212,0,l)
);
},
{
closed = 1;
nodes = (
(386,217,l),
(456,302,l),
(441,360,l),
(63,317,l),
(44,230,l),
(78,219,l)
);
},
{
closed = 1;
nodes = (
(568,700,l),
(282,700,l),
(195,520,l),
(283,568,l),
(529,568,l),
(594,684,l)
);
},
{
closed = 1;
nodes = (
(594,684,l),
(436,520,l),
(431,457,l),
(438,163,l),
(438,24,l),
(496,0,l),
(596,24,l),
(596,520,l),
(628,582,l),
(628,662,l)
);
},
{
closed = 1;
nodes = (
(627,80,l),
(608,126,l),
(456,154,l),
(413,48,l),
(430,0,l),
(617,0,l)
);
},
{
closed = 1;
nodes = (
(66,487,l),
(118,472,l),
(99,630,l),
(55,601,l)
);
}
);
width = 657;
},
{
anchors = (
{
name = bottom;
pos = (516,0);
},
{
name = ogonek;
pos = (581,36);
},
{
name = top;
pos = (356,714);
}
);
guides = (
{
angle = 270;
pos = (377,436);
showMeasurement = 1;
},
{
pos = (272,396);
showMeasurement = 1;
}
);
hints = (
{
horizontal = 1;
origin = (3,9);
target = down;
type = TopGhost;
},
{
place = (90.5,139.5);
type = Stem;
},
{
place = (409,168);
type = Stem;
},
{
origin = (0,5);
target = (0,1,1,0);
type = Stem;
},
{
place = (403.5,173.5);
type = Stem;
}
);
layerId = m002;
shapes = (
{
closed = 1;
nodes = (
(170,19,l),
(170,604,l),
(279,682,l),
(181,699,l),
(86,649,l),
(99,92,l),
(53,40,l),
(70,0,l),
(152,0,l)
);
},
{
closed = 1;
nodes = (
(497,269,l),
(554,306,l),
(558,331,l),
(67,331,l),
(59,294,l),
(82,271,l)
);
},
{
closed = 1;
nodes = (
(570,700,l),
(284,700,l),
(173,627,l),
(285,633,l),
(581,633,l),
(596,684,l)
);
},
{
closed = 1;
nodes = (
(596,684,l),
(528,520,l),
(523,457,l),
(530,163,l),
(540,14,l),
(532,0,l),
(614,24,l),
(599,529,l),
(630,582,l),
(630,662,l)
);
},
{
closed = 1;
nodes = (
(629,29,l),
(610,75,l),
(544,87,l),
(508,50,l),
(516,0,l),
(626,0,l)
);
},
{
closed = 1;
nodes = (
(66,585,l),
(118,570,l),
(86,649,l),
(57,628,l)
);
}
);
width = 664;
}
);
metricLeft = B;
},
{
glyphname = T_T;
kernLeft = T;
lastChange = "2024-06-18 18:41:51 +0000";
layers = (
{
anchors = (
{
name = bottom;
pos = (922,22);
},
{
name = center;
pos = (883,340);
},
{
name = top;
pos = (883,697);
}
);
layerId = m01;
shapes = (
{
closed = 1;
nodes = (
(367,0,l),
(394,56,l),
(394,107,l),
(361,134,l),
(365,502,l),
(299,562,l),
(352,602,l),
(183,573,l),
(185,508,l),
(196,107,l),
(175,3,l),
(224,0,l)
);
},
{
closed = 1;
nodes = (
(283,544,l),
(458,556,l),
(494,647,l),
(445,700,l),
(41,649,l),
(5,550,l),
(50,520,l)
);
},
{
closed = 1;
nodes = (
(458,635,l),
(445,700,l),
(103,700,l),
(69,621,l)
);
},
{
closed = 1;
nodes = (
(146,0,l),
(224,0,l),
(252,0,l),
(252,181,l),
(152,114,l)
);
},
{
closed = 1;
nodes = (
(841,0,l),
(855,56,l),
(855,107,l),
(822,134,l),
(817,502,l),
(768,562,l),
(813,602,l),
(644,573,l),
(646,508,l),
(657,142,l),
(630,0,l),
(688,0,l)
);
},
{
closed = 1;
nodes = (
(607,0,l),
(651,0,l),
(708,16,l),
(682,124,l),
(626,94,l)
);
},
{
closed = 1;
nodes = (
(761,544,l),
(913,547,l),
(980,630,l),
(931,700,l),
(519,649,l),
(483,550,l),
(528,536,l)
);
},
{
closed = 1;
nodes = (
(936,635,l),
(931,700,l),
(562,700,l),
(547,621,l)
);
}
);
width = 980;
},
{
anchors = (
{
name = bottom;
pos = (937,22);
},
{
name = center;
pos = (898,340);
},
{
name = top;
pos = (898,697);
}
);
guides = (
{
pos = (1238,266);
showMeasurement = 1;
}
);
layerId = m002;
shapes = (
{
closed = 1;
nodes = (
(325,0,l),
(341,23,l),
(339,59,l),
(312,73,l),
(316,565,l),
(271,609,l),
(303,665,l),
(224,636,l),
(226,583,l),
(237,81,l),
(216,3,l),
(258,0,l)
);
},
{
closed = 1;
nodes = (
(298,607,l),
(462,607,l),
(509,647,l),
(460,700,l),
(56,681,l),
(20,630,l),
(40,607,l)
);
},
{
closed = 1;
nodes = (
(473,635,l),
(460,700,l),
(118,700,l),
(84,627,l)
);
},
{
closed = 1;
nodes = (
(197,-1,l),
(258,0,l),
(286,0,l),
(286,120,l),
(193,53,l)
);
},
{
closed = 1;
nodes = (
(825,-1,l),
(838,11,l),
(838,62,l),
(805,77,l),
(800,567,l),
(764,611,l),
(796,667,l),
(715,638,l),
(717,573,l),
(728,97,l),
(701,0,l),
(759,0,l)
);
},
{
closed = 1;
nodes = (
(676,1,l),
(759,0,l),
(787,0,l),
(753,79,l),
(697,49,l)
);
},
{
closed = 1;
nodes = (
(744,609,l),
(966,612,l),
(995,630,l),
(946,700,l),
(556,681,l),
(525,643,l),
(551,607,l)
);
},
{
closed = 1;
nodes = (
(951,635,l),
(946,700,l),
(599,700,l),
(584,621,l)
);
}
);
width = 1019;
}
);
metricLeft = T;
metricRight = T;
},
{
glyphname = a;
kernLeft = a;
kernRight = ar;
lastChange = "2024-07-05 18:43:14 +0000";
layers = (
{
anchors = (
{
name = bottom;
pos = (312,-2);
},
{
name = ogonek;
pos = (462,8);
},
{
name = top;
pos = (261,546);
}
);
layerId = m01;
shapes = (
{
closed = 1;
nodes = (
(242,0,l),
(316,120,l),
(316,90,l),
(292,46,l),
(316,0,l),
(506,0,l),
(514,95,l),
(457,131,l),
(465,465,l),
(331,531,l),
(248,520,l),
(53,520,l),
(25,339,l),
(81,295,l),
(176,358,l),
(206,427,l),
(286,427,l),
(315,409,l),
(313,301,l),
(197,339,l),
(33,229,l),
(25,112,l),
(85,0,l)
);
},
{
closed = 1;
nodes = (
(153,242,l),
(313,242,l),
(315,160,l),
(292,128,l),
(181,127,l),
(140,206,l)
);
}
);
width = 531;
},
{
anchors = (
{
name = bottom;
pos = (361,-27);
},
{
name = ogonek;
pos = (467,8);
},
{
name = top;
pos = (266,546);
}
);
guides = (
{
orientation = center;
pos = (-364,365);
showMeasurement = 1;
}
);
layerId = m002;
shapes = (
{
closed = 1;
nodes = (
(298,0,l),
(383,120,l),
(383,90,l),
(359,46,l),
(383,0,l),
(506,0,l),
(514,32,l),
(457,68,l),
(457,453,l),
(331,531,l),
(248,520,l),
(71,520,l),
(33,378,l),
(53,361,l),
(106,378,l),
(125,453,l),
(187,486,l),
(382,451,l),
(380,301,l),
(197,339,l),
(33,229,l),
(25,112,l),
(85,0,l)
);
},
{
closed = 1;
nodes = (
(153,276,l),
(380,276,l),
(382,160,l),
(308,70,l),
(113,70,l),
(108,219,l)
);
}
);
width = 541;
}
);
unicode = 97;
},
{
glyphname = ae;
kernLeft = a;
kernRight = e;
lastChange = "2024-05-29 09:58:23 +0000";
layers = (
{
anchors = (
{
name = bottom;
pos = (506,-4);
},
{
name = ogonek;
pos = (654,8);
},
{
name = top;
pos = (421,549);
}
);
layerId = m01;
shapes = (
{
ref = a;
},
{
closed = 1;
nodes = (
(616,45,l),
(537,78,l),
(491,211,l),
(489,235,l),
(497,387,l),
(508,433,l),
(427,510,l),
(346,490,l),
(312,329,l),
(310,209,l),
(334,86,l),
(360,45,l)
);
},
{
closed = 1;
nodes = (
(437,-2,l),
(510,32,l),
(549,0,l),
(775,1,l),
(794,156,l),
(757,208,l),
(622,154,l),
(616,98,l),
(597,76,l),
(360,45,l)
);
},
{
closed = 1;
nodes = (
(811,301,l),
(799,478,l),
(697,510,l),
(549,526,l),
(427,510,l),
(446,424,l),
(461,363,l),
(599,433,l),
(633,425,l),
(640,306,l),
(423,302,l),
(414,235,l),
(532,240,l),
(616,191,l)
);
}
);
width = 831;
},
{
anchors = (
{
name = bottom;
pos = (777,0);
},
{
name = ogonek;
pos = (994,8);
},
{
name = top;
pos = (421,549);
}
);
guides = (
{
pos = (1111,376);
showMeasurement = 1;
}
);
layerId = m002;
shapes = (
{
ref = a;
},
{
closed = 1;
nodes = (
(685,45,l),
(507,78,l),
(461,211,l),
(463,266,l),
(470,387,l),
(649,470,l),
(496,510,l),
(415,490,l),
(381,329,l),
(379,209,l),
(403,86,l),
(429,45,l)
);
},
{
closed = 1;
nodes = (
(506,-2,l),
(579,32,l),
(618,0,l),
(844,1,l),
(863,156,l),
(826,164,l),
(782,154,l),
(776,98,l),
(721,60,l),
(429,45,l)
);
},
{
closed = 1;
nodes = (
(880,301,l),
(868,478,l),
(766,510,l),
(618,526,l),
(496,510,l),
(454,447,l),
(483,447,l),
(668,470,l),
(804,387,l),
(797,306,l),
(432,302,l),
(444,281,l),
(601,240,l),
(713,221,l)
);
}
);
width = 905;
}
);
metricLeft = a;
metricRight = e;
unicode = 230;
},
{
glyphname = b;
kernLeft = h;
kernRight = o;
lastChange = "2024-06-26 17:33:23 +0000";
layers = (
{
layerId = m01;
shapes = (
{
closed = 1;
nodes = (
(454,-7,l),
(534,113,l),
(539,407,l),
(487,506,l),
(305,531,l),
(214,471,l),
(240,357,l),
(285,379,l),
(370,426,l),
(371,348,l),
(370,123,l),
(310,123,l),
(185,226,l),
(209,183,l),
(225,156,l),
(343,-2,l)
);
},
{
closed = 1;
nodes = (
(245,0,l),
(269,59,l),
(245,118,l),
(245,614,l),
(126,668,l),
(77,634,l),
(83,117,l),
(25,81,l),
(34,0,l)
);
},
{
closed = 1;
nodes = (
(245,614,l),
(245,650,l),
(130,682,l),
(15,667,l),
(40,560,l),
(129,547,l)
);
}
);
width = 593;
},
{
guides = (
{
pos = (301,262);
showMeasurement = 1;
},
{
angle = 270;
pos = (328,335);
showMeasurement = 1;
}
);
layerId = m002;
shapes = (
{
closed = 1;
nodes = (
(445,0,l),
(528,243,l),
(510,407,l),
(458,506,l),
(276,531,l),
(102,471,l),
(129,430,l),
(243,463,l),
(440,439,l),
(467,347,l),
(413,70,l),
(241,70,l),
(124,226,l),
(129,183,l),
(135,130,l),
(241,-2,l)
);
},
{
closed = 1;
nodes = (
(145,0,l),
(169,28,l),
(145,87,l),
(145,614,l),
(109,668,l),
(60,634,l),
(66,86,l),
(38,50,l),
(47,0,l)
);
},
{
closed = 1;
nodes = (
(145,614,l),
(145,671,l),
(113,682,l),
(19,664,l),
(23,620,l),
(86,569,l)
);
}
);
width = 569;
}
);
metricLeft = h;
unicode = 98;
},
{
glyphname = c;
kernLeft = c;
lastChange = "2024-07-01 18:03:37 +0000";
layers = (
{
anchors = (
{
name = bottom;
pos = (294,59);
},
{
name = top;
pos = (281,536);
}
);
guides = (
{
angle = 270;
pos = (482,330);
}
);
layerId = m01;
shapes = (
{
closed = 1;
nodes = (
(298,45,l),
(230,89,l),
(214,161,l),
(197,235,l),
(205,387,l),
(237,433,l),
(139,513,l),
(58,493,l),
(24,329,l),
(22,209,l),
(46,82,l),
(92,13,l)
);
},
{
closed = 1;
nodes = (
(154,-2,l),
(239,28,l),
(278,0,l),
(457,1,l),
(482,156,l),
(445,208,l),
(317,154,l),
(307,100,l),
(273,55,l),
(92,13,l)
);
},
{
closed = 1;
nodes = (
(482,330,l),
(481,493,l),
(379,525,l),
(278,521,l),
(139,513,l),
(124,452,l),
(190,363,l),
(281,433,l),
(329,444,l),
(325,334,l),
(368,321,l)
);
}
);
width = 508;
},
{
anchors = (
{
name = bottom;
pos = (288,20);
},
{
name = top;
pos = (267,520);
}
);
guides = (
{
pos = (503,118);
showMeasurement = 1;
}
);
layerId = m002;
shapes = (
{
closed = 1;
nodes = (
(303,45,l),
(135,78,l),
(118,211,l),
(108,235,l),
(116,435,l),
(267,481,l),
(139,513,l),
(59,481,l),
(29,329,l),
(27,209,l),
(51,86,l),
(77,45,l)
);
},
{
closed = 1;
nodes = (
(125,2,l),
(244,32,l),
(283,0,l),
(462,1,l),
(481,156,l),
(456,179,l),
(403,154,l),
(393,100,l),
(365,55,l),
(77,45,l)
);
},
{
closed = 1;
nodes = (
(487,386,l),
(486,493,l),
(382,521,l),
(204,520,l),
(139,513,l),
(124,493,l),
(188,476,l),
(267,481,l),
(355,459,l),
(402,390,l),
(445,377,l)
);
}
);
width = 518;
}
);
unicode = 99;
},
{
glyphname = d;
kernLeft = c;
kernRight = d;
lastChange = "2024-07-05 18:22:16 +0000";
layers = (
{
anchors = (
{
name = bottom;
pos = (279,0);
},
{
name = center;
pos = (473,358);
},
{
name = top;
pos = (410,670);
},
{
name = topright;
pos = (538,800);
}
);
layerId = m01;
shapes = (
{
closed = 1;
nodes = (
(245,16,l),
(343,175,l),
(402,287,l),
(266,136,l),
(180,131,l),
(180,392,l),
(180,441,l),
(327,375,l),
(343,396,l),
(362,467,l),
(283,527,l),
(52,496,l),
(22,423,l),
(22,118,l),
(94,-9,l)
);
},
{
closed = 1;
nodes = (
(536,0,l),
(539,88,l),
(484,145,l),
(491,634,l),
(363,629,l),
(318,566,l),
(321,96,l),
(297,37,l),
(321,0,l)
);
},
{
closed = 1;
nodes = (
(512,562,l),
(537,657,l),
(422,684,l),
(336,657,l),
(318,566,l),
(422,549,l)
);
}
);
width = 558;
},
{
anchors = (
{
name = bottom;
pos = (284,0);
},
{
name = center;
pos = (478,358);
},
{
name = top;
pos = (415,670);
},
{
name = topright;
pos = (543,800);
}
);
guides = (
{
pos = (594,314);
showMeasurement = 1;
}
);
layerId = m002;
shapes = (
{
closed = 1;
nodes = (
(219,0,l),
(427,122,l),
(427,166,l),
(200,66,l),
(129,59,l),
(113,361,l),
(128,421,l),
(350,472,l),
(418,397,l),
(435,467,l),
(288,527,l),
(85,476,l),
(55,403,l),
(27,118,l),
(99,0,l)
);
},
{
closed = 1;
nodes = (
(541,0,l),
(544,37,l),
(489,94,l),
(496,634,l),
(413,634,l),
(413,566,l),
(415,73,l),
(384,37,l),
(408,0,l)
);
},
{
closed = 1;
nodes = (
(552,634,l),
(538,676,l),
(482,684,l),
(413,679,l),
(414,566,l),
(482,599,l)
);
}
);
width = 568;
}
);
metricLeft = c;
unicode = 100;
},
{
glyphname = dcroat;
kernLeft = c;
kernRight = d;
lastChange = "2024-05-29 09:58:23 +0000";
layers = (
{
anchors = (
{
name = bottom;
pos = (279,0);
},
{
name = center;
pos = (473,358);
},
{
name = top;
pos = (382,670);
},
{
name = topright;
pos = (538,800);
}
);
layerId = m01;
shapes = (
{
closed = 1;
nodes = (
(263,577,l),
(291,549,l),
(505,549,l),
(547,625,l),
(539,655,l),
(267,662,l)
);
},
{
closed = 1;
nodes = (
(245,16,l),
(343,175,l),
(402,287,l),
(266,136,l),
(231,130,l),
(153,392,l),
(165,428,l),
(299,401,l),
(343,396,l),
(362,467,l),
(283,527,l),
(80,476,l),
(50,403,l),
(22,118,l),
(94,-9,l)
);
},
{
closed = 1;
nodes = (
(536,0,l),
(539,88,l),
(484,145,l),
(491,700,l),
(363,700,l),
(318,679,l),
(321,96,l),
(297,37,l),
(321,0,l)
);
}
);
width = 566;
},
{
anchors = (
{
name = bottom;
pos = (284,0);
},
{
name = center;
pos = (478,358);
},
{
name = top;
pos = (387,670);
},
{
name = topright;
pos = (543,800);
}
);
guides = (
{
pos = (681,218);
showMeasurement = 1;
}
);
layerId = m002;
shapes = (
{
closed = 1;
nodes = (
(325,582,l),
(333,555,l),
(510,555,l),
(552,588,l),
(544,618,l),
(353,625,l)
);
},
{
closed = 1;
nodes = (
(250,16,l),
(416,206,l),
(436,287,l),
(271,136,l),
(130,59,l),
(93,392,l),
(195,427,l),
(325,466,l),
(429,437,l),
(433,467,l),
(288,527,l),
(85,476,l),
(55,403,l),
(27,118,l),
(99,-9,l)
);
},
{
closed = 1;
nodes = (
(541,0,l),
(545,54,l),
(491,90,l),
(496,700,l),
(420,700,l),
(405,672,l),
(408,89,l),
(376,37,l),
(400,0,l)
);
}
);
width = 576;
}
);
metricLeft = d;
metricRight = d;
unicode = 273;
},
{
glyphname = eth;
kernLeft = c;
kernRight = d;
lastChange = "2024-05-29 09:58:23 +0000";
layers = (
{
layerId = m01;
shapes = (
{
closed = 1;
nodes = (
(298,0,l),
(372,40,l),
(402,276,l),
(266,125,l),
(214,68,l),
(155,312,l),
(206,346,l),
(287,346,l),
(329,259,l),
(354,303,l),
(354,324,l),
(287,405,l),
(146,463,l),
(50,403,l),
(22,107,l),
(98,0,l)
);
},
{
closed = 1;
nodes = (
(484,134,l),
(490,449,l),
(437,574,l),
(326,685,l),
(253,704,l),
(178,647,l),
(192,612,l),
(319,463,l),
(321,85,l),
(297,26,l),
(389,0,l)
);
},
{
closed = 1;
nodes = (
(183,506,l),
(231,444,l),
(490,586,l),
(470,680,l),
(417,705,l),
(201,565,l)
);
}
);
width = 509;
},
{
guides = (
{
pos = (588,251);
showMeasurement = 1;
}
);
layerId = m002;
shapes = (
{
closed = 1;
nodes = (
(303,0,l),
(426,77,l),
(422,199,l),
(334,68,l),
(148,68,l),
(89,312,l),
(188,400,l),
(303,421,l),
(426,340,l),
(451,384,l),
(433,383,l),
(303,480,l),
(151,463,l),
(55,403,l),
(27,107,l),
(103,0,l)
);
},
{
closed = 1;
nodes = (
(489,134,l),
(495,449,l),
(442,574,l),
(331,685,l),
(258,704,l),
(244,669,l),
(288,638,l),
(415,469,l),
(411,85,l),
(387,26,l),
(451,0,l)
);
},
{
closed = 1;
nodes = (
(196,506,l),
(228,500,l),
(479,642,l),
(475,680,l),
(433,700,l),
(214,565,l)
);
}
);
width = 550;
}
);
metricLeft = d;
metricRight = "d+30";
unicode = 240;
},
{
glyphname = e;
kernLeft = c;
kernRight = e;
lastChange = "2024-07-05 18:37:53 +0000";
layers = (
{
anchors = (
{
name = bottom;
pos = (271,0);
},
{
name = ogonek;
pos = (488,8);
},
{
name = top;
pos = (291,542);
}
);
layerId = m01;
shapes = (
{
closed = 1;
nodes = (
(328,45,l),
(249,78,l),
(203,211,l),
(201,235,l),
(209,387,l),
(220,433,l),
(139,518,l),
(58,498,l),
(24,329,l),
(22,209,l),
(46,86,l),
(72,45,l)
);
},
{
closed = 1;
nodes = (
(149,-2,l),
(222,32,l),
(261,0,l),
(487,1,l),
(506,156,l),
(469,208,l),
(334,154,l),
(328,98,l),
(309,76,l),
(72,45,l)
);
},
{
closed = 1;
nodes = (
(523,301,l),
(511,486,l),
(409,518,l),
(261,534,l),
(139,518,l),
(158,424,l),
(173,363,l),
(259,425,l),
(345,425,l),
(373,346,l),
(352,306,l),
(135,302,l),
(126,235,l),
(244,240,l),
(328,191,l)
);
}
);
width = 543;
},
{
anchors = (
{
name = bottom;
pos = (276,0);
},
{
name = ogonek;
pos = (493,8);
},
{
name = top;
pos = (296,542);
}
);
guides = (
{
pos = (615,363);
showMeasurement = 1;
}
);
layerId = m002;
shapes = (
{
closed = 1;
nodes = (
(333,45,l),
(155,78,l),
(109,211,l),
(111,266,l),
(121,436,l),
(283,464,l),
(147,514,l),
(66,494,l),
(29,329,l),
(27,209,l),
(51,86,l),
(77,45,l)
);
},
{
closed = 1;
nodes = (
(154,-2,l),
(227,32,l),
(266,0,l),
(492,1,l),
(511,156,l),
(474,164,l),
(430,154,l),
(424,98,l),
(369,60,l),
(77,45,l)
);
},
{
closed = 1;
nodes = (
(514,301,l),
(502,482,l),
(400,514,l),
(266,520,l),
(147,514,l),
(105,451,l),
(134,451,l),
(302,464,l),
(435,436,l),
(437,338,l),
(424,306,l),
(75,306,l),
(91,278,l),
(178,232,l),
(283,238,l)
);
}
);
width = 539;
}
);
metricLeft = c;
unicode = 101;
},
{
glyphname = schwa;
kernLeft = c;
kernRight = o;
lastChange = "2024-05-31 17:14:22 +0000";
layers = (
{
anchors = (
{
name = bottom;
pos = (251,-22);
},
{
name = ogonek;
pos = (54,512);
},
{
name = top;
pos = (271,520);
}
);
layerId = m01;
shapes = (
{
closed = 1;
nodes = (
(99,256,l),
(41,219,l),
(26,95,l),
(94,-10,l),
(248,-7,l),
(324,14,l),
(377,119,l),
(339,190,l),
(176,95,l),
(150,182,l),
(158,203,l),
(290,217,l),
(354,210,l),
(354,283,l),
(237,328,l)
);
},
{
closed = 1;
nodes = (
(123,466,l),
(100,393,l),
(216,417,l),
(360,417,l),
(324,119,l),
(300,60,l),
(324,14,l),
(487,98,l),
(503,204,l),
(494,434,l),
(343,540,l)
);
},
{
closed = 1;
nodes = (
(85,474,l),
(30,417,l),
(52,331,l),
(123,294,l),
(191,342,l),
(182,388,l),
(258,429,l),
(258,492,l),
(240,520,l)
);
},
{
closed = 1;
nodes = (
(237,66,l),
(248,-7,l),
(420,17,l),
(451,113,l)
);
}
);
width = 533;
},
{
anchors = (
{
name = bottom;
pos = (256,-22);
},
{
name = ogonek;
pos = (59,512);
},
{
name = top;
pos = (276,520);
}
);
layerId = m002;
shapes = (
{
closed = 1;
nodes = (
(104,256,l),
(46,219,l),
(31,95,l),
(99,-10,l),
(253,-7,l),
(329,14,l),
(417,73,l),
(409,98,l),
(136,40,l),
(103,187,l),
(111,208,l),
(295,283,l),
(418,214,l),
(428,278,l),
(242,328,l)
);
},
{
closed = 1;
nodes = (
(128,466,l),
(105,393,l),
(153,445,l),
(434,445,l),
(394,86,l),
(305,60,l),
(329,14,l),
(492,98,l),
(508,204,l),
(499,434,l),
(348,540,l)
);
},
{
closed = 1;
nodes = (
(90,474,l),
(35,417,l),
(57,331,l),
(82,316,l),
(128,342,l),
(119,416,l),
(263,457,l),
(305,510,l),
(245,520,l)
);
},
{
closed = 1;
nodes = (
(349,73,l),
(253,-7,l),
(425,17,l),
(456,113,l)
);
}
);
width = 543;
}
);
unicode = 601;
},
{
glyphname = f;
lastChange = "2024-06-23 13:27:16 +0000";
layers = (
{
layerId = m01;
shapes = (
{
closed = 1;
nodes = (
(297,0,l),
(300,98,l),
(242,134,l),
(247,520,l),
(148,616,l),
(116,658,l),
(72,596,l),
(78,131,l),
(54,72,l),
(79,0,l)
);
},
{
closed = 1;
nodes = (
(286,387,l),
(354,430,l),
(338,519,l),
(18,520,l),
(18,420,l),
(48,390,l)
);
},
{
closed = 1;
nodes = (
(340,674,l),
(175,714,l),
(89,686,l),
(72,596,l),
(147,585,l),
(315,578,l)
);
}
);
width = 354;
},
{
guides = (
{
pos = (350,269);
showMeasurement = 1;
}
);
layerId = m002;
shapes = (
{
closed = 1;
nodes = (
(242,0,l),
(245,49,l),
(188,85,l),
(193,520,l),
(153,652,l),
(67,652,l),
(106,596,l),
(112,82,l),
(76,27,l),
(101,4,l)
);
},
{
closed = 1;
nodes = (
(281,455,l),
(349,498,l),
(333,519,l),
(55,520,l),
(55,477,l),
(85,447,l)
);
},
{
closed = 1;
nodes = (
(335,674,l),
(170,714,l),
(84,686,l),
(67,652,l),
(142,641,l),
(310,634,l)
);
}
);
width = 354;
}
);
unicode = 102;
},
{
glyphname = g;
kernLeft = c;
lastChange = "2024-06-12 18:09:25 +0000";
layers = (
{
anchors = (
{
name = bottom;
pos = (269,-240);
},
{
name = top;
pos = (298,552);
}
);
guides = (
{
angle = 270;
pos = (539,114);
}
);
layerId = m01;
shapes = (
{
closed = 1;
nodes = (
(457,-236,l),
(525,-14,l),
(478,71,l),
(105,71,l),
(81,-49,l),
(458,-38,l),
(372,-130,l),
(158,-130,l),
(34,-153,l),
(142,-238,l)
);
},
{
closed = 1;
nodes = (
(216,-90,l),
(129,-34,l),
(105,-3,l),
(34,-153,l),
(176,-216,l)
);
},
{
closed = 1;
nodes = (
(179,-37,l),
(174,157,l),
(96,146,l),
(50,4,l),
(81,-49,l)
);
},
{
closed = 1;
nodes = (
(227,53,l),
(174,113,l),
(165,43,l)
);
},
{
closed = 1;
nodes = (
(157,132,l),
(174,157,l),
(167,358,l),
(233,425,l),
(131,469,l),
(82,452,l),
(20,417,l),
(27,316,l),
(44,148,l),
(69,122,l)
);
},
{
closed = 1;
nodes = (
(411,113,l),
(414,208,l),
(405,242,l),
(86,181,l),
(129,106,l)
);
},
{
closed = 1;
nodes = (
(142,397,l),
(377,419,l),
(377,520,l),
(165,520,l),
(73,504,l),
(20,417,l),
(47,382,l)
);
},
{
closed = 1;
nodes = (
(458,379,l),
(424,485,l),
(377,520,l),
(293,509,l),
(307,236,l),
(350,202,l),
(411,113,l)
);
},
{
closed = 1;
nodes = (
(503,365,l),
(539,433,l),
(540,520,l),
(432,520,l),
(389,465,l),
(437,354,l)
);
}
);
width = 548;
},
{
anchors = (
{
name = bottom;
pos = (274,-240);
},
{
name = top;
pos = (303,552);
}
);
guides = (
{
pos = (472,284);
showMeasurement = 1;
}
);
layerId = m002;
shapes = (
{
closed = 1;
nodes = (
(440,-236,l),
(508,-14,l),
(461,27,l),
(110,27,l),
(86,-15,l),
(464,-4,l),
(394,-146,l),
(139,-194,l),
(39,-153,l),
(147,-238,l)
);
},
{
closed = 1;
nodes = (
(151,-98,l),
(134,-34,l),
(110,-3,l),
(39,-153,l),
(181,-216,l)
);
},
{
closed = 1;
nodes = (
(120,-49,l),
(170,109,l),
(101,129,l),
(55,4,l),
(86,-49,l)
);
},
{
closed = 1;
nodes = (
(188,16,l),
(135,76,l),
(126,6,l)
);
},
{
closed = 1;
nodes = (
(162,115,l),
(120,140,l),
(113,378,l),
(134,453,l),
(250,492,l),
(87,472,l),
(25,417,l),
(32,316,l),
(49,131,l),
(74,105,l)
);
},
{
closed = 1;
nodes = (
(415,96,l),
(418,193,l),
(406,166,l),
(76,115,l),
(134,89,l)
);
},
{
closed = 1;
nodes = (
(147,472,l),
(382,474,l),
(382,520,l),
(170,520,l),
(78,504,l),
(25,417,l),
(52,382,l)
);
},
{
closed = 1;
nodes = (
(463,379,l),
(429,485,l),
(382,520,l),
(364,509,l),
(368,209,l),
(415,171,l),
(415,96,l)
);
},
{
closed = 1;
nodes = (
(508,448,l),
(544,477,l),
(545,520,l),
(437,520,l),
(394,465,l),
(442,437,l)
);
}
);
width = 558;
}
);
unicode = 103;
},
{
glyphname = h;
kernLeft = h;
kernRight = n;
lastChange = "2024-07-01 17:10:02 +0000";
layers = (
{
anchors = (
{
name = bottom;
pos = (265,0);
},
{
name = center;
pos = (128,571);
},
{
name = top;
pos = (131,699);
}
);
guides = (
{
pos = (533,237);
showMeasurement = 1;
}
);
layerId = m01;
shapes = (
{
closed = 1;
nodes = (
(280,0,l),
(283,88,l),
(225,124,l),
(227,520,l),
(229,606,l),
(96,658,l),
(52,596,l),
(59,105,l),
(35,45,l),
(59,0,l)
);
},
{
closed = 1;
nodes = (
(432,0,l),
(500,0,l),
(516,65,l),
(487,142,l),
(500,508,l),
(376,528,l),
(295,521,l),
(223,413,l),
(222,379,l),
(296,424,l),
(320,414,l),
(332,116,l),
(321,0,l)
);
},
{
closed = 1;
nodes = (
(229,606,l),
(229,683,l),
(118,713,l),
(32,686,l),
(15,595,l),
(90,584,l)
);
}
);
width = 540;
},
{
anchors = (
{
name = bottom;
pos = (270,0);
},
{
name = center;
pos = (133,571);
},
{
name = top;
pos = (103,700);
}
);
guides = (
{
pos = (550,335);
showMeasurement = 1;
}
);
layerId = m002;
shapes = (
{
closed = 1;
nodes = (
(199,0,l),
(202,46,l),
(140,96,l),
(142,520,l),
(144,606,l),
(101,658,l),
(57,649,l),
(64,63,l),
(40,45,l),
(64,0,l)
);
},
{
closed = 1;
nodes = (
(437,0,l),
(505,0,l),
(521,65,l),
(492,98,l),
(505,508,l),
(381,528,l),
(300,521,l),
(131,413,l),
(130,379,l),
(331,466,l),
(416,443,l),
(428,72,l),
(417,0,l)
);
},
{
closed = 1;
nodes = (
(144,606,l),
(144,683,l),
(119,713,l),
(37,686,l),
(19,618,l),
(94,607,l)
);
}
);
width = 550;
}
);
metricRight = n;
unicode = 104;
},
{
glyphname = hbar;
kernLeft = h;
kernRight = n;
lastChange = "2024-05-29 09:58:23 +0000";
layers = (
{
anchors = (
{
name = bottom;
pos = (268,0);
},
{
name = center;
pos = (131,571);
},
{
name = top;
pos = (134,699);
}
);
layerId = m01;
shapes = (
{
closed = 1;
nodes = (
(280,1,l),
(283,89,l),
(225,125,l),
(230,520,l),
(232,714,l),
(110,723,l),
(54,716,l),
(62,105,l),
(38,45,l),
(62,0,l)
);
},
{
closed = 1;
nodes = (
(443,0,l),
(495,53,l),
(520,75,l),
(490,152,l),
(504,508,l),
(380,528,l),
(298,521,l),
(226,413,l),
(225,379,l),
(300,424,l),
(323,414,l),
(336,126,l),
(323,0,l)
);
},
{
closed = 1;
nodes = (
(15,519,l),
(320,544,l),
(348,591,l),
(333,654,l),
(40,646,l),
(16,594,l)
);
}
);
width = 544;
},
{
anchors = (
{
name = bottom;
pos = (272,0);
},
{
name = center;
pos = (135,571);
},
{
name = top;
pos = (138,699);
}
);
guides = (
{
pos = (680,298);
showMeasurement = 1;
}
);
layerId = m002;
shapes = (
{
closed = 1;
nodes = (
(167,1,l),
(170,53,l),
(142,89,l),
(147,520,l),
(149,714,l),
(114,723,l),
(58,716,l),
(66,69,l),
(42,27,l),
(66,0,l)
);
},
{
closed = 1;
nodes = (
(447,0,l),
(499,53,l),
(524,75,l),
(494,152,l),
(508,508,l),
(384,528,l),
(302,521,l),
(143,413,l),
(142,379,l),
(388,462,l),
(411,452,l),
(424,126,l),
(411,0,l)
);
},
{
closed = 1;
nodes = (
(19,575,l),
(239,600,l),
(267,619,l),
(252,654,l),
(44,646,l),
(20,622,l)
);
}
);
width = 553;
}
);
metricLeft = h;
metricRight = h;
unicode = 295;
},
{
glyphname = i;
kernRight = ar;
lastChange = "2024-07-01 17:11:40 +0000";
layers = (
{
anchors = (
{
name = bottom;
pos = (540,0);
},
{
name = right;
pos = (836,330);
},
{
name = top;
pos = (540,520);
}
);
layerId = m01;
shapes = (
{
closed = 1;
nodes = (
(272,1,l),
(270,73,l),
(226,134,l),
(228,326,l),
(235,520,l),
(199,520,l),
(19,478,l),
(10,402,l),
(35,367,l),
(72,356,l),
(74,139,l),
(42,104,l),
(42,38,l),
(66,0,l)
);
},
{
closed = 1;
nodes = (
(201,554,l),
(282,622,l),
(252,687,l),
(198,739,l),
(88,698,l),
(40,625,l),
(89,550,l)
);
}
);
width = 302;
},
{
anchors = (
{
name = bottom;
pos = (545,0);
},
{
name = right;
pos = (841,330);
},
{
name = top;
pos = (545,520);
}
);
guides = (
{
pos = (385,376);
showMeasurement = 1;
}
);
layerId = m002;
shapes = (
{
closed = 1;
nodes = (
(227,1,l),
(243,21,l),
(199,82,l),
(197,284,l),
(195,520,l),
(134,520,l),
(66,478,l),
(57,469,l),
(82,434,l),
(119,423,l),
(121,87,l),
(89,52,l),
(89,38,l),
(113,0,l)
);
},
{
closed = 1;
nodes = (
(194,586,l),
(248,632,l),
(228,675,l),
(192,710,l),
(118,683,l),
(86,634,l),
(119,584,l)
);
}
);
width = 312;
}
);
unicode = 105;
},
{
glyphname = idotless;
kernLeft = a;
kernRight = ar;
lastChange = "2024-05-29 09:58:23 +0000";
layers = (
{
anchors = (
{
name = bottom;
pos = (135,0);
},
{
name = ogonek;
pos = (275,0);
},
{
name = top;
pos = (147,520);
}
);
layerId = m01;
shapes = (
{
closed = 1;
nodes = (
(260,0,l),
(273,93,l),
(229,154,l),
(228,326,l),
(235,522,l),
(19,480,l),
(10,402,l),
(35,367,l),
(72,356,l),
(74,139,l),
(42,104,l),
(42,38,l),
(85,0,l)
);
}
);
width = 293;
},
{
anchors = (
{
name = bottom;
pos = (142,0);
},
{
name = ogonek;
pos = (282,0);
},
{
name = top;
pos = (154,520);
}
);
guides = (
{
pos = (338,252);
showMeasurement = 1;
}
);
layerId = m002;
shapes = (
{
closed = 1;
nodes = (
(226,0,l),
(239,46,l),
(202,107,l),
(201,326,l),
(208,522,l),
(66,480,l),
(57,467,l),
(82,432,l),
(119,421,l),
(121,92,l),
(82,57,l),
(82,38,l),
(125,0,l)
);
}
);
width = 303;
}
);
metricLeft = i;
metricRight = i;
unicode = 305;
},
{
glyphname = j;
kernLeft = j;
lastChange = "2024-07-01 17:40:51 +0000";
layers = (
{
layerId = m01;
shapes = (
{
closed = 1;
nodes = (
(275,-14,l),
(266,429,l),
(290,488,l),
(266,534,l),
(47,503,l),
(45,415,l),
(102,379,l),
(102,70,l),
(142,24,l),
(214,-26,l)
);
},
{
closed = 1;
nodes = (
(274,-99,l),
(275,-14,l),
(217,2,l),
(100,-14,l),
(0,-62,l),
(22,-141,l),
(210,-148,l)
);
},
{
closed = 1;
nodes = (
(213,554,l),
(294,622,l),
(263,687,l),
(210,739,l),
(100,698,l),
(52,625,l),
(101,550,l)
);
}
);
width = 314;
},
{
guides = (
{
pos = (490,195);
showMeasurement = 1;
}
);
layerId = m002;
shapes = (
{
closed = 1;
nodes = (
(260,-14,l),
(271,429,l),
(275,488,l),
(268,520,l),
(139,520,l),
(129,455,l),
(185,437,l),
(184,82,l),
(188,24,l),
(240,-59,l)
);
},
{
closed = 1;
nodes = (
(259,-99,l),
(260,-14,l),
(222,-70,l),
(105,-86,l),
(57,-99,l),
(91,-146,l),
(215,-148,l)
);
},
{
closed = 1;
nodes = (
(232,583,l),
(286,629,l),
(265,672,l),
(230,707,l),
(156,680,l),
(124,631,l),
(157,581,l)
);
}
);
width = 350;
}
);
metricRight = i;
unicode = 106;
},
{
glyphname = jdotless;
kernLeft = j;
lastChange = "2024-06-11 18:19:05 +0000";
layers = (
{
anchors = (
{
name = bottom;
pos = (153,-250);
},
{
name = top;
pos = (190,565);
}
);
layerId = m01;
shapes = (
{
closed = 1;
nodes = (
(275,-14,l),
(266,429,l),
(290,488,l),
(266,534,l),
(47,503,l),
(45,415,l),
(102,379,l),
(102,177,l),
(142,24,l),
(214,-26,l)
);
},
{
closed = 1;
nodes = (
(274,-99,l),
(275,-14,l),
(217,2,l),
(100,-14,l),
(0,-62,l),
(22,-141,l),
(210,-148,l)
);
}
);
width = 310;
},
{
anchors = (
{
name = bottom;
pos = (144,-250);
},
{
name = top;
pos = (181,565);
}
);
guides = (
{
pos = (504,210);
showMeasurement = 1;
}
);
layerId = m002;
shapes = (
{
closed = 1;
nodes = (
(266,-68,l),
(257,465,l),
(281,488,l),
(277,520,l),
(126,520,l),
(124,468,l),
(181,432,l),
(181,43,l),
(221,-30,l),
(205,-80,l)
);
},
{
closed = 1;
nodes = (
(265,-99,l),
(266,-68,l),
(206,-73,l),
(89,-89,l),
(57,-105,l),
(57,-141,l),
(201,-148,l)
);
}
);
width = 345;
}
);
metricLeft = j;
metricRight = j;
unicode = 567;
},
{
glyphname = k;
kernLeft = h;
lastChange = "2024-06-26 16:42:26 +0000";
layers = (
{
layerId = m01;
shapes = (
{
closed = 1;
nodes = (
(277,1,l),
(280,89,l),
(222,125,l),
(227,388,l),
(228,450,l),
(231,552,l),
(98,605,l),
(53,542,l),
(58,105,l),
(34,46,l),
(58,0,l)
);
},
{
closed = 1;
nodes = (
(468,53,l),
(478,155,l),
(400,263,l),
(338,295,l),
(323,308,l),
(208,290,l),
(193,231,l),
(284,194,l),
(349,0,l),
(421,0,l)
);
},
{
closed = 1;
nodes = (
(492,0,l),
(534,37,l),
(515,112,l),
(430,112,l),
(377,118,l),
(371,37,l),
(421,0,l)
);
},
{
closed = 1;
nodes = (
(231,552,l),
(231,630,l),
(120,659,l),
(34,632,l),
(16,542,l),
(92,530,l)
);
},
{
closed = 1;
nodes = (
(492,379,l),
(496,431,l),
(412,469,l),
(366,491,l),
(324,453,l),
(284,395,l),
(208,290,l),
(400,295,l)
);
},
{
closed = 1;
nodes = (
(496,431,l),
(487,504,l),
(432,520,l),
(343,519,l),
(292,481,l),
(311,421,l),
(392,365,l)
);
}
);
width = 566;
},
{
guides = (
{
pos = (593,171);
showMeasurement = 1;
}
);
layerId = m002;
shapes = (
{
closed = 1;
nodes = (
(218,1,l),
(221,53,l),
(178,89,l),
(178,388,l),
(178,450,l),
(181,552,l),
(103,605,l),
(95,542,l),
(100,69,l),
(71,46,l),
(95,0,l)
);
},
{
closed = 1;
nodes = (
(473,53,l),
(450,86,l),
(394,247,l),
(347,275,l),
(324,307,l),
(155,307,l),
(173,252,l),
(307,252,l),
(417,0,l),
(426,0,l)
);
},
{
closed = 1;
nodes = (
(497,0,l),
(525,32,l),
(509,86,l),
(467,94,l),
(421,85,l),
(430,26,l),
(426,0,l)
);
},
{
closed = 1;
nodes = (
(181,552,l),
(181,638,l),
(125,659,l),
(39,632,l),
(53,581,l),
(100,566,l)
);
},
{
closed = 1;
nodes = (
(474,383,l),
(493,431,l),
(438,483,l),
(397,499,l),
(416,460,l),
(351,364,l),
(279,290,l),
(387,303,l)
);
},
{
closed = 1;
nodes = (
(494,445,l),
(496,495,l),
(473,520,l),
(394,520,l),
(386,495,l),
(426,438,l),
(397,365,l)
);
}
);
width = 576;
}
);
unicode = 107;
},
{
glyphname = l;
kernLeft = h;
lastChange = "2024-07-01 17:09:53 +0000";
layers = (
{
anchors = (
{
name = bottom;
pos = (141,0);
},
{
name = center;
pos = (141,260);
},
{
name = top;
pos = (140,714);
},
{
name = topright;
pos = (276,714);
}
);
layerId = m01;
shapes = (
{
closed = 1;
nodes = (
(269,0,l),
(276,95,l),
(219,131,l),
(227,520,l),
(229,606,l),
(96,658,l),
(52,596,l),
(56,82,l),
(32,22,l),
(56,0,l)
);
},
{
closed = 1;
nodes = (
(229,606,l),
(229,683,l),
(118,713,l),
(32,686,l),
(15,595,l),
(90,584,l)
);
}
);
width = 293;
},
{
anchors = (
{
name = bottom;
pos = (128,0);
},
{
name = center;
pos = (128,260);
},
{
name = top;
pos = (127,714);
},
{
name = topright;
pos = (263,714);
}
);
guides = (
{
pos = (215,490);
showMeasurement = 1;
}
);
layerId = m002;
shapes = (
{
closed = 1;
nodes = (
(198,0,l),
(215,69,l),
(166,131,l),
(166,520,l),
(168,606,l),
(83,658,l),
(85,596,l),
(89,82,l),
(44,48,l),
(43,0,l)
);
},
{
closed = 1;
nodes = (
(168,606,l),
(172,681,l),
(105,713,l),
(19,686,l),
(30,637,l),
(100,629,l)
);
}
);
width = 252;
}
);
metricLeft = h;
metricRight = a;
unicode = 108;
},
{
glyphname = lslash;
kernLeft = h;
lastChange = "2024-05-29 09:58:23 +0000";
layers = (
{
layerId = m01;
shapes = (
{
pos = (3,0);
ref = l;
},
{
closed = 1;
nodes = (
(15,329,l),
(43,290,l),
(257,309,l),
(300,395,l),
(292,426,l),
(19,414,l)
);
}
);
width = 317;
},
{
layerId = m002;
shapes = (
{
pos = (7,0);
ref = l;
},
{
closed = 1;
nodes = (
(19,362,l),
(47,354,l),
(209,373,l),
(252,395,l),
(244,426,l),
(23,414,l)
);
}
);
width = 289;
}
);
metricLeft = l;
metricRight = l;
unicode = 322;
},
{
glyphname = m;
kernLeft = a;
kernRight = n;
lastChange = "2024-06-17 09:07:37 +0000";
layers = (
{
layerId = m01;
shapes = (
{
closed = 1;
nodes = (
(284,0,l),
(298,82,l),
(260,133,l),
(258,326,l),
(266,522,l),
(122,520,l),
(21,480,l),
(12,402,l),
(37,367,l),
(74,356,l),
(75,142,l),
(43,106,l),
(43,41,l),
(89,0,l)
);
},
{
closed = 1;
nodes = (
(494,0,l),
(543,73,l),
(514,150,l),
(526,508,l),
(402,528,l),
(320,521,l),
(248,413,l),
(247,379,l),
(322,424,l),
(345,414,l),
(359,124,l),
(351,0,l)
);
},
{
closed = 1;
nodes = (
(760,0,l),
(801,71,l),
(771,149,l),
(783,508,l),
(659,528,l),
(578,521,l),
(506,413,l),
(505,379,l),
(579,424,l),
(602,414,l),
(617,122,l),
(615,0,l)
);
}
);
width = 825;
},
{
guides = (
{
pos = (946,263);
showMeasurement = 1;
}
);
layerId = m002;
shapes = (
{
closed = 1;
nodes = (
(185,0,l),
(199,32,l),
(161,83,l),
(159,326,l),
(167,522,l),
(127,520,l),
(26,480,l),
(17,456,l),
(42,421,l),
(79,410,l),
(80,92,l),
(48,56,l),
(52,17,l),
(94,0,l)
);
},
{
closed = 1;
nodes = (
(452,0,l),
(490,74,l),
(461,151,l),
(473,501,l),
(389,520,l),
(307,513,l),
(149,405,l),
(148,371,l),
(309,455,l),
(375,445,l),
(389,124,l),
(381,0,l)
);
},
{
closed = 1;
nodes = (
(765,0,l),
(806,71,l),
(776,149,l),
(788,500,l),
(664,520,l),
(583,513,l),
(452,405,l),
(451,371,l),
(584,455,l),
(687,441,l),
(702,118,l),
(700,0,l)
);
}
);
width = 835;
}
);
unicode = 109;
},
{
glyphname = n;
kernLeft = a;
kernRight = n;
lastChange = "2024-07-01 17:13:17 +0000";
layers = (
{
anchors = (
{
name = bottom;
pos = (320,0);
},
{
name = right;
pos = (838,330);
},
{
name = top;
pos = (303,534);
}
);
layerId = m01;
shapes = (
{
closed = 1;
nodes = (
(303,0,l),
(302,72,l),
(258,133,l),
(258,326,l),
(266,522,l),
(107,520,l),
(21,480,l),
(12,402,l),
(37,367,l),
(74,356,l),
(74,139,l),
(42,104,l),
(42,38,l),
(81,0,l)
);
},
{
closed = 1;
nodes = (
(512,0,l),
(542,64,l),
(512,142,l),
(526,508,l),
(402,528,l),
(320,521,l),
(248,413,l),
(247,379,l),
(322,424,l),
(345,414,l),
(358,116,l),
(356,0,l)
);
}
);
width = 566;
},
{
anchors = (
{
name = bottom;
pos = (325,0);
},
{
name = right;
pos = (843,330);
},
{
name = top;
pos = (308,534);
}
);
guides = (
{
pos = (752,253);
showMeasurement = 1;
}
);
layerId = m002;
shapes = (
{
closed = 1;
nodes = (
(195,0,l),
(194,36,l),
(150,97,l),
(150,326,l),
(158,522,l),
(112,520,l),
(26,480,l),
(17,456,l),
(42,421,l),
(79,410,l),
(79,103,l),
(47,68,l),
(47,38,l),
(86,0,l)
);
},
{
closed = 1;
nodes = (
(517,0,l),
(547,39,l),
(518,73,l),
(515,496,l),
(324,524,l),
(251,480,l),
(140,387,l),
(134,323,l),
(335,467,l),
(440,446,l),
(441,113,l),
(429,-1,l)
);
}
);
width = 576;
}
);
metricLeft = m;
metricRight = m;
unicode = 110;
},
{
glyphname = o;
kernLeft = c;
kernRight = o;
lastChange = "2024-07-01 18:08:59 +0000";
layers = (
{
anchors = (
{
name = bottom;
pos = (231,0);
},
{
name = center;
pos = (207,260);
},
{
name = ogonek;
pos = (401,8);
},
{
name = top;
pos = (254,547);
},
{
name = topright;
pos = (433,520);
}
);
layerId = m01;
shapes = (
{
closed = 1;
nodes = (
(22,95,l),
(132,0,l),
(201,0,l),
(399,0,l),
(496,95,l),
(496,393,l),
(455,495,l),
(345,520,l),
(247,520,l),
(158,520,l),
(66,495,l),
(22,393,l),
(22,215,l)
);
},
{
closed = 1;
nodes = (
(320,261,l),
(321,129,l),
(311,67,l),
(248,67,l),
(206,141,l),
(204,376,l),
(214,444,l),
(276,444,l),
(320,371,l)
);
}
);
width = 550;
},
{
anchors = (
{
name = bottom;
pos = (230,0);
},
{
name = center;
pos = (230,260);
},
{
name = ogonek;
pos = (424,8);
},
{
name = top;
pos = (293,549);
},
{
name = topright;
pos = (456,520);
}
);
guides = (
{
pos = (284,251);
showMeasurement = 1;
},
{
angle = -89.1;
pos = (313,145);
showMeasurement = 1;
}
);
layerId = m002;
shapes = (
{
closed = 1;
nodes = (
(158,-2,l),
(231,32,l),
(270,0,l),
(422,0,l),
(519,95,l),
(534,302,l),
(494,481,l),
(400,513,l),
(271,520,l),
(150,508,l),
(60,481,l),
(27,305,l),
(56,94,l)
);
},
{
closed = 1;
nodes = (
(447,201,l),
(438,78,l),
(361,69,l),
(281,61,l),
(125,78,l),
(113,369,l),
(152,459,l),
(402,459,l),
(443,368,l)
);
}
);
width = 575;
}
);
metricLeft = c;
metricRight = b;
unicode = 111;
},
{
glyphname = oslash;
kernLeft = c;
kernRight = o;
lastChange = "2024-06-26 16:46:41 +0000";
layers = (
{
layerId = m01;
shapes = (
{
closed = 1;
nodes = (
(60,-21,l),
(70,-54,l),
(120,-67,l),
(448,546,l),
(428,575,l),
(365,561,l)
);
},
{
ref = o;
}
);
width = 550;
},
{
layerId = m002;
shapes = (
{
closed = 1;
nodes = (
(68,-21,l),
(70,-54,l),
(111,-67,l),
(439,546,l),
(428,575,l),
(373,561,l)
);
},
{
ref = o;
}
);
width = 531;
}
);
metricLeft = o;
metricRight = o;
unicode = 248;
},
{
glyphname = oe;
kernLeft = c;
lastChange = "2024-05-29 09:58:23 +0000";
layers = (
{
anchors = (
{
name = bottom;
pos = (541,0);
},
{
name = center;
pos = (212,260);
},
{
name = ogonek;
pos = (758,8);
},
{
name = top;
pos = (561,542);
},
{
name = topright;
pos = (438,520);
}
);
layerId = m01;
shapes = (
{
closed = 1;
nodes = (
(159,25,l),
(212,58,l),
(205,366,l),
(271,433,l),
(133,469,l),
(84,452,l),
(22,355,l),
(29,316,l),
(46,41,l),
(71,15,l)
);
},
{
closed = 1;
nodes = (
(421,41,l),
(477,379,l),
(443,485,l),
(396,520,l),
(312,509,l),
(295,129,l),
(376,129,l),
(73,25,l),
(131,-1,l),
(307,0,l)
);
},
{
closed = 1;
nodes = (
(144,397,l),
(396,419,l),
(396,520,l),
(167,520,l),
(75,504,l),
(22,355,l),
(49,382,l)
);
},
{
closed = 1;
nodes = (
(593,45,l),
(514,78,l),
(464,156,l),
(462,180,l),
(474,387,l),
(485,433,l),
(404,510,l),
(323,490,l),
(380,335,l),
(378,215,l),
(323,76,l),
(337,45,l)
);
},
{
closed = 1;
nodes = (
(414,-2,l),
(487,32,l),
(526,0,l),
(752,1,l),
(771,156,l),
(734,208,l),
(599,154,l),
(593,98,l),
(574,76,l),
(337,45,l)
);
},
{
closed = 1;
nodes = (
(788,301,l),
(776,478,l),
(674,510,l),
(526,526,l),
(404,510,l),
(423,424,l),
(438,363,l),
(576,433,l),
(610,425,l),
(617,306,l),
(400,302,l),
(391,235,l),
(509,240,l),
(593,191,l)
);
}
);
width = 808;
},
{
anchors = (
{
name = bottom;
pos = (546,0);
},
{
name = center;
pos = (217,260);
},
{
name = ogonek;
pos = (763,8);
},
{
name = top;
pos = (566,542);
},
{
name = topright;
pos = (443,520);
}
);
guides = (
{
pos = (984,126);
showMeasurement = 1;
}
);
layerId = m002;
shapes = (
{
closed = 1;
nodes = (
(164,25,l),
(117,58,l),
(110,414,l),
(176,481,l),
(138,469,l),
(89,452,l),
(27,355,l),
(34,316,l),
(51,41,l),
(76,15,l)
);
},
{
closed = 1;
nodes = (
(426,41,l),
(465,379,l),
(448,485,l),
(401,520,l),
(364,509,l),
(378,102,l),
(417,73,l),
(78,25,l),
(136,-1,l),
(312,0,l)
);
},
{
closed = 1;
nodes = (
(149,445,l),
(401,467,l),
(401,520,l),
(172,520,l),
(80,504,l),
(27,355,l),
(54,382,l)
);
},
{
closed = 1;
nodes = (
(598,45,l),
(519,78,l),
(452,156,l),
(450,180,l),
(462,387,l),
(473,433,l),
(409,510,l),
(364,490,l),
(421,335,l),
(419,215,l),
(406,56,l),
(362,25,l)
);
},
{
closed = 1;
nodes = (
(419,-2,l),
(492,32,l),
(531,0,l),
(757,1,l),
(776,156,l),
(756,172,l),
(694,154,l),
(688,98,l),
(669,76,l),
(362,25,l)
);
},
{
closed = 1;
nodes = (
(793,301,l),
(781,478,l),
(679,510,l),
(531,526,l),
(409,510,l),
(411,424,l),
(424,457,l),
(684,460,l),
(711,425,l),
(718,306,l),
(421,301,l),
(412,234,l),
(514,240,l),
(679,247,l)
);
}
);
width = 818;
}
);
metricLeft = o;
metricRight = e;
unicode = 339;
},
{
glyphname = p;
kernLeft = a;
kernRight = o;
lastChange = "2024-07-01 17:41:33 +0000";
layers = (
{
layerId = m01;
shapes = (
{
closed = 1;
nodes = (
(460,30,l),
(512,130,l),
(530,298,l),
(485,492,l),
(323,520,l),
(224,415,l),
(132,407,l),
(153,294,l),
(269,346,l),
(357,384,l),
(387,335,l),
(334,97,l),
(255,95,l),
(200,174,l),
(132,174,l),
(192,130,l),
(259,-3,l)
);
},
{
closed = 1;
nodes = (
(224,-140,l),
(192,-76,l),
(126,-46,l),
(36,-59,l),
(12,-154,l),
(125,-195,l)
);
},
{
closed = 1;
nodes = (
(224,-140,l),
(211,410,l),
(255,469,l),
(213,520,l),
(13,520,l),
(11,446,l),
(56,409,l),
(64,-162,l),
(125,-195,l)
);
}
);
width = 584;
},
{
guides = (
{
pos = (768,240);
showMeasurement = 1;
}
);
layerId = m002;
shapes = (
{
closed = 1;
nodes = (
(465,30,l),
(517,130,l),
(535,298,l),
(458,517,l),
(296,520,l),
(201,509,l),
(135,401,l),
(134,383,l),
(225,451,l),
(379,467,l),
(463,324,l),
(415,87,l),
(276,66,l),
(173,174,l),
(137,174,l),
(137,144,l),
(264,-3,l)
);
},
{
closed = 1;
nodes = (
(154,-140,l),
(146,-70,l),
(85,-85,l),
(39,-107,l),
(39,-170,l),
(130,-195,l)
);
},
{
closed = 1;
nodes = (
(154,-140,l),
(141,443,l),
(158,487,l),
(143,520,l),
(18,520,l),
(16,479,l),
(61,442,l),
(69,-162,l),
(130,-195,l)
);
}
);
width = 576;
}
);
metricRight = b;
unicode = 112;
},
{
glyphname = thorn;
kernLeft = l;
kernRight = o;
lastChange = "2024-07-01 17:41:33 +0000";
layers = (
{
layerId = m01;
shapes = (
{
closed = 1;
nodes = (
(464,30,l),
(516,130,l),
(534,298,l),
(500,473,l),
(319,532,l),
(204,490,l),
(136,407,l),
(157,294,l),
(363,383,l),
(405,335,l),
(357,98,l),
(259,95,l),
(204,174,l),
(136,174,l),
(196,130,l),
(266,-15,l)
);
},
{
closed = 1;
nodes = (
(228,-140,l),
(196,-76,l),
(130,-46,l),
(40,-59,l),
(16,-154,l),
(129,-195,l)
);
},
{
closed = 1;
nodes = (
(228,-140,l),
(215,590,l),
(259,648,l),
(235,694,l),
(17,714,l),
(15,626,l),
(72,590,l),
(80,-161,l),
(129,-195,l)
);
}
);
width = 588;
},
{
guides = (
{
pos = (593,218);
showMeasurement = 1;
}
);
layerId = m002;
shapes = (
{
closed = 1;
nodes = (
(468,30,l),
(520,130,l),
(538,298,l),
(504,473,l),
(323,532,l),
(208,490,l),
(140,407,l),
(149,379,l),
(413,468,l),
(469,335,l),
(422,72,l),
(264,69,l),
(161,218,l),
(93,218,l),
(187,116,l),
(270,-15,l)
);
},
{
closed = 1;
nodes = (
(170,-140,l),
(158,-94,l),
(134,-101,l),
(44,-114,l),
(20,-154,l),
(133,-195,l)
);
},
{
closed = 1;
nodes = (
(170,-140,l),
(157,626,l),
(177,646,l),
(177,694,l),
(21,714,l),
(19,662,l),
(76,626,l),
(84,-161,l),
(133,-195,l)
);
}
);
width = 579;
}
);
metricLeft = l;
metricRight = o;
unicode = 254;
},
{
glyphname = q;
kernLeft = c;
lastChange = "2024-07-01 17:10:28 +0000";
layers = (
{
layerId = m01;
shapes = (
{
closed = 1;
nodes = (
(339,115,l),
(322,174,l),
(274,90,l),
(138,115,l),
(189,372,l),
(279,383,l),
(382,294,l),
(404,407,l),
(279,444,l),
(238,520,l),
(69,480,l),
(22,278,l),
(40,109,l),
(92,10,l),
(257,-18,l)
);
},
{
closed = 1;
nodes = (
(538,-191,l),
(513,-96,l),
(423,-83,l),
(358,-113,l),
(337,-191,l),
(422,-218,l)
);
},
{
closed = 1;
nodes = (
(474,-198,l),
(468,380,l),
(514,416,l),
(516,520,l),
(308,520,l),
(281,469,l),
(305,410,l),
(305,-178,l),
(424,-232,l)
);
}
);
width = 538;
},
{
guides = (
{
pos = (239,255);
showMeasurement = 1;
}
);
layerId = m002;
shapes = (
{
closed = 1;
nodes = (
(406,124,l),
(394,174,l),
(279,48,l),
(108,93,l),
(119,439,l),
(305,456,l),
(403,340,l),
(409,407,l),
(313,520,l),
(243,520,l),
(74,480,l),
(27,278,l),
(45,109,l),
(97,10,l),
(262,-18,l)
);
},
{
closed = 1;
nodes = (
(521,-220,l),
(523,-156,l),
(433,-143,l),
(389,-156,l),
(387,-178,l),
(429,-232,l)
);
},
{
closed = 1;
nodes = (
(479,-198,l),
(473,439,l),
(519,475,l),
(521,520,l),
(375,520,l),
(375,469,l),
(387,410,l),
(387,-178,l),
(434,-216,l)
);
}
);
width = 548;
}
);
metricLeft = c;
unicode = 113;
},
{
glyphname = r;
kernLeft = a;
kernRight = r;
lastChange = "2024-07-01 18:06:25 +0000";
layers = (
{
anchors = (
{
name = bottom;
pos = (234,0);
},
{
name = top;
pos = (234,534);
}
);
layerId = m01;
shapes = (
{
closed = 1;
nodes = (
(279,0,l),
(282,88,l),
(224,124,l),
(228,340,l),
(230,426,l),
(98,478,l),
(53,416,l),
(60,101,l),
(36,42,l),
(50,0,l)
);
},
{
closed = 1;
nodes = (
(230,426,l),
(230,503,l),
(119,533,l),
(34,506,l),
(16,415,l),
(91,404,l)
);
},
{
closed = 1;
nodes = (
(464,430,l),
(467,510,l),
(343,530,l),
(262,522,l),
(190,414,l),
(189,381,l),
(263,426,l),
(286,415,l),
(288,370,l),
(409,315,l)
);
},
{
closed = 1;
nodes = (
(279,0,l),
(282,88,l),
(224,124,l),
(228,340,l),
(230,426,l),
(98,478,l),
(53,416,l),
(60,101,l),
(36,42,l),
(100,42,l)
);
},
{
closed = 1;
nodes = (
(290,293,l),
(377,255,l),
(395,286,l),
(409,315,l),
(288,370,l)
);
}
);
width = 477;
},
{
anchors = (
{
name = bottom;
pos = (239,0);
},
{
name = top;
pos = (239,534);
}
);
guides = (
{
pos = (437,168);
showMeasurement = 1;
}
);
layerId = m002;
shapes = (
{
closed = 1;
nodes = (
(206,0,l),
(209,52,l),
(143,88,l),
(143,327,l),
(145,413,l),
(103,465,l),
(58,403,l),
(65,65,l),
(41,42,l),
(55,0,l)
);
},
{
closed = 1;
nodes = (
(145,413,l),
(149,490,l),
(124,520,l),
(39,493,l),
(21,453,l),
(96,442,l)
);
},
{
closed = 1;
nodes = (
(469,420,l),
(472,500,l),
(348,520,l),
(267,512,l),
(133,401,l),
(132,368,l),
(293,455,l),
(382,453,l),
(370,382,l),
(424,327,l)
);
},
{
closed = 1;
nodes = (
(206,0,l),
(209,52,l),
(143,88,l),
(143,327,l),
(145,413,l),
(103,465,l),
(58,403,l),
(65,65,l),
(41,42,l),
(105,42,l)
);
},
{
closed = 1;
nodes = (
(359,327,l),
(376,306,l),
(410,298,l),
(424,327,l),
(370,382,l)
);
}
);
width = 487;
}
);
unicode = 114;
},
{
glyphname = s;
kernLeft = s;
kernRight = s;
lastChange = "2024-07-01 18:01:30 +0000";
layers = (
{
anchors = (
{
name = bottom;
pos = (281,35);
},
{
name = top;
pos = (235,538);
}
);
layerId = m01;
shapes = (
{
closed = 1;
nodes = (
(123,210,l),
(200,256,l),
(198,443,l),
(184,511,l),
(22,465,l),
(22,210,l)
);
},
{
closed = 1;
nodes = (
(412,0,l),
(458,78,l),
(277,74,l),
(163,200,l),
(36,128,l),
(35,1,l),
(109,-9,l),
(318,-6,l)
);
},
{
closed = 1;
nodes = (
(458,277,l),
(376,342,l),
(181,296,l),
(27,268,l),
(264,236,l),
(342,225,l)
);
},
{
closed = 1;
nodes = (
(458,78,l),
(458,277,l),
(313,296,l),
(303,29,l)
);
},
{
closed = 1;
nodes = (
(437,398,l),
(484,447,l),
(467,516,l),
(280,526,l),
(75,502,l),
(68,436,l),
(125,436,l),
(303,426,l),
(334,361,l)
);
}
);
width = 484;
},
{
anchors = (
{
name = bottom;
pos = (256,9);
},
{
name = top;
pos = (235,538);
}
);
guides = (
{
pos = (495,353);
showMeasurement = 1;
},
{
angle = 90;
pos = (27,212);
}
);
layerId = m002;
shapes = (
{
closed = 1;
nodes = (
(59,258,l),
(115,292,l),
(115,447,l),
(189,501,l),
(27,469,l),
(39,276,l)
);
},
{
closed = 1;
nodes = (
(365,9,l),
(458,41,l),
(179,51,l),
(94,122,l),
(31,95,l),
(30,10,l),
(118,3,l),
(225,0,l)
);
},
{
closed = 1;
nodes = (
(458,277,l),
(414,314,l),
(115,292,l),
(59,258,l),
(322,265,l),
(392,231,l)
);
},
{
closed = 1;
nodes = (
(458,41,l),
(458,277,l),
(378,249,l),
(378,28,l)
);
},
{
closed = 1;
nodes = (
(437,388,l),
(484,437,l),
(467,510,l),
(290,520,l),
(80,510,l),
(83,435,l),
(286,465,l),
(382,462,l),
(392,402,l)
);
}
);
width = 489;
}
);
metricLeft = c;
unicode = 115;
},
{
glyphname = germandbls;
lastChange = "2024-06-17 18:01:40 +0000";
layers = (
{
layerId = m01;
shapes = (
{
closed = 1;
nodes = (
(276,0,l),
(284,64,l),
(234,113,l),
(242,464,l),
(143,560,l),
(112,602,l),
(67,540,l),
(71,105,l),
(47,46,l),
(71,0,l)
);
},
{
closed = 1;
nodes = (
(233,395,l),
(225,463,l),
(157,506,l),
(32,492,l),
(2,462,l),
(57,363,l)
);
},
{
closed = 1;
nodes = (
(551,3,l),
(599,115,l),
(584,239,l),
(458,312,l),
(350,363,l),
(271,303,l),
(290,232,l),
(334,237,l),
(464,253,l),
(476,217,l),
(456,177,l),
(432,130,l),
(356,179,l),
(290,198,l),
(270,123,l),
(394,0,l)
);
},
{
closed = 1;
nodes = (
(433,361,l),
(493,406,l),
(526,543,l),
(383,631,l),
(165,594,l),
(189,538,l),
(358,535,l),
(383,533,l),
(419,520,l),
(386,483,l),
(318,427,l),
(271,303,l)
);
},
{
closed = 1;
nodes = (
(383,631,l),
(170,658,l),
(84,630,l),
(67,540,l),
(142,529,l),
(358,535,l)
);
}
);
width = 607;
},
{
guides = (
{
pos = (644,198);
showMeasurement = 1;
}
);
layerId = m002;
shapes = (
{
closed = 1;
nodes = (
(191,0,l),
(199,31,l),
(153,80,l),
(161,464,l),
(148,560,l),
(117,602,l),
(72,540,l),
(76,72,l),
(52,46,l),
(76,0,l)
);
},
{
closed = 1;
nodes = (
(107,406,l),
(144,463,l),
(136,506,l),
(37,492,l),
(7,462,l),
(31,416,l)
);
},
{
closed = 1;
nodes = (
(555,0,l),
(604,115,l),
(589,239,l),
(463,312,l),
(355,363,l),
(276,303,l),
(300,278,l),
(344,283,l),
(489,257,l),
(542,137,l),
(438,31,l),
(403,72,l),
(311,164,l),
(280,180,l),
(250,164,l),
(351,0,l)
);
},
{
closed = 1;
nodes = (
(438,361,l),
(519,430,l),
(504,554,l),
(361,642,l),
(170,594,l),
(194,592,l),
(336,600,l),
(361,598,l),
(449,517,l),
(427,424,l),
(305,374,l),
(276,303,l)
);
},
{
closed = 1;
nodes = (
(361,642,l),
(175,658,l),
(89,630,l),
(72,540,l),
(147,583,l),
(336,600,l)
);
}
);
width = 634;
}
);
metricRight = B;
unicode = 223;
},
{
glyphname = t;
lastChange = "2024-07-02 10:51:16 +0000";
layers = (
{
anchors = (
{
name = bottom;
pos = (201,0);
},
{
name = center;
pos = (186,260);
},
{
name = top;
pos = (149,665);
},
{
name = topright;
pos = (365,714);
}
);
layerId = m01;
shapes = (
{
closed = 1;
nodes = (
(147,98,l),
(247,215,l),
(249,381,l),
(249,408,l),
(250,448,l),
(252,579,l),
(211,635,l),
(114,665,l),
(70,628,l),
(61,102,l),
(106,39,l)
);
},
{
closed = 1;
nodes = (
(294,14,l),
(254,122,l),
(166,145,l),
(61,102,l),
(78,11,l),
(164,-16,l)
);
},
{
closed = 1;
nodes = (
(310,18,l),
(339,156,l),
(278,170,l),
(210,115,l),
(236,93,l),
(267,11,l)
);
},
{
closed = 1;
nodes = (
(342,417,l),
(374,480,l),
(327,520,l),
(38,520,l),
(8,490,l),
(47,416,l)
);
}
);
width = 384;
},
{
anchors = (
{
name = bottom;
pos = (196,0);
},
{
name = center;
pos = (181,260);
},
{
name = top;
pos = (155,665);
},
{
name = topright;
pos = (360,714);
}
);
guides = (
{
pos = (357,318);
showMeasurement = 1;
}
);
layerId = m002;
shapes = (
{
closed = 1;
nodes = (
(159,100,l),
(189,171,l),
(192,428,l),
(163,455,l),
(192,479,l),
(193,578,l),
(157,634,l),
(130,641,l),
(116,628,l),
(107,118,l),
(127,27,l)
);
},
{
closed = 1;
nodes = (
(259,0,l),
(249,60,l),
(156,99,l),
(107,118,l),
(127,27,l),
(159,0,l)
);
},
{
closed = 1;
nodes = (
(295,4,l),
(334,156,l),
(273,170,l),
(244,138,l),
(231,93,l),
(259,0,l)
);
},
{
closed = 1;
nodes = (
(331,453,l),
(328,503,l),
(295,520,l),
(43,520,l),
(33,490,l),
(52,455,l)
);
}
);
width = 384;
}
);
unicode = 116;
},
{
glyphname = u;
kernLeft = a;
kernRight = ar;
lastChange = "2024-07-01 17:36:07 +0000";
layers = (
{
anchors = (
{
name = bottom;
pos = (344,26);
},
{
name = ogonek;
pos = (487,8);
},
{
name = top;
pos = (284,543);
},
{
name = topright;
pos = (524,520);
}
);
layerId = m01;
shapes = (
{
closed = 1;
nodes = (
(539,0,l),
(548,77,l),
(523,112,l),
(485,124,l),
(486,377,l),
(518,412,l),
(518,478,l),
(470,520,l),
(262,520,l),
(262,420,l),
(315,362,l),
(314,154,l),
(307,0,l)
);
},
{
closed = 1;
nodes = (
(240,1,l),
(319,112,l),
(319,145,l),
(238,98,l),
(200,110,l),
(202,382,l),
(202,520,l),
(71,520,l),
(28,497,l),
(18,438,l),
(48,360,l),
(48,31,l),
(158,-6,l)
);
}
);
width = 565;
},
{
anchors = (
{
name = bottom;
pos = (401,6);
},
{
name = ogonek;
pos = (492,8);
},
{
name = top;
pos = (289,543);
},
{
name = topright;
pos = (529,520);
}
);
guides = (
{
pos = (669,238);
showMeasurement = 1;
}
);
layerId = m002;
shapes = (
{
closed = 1;
nodes = (
(526,0,l),
(535,41,l),
(510,76,l),
(490,88,l),
(491,425,l),
(523,460,l),
(519,520,l),
(475,520,l),
(391,520,l),
(387,471,l),
(409,410,l),
(408,154,l),
(401,0,l)
);
},
{
closed = 1;
nodes = (
(245,1,l),
(421,112,l),
(421,145,l),
(232,67,l),
(132,67,l),
(124,453,l),
(126,519,l),
(76,520,l),
(39,521,l),
(23,438,l),
(51,393,l),
(51,25,l),
(163,-6,l)
);
}
);
width = 572;
}
);
metricLeft = a;
metricRight = a;
unicode = 117;
},
{
glyphname = v;
kernLeft = v;
kernRight = v;
lastChange = "2024-06-17 12:36:12 +0000";
layers = (
{
layerId = m01;
shapes = (
{
closed = 1;
nodes = (
(314,0,l),
(178,487,l),
(86,502,l),
(29,470,l),
(65,343,l),
(126,35,l),
(188,0,l)
);
},
{
closed = 1;
nodes = (
(250,395,l),
(239,467,l),
(233,520,l),
(86,520,l),
(65,343,l)
);
},
{
closed = 1;
nodes = (
(407,46,l),
(494,386,l),
(522,487,l),
(494,520,l),
(360,520,l),
(302,290,l),
(277,39,l),
(321,39,l)
);
}
);
width = 522;
},
{
guides = (
{
pos = (624,235);
showMeasurement = 1;
}
);
layerId = m002;
shapes = (
{
closed = 1;
nodes = (
(262,0,l),
(102,487,l),
(91,502,l),
(34,470,l),
(70,343,l),
(145,35,l),
(217,0,l)
);
},
{
closed = 1;
nodes = (
(164,446,l),
(200,467,l),
(194,520,l),
(72,520,l),
(72,406,l)
);
},
{
closed = 1;
nodes = (
(412,46,l),
(501,421,l),
(527,487,l),
(499,520,l),
(443,520,l),
(351,130,l),
(262,0,l),
(306,0,l)
);
}
);
width = 532;
}
);
unicode = 118;
},
{
glyphname = w;
kernLeft = v;
kernRight = v;
lastChange = "2024-07-01 16:56:58 +0000";
layers = (
{
anchors = (
{
name = bottom;
pos = (460,0);
},
{
name = top;
pos = (460,541);
}
);
guides = (
{
pos = (877,119);
}
);
layerId = m01;
shapes = (
{
closed = 1;
nodes = (
(377,0,l),
(387,31,l),
(326,38,l),
(207,487,l),
(79,520,l),
(29,434,l),
(94,343,l),
(155,26,l),
(195,1,l)
);
},
{
closed = 1;
nodes = (
(266,394,l),
(273,445,l),
(255,520,l),
(79,520,l),
(94,343,l)
);
},
{
closed = 1;
nodes = (
(436,36,l),
(523,386,l),
(551,487,l),
(476,512,l),
(383,498,l),
(297,78,l),
(318,24,l),
(377,0,l)
);
},
{
closed = 1;
nodes = (
(723,0,l),
(741,54,l),
(695,33,l),
(547,487,l),
(475,507,l),
(571,150,l),
(611,0,l)
);
},
{
closed = 1;
nodes = (
(776,36,l),
(863,386,l),
(888,480,l),
(844,520,l),
(730,519,l),
(671,290,l),
(665,42,l),
(723,0,l)
);
},
{
closed = 1;
nodes = (
(855,480,l),
(827,520,l),
(685,520,l),
(646,515,l),
(651,423,l),
(781,377,l)
);
}
);
width = 888;
},
{
anchors = (
{
name = bottom;
pos = (465,0);
},
{
name = top;
pos = (465,541);
}
);
guides = (
{
pos = (868,224);
showMeasurement = 1;
}
);
layerId = m002;
shapes = (
{
closed = 1;
nodes = (
(382,0,l),
(392,31,l),
(247,61,l),
(121,487,l),
(84,520,l),
(34,434,l),
(89,385,l),
(160,26,l),
(200,1,l)
);
},
{
closed = 1;
nodes = (
(271,464,l),
(278,515,l),
(260,520,l),
(84,520,l),
(121,406,l)
);
},
{
closed = 1;
nodes = (
(392,31,l),
(486,413,l),
(536,441,l),
(501,507,l),
(418,502,l),
(390,331,l),
(334,56,l),
(321,15,l)
);
},
{
closed = 1;
nodes = (
(766,0,l),
(781,36,l),
(688,74,l),
(552,487,l),
(501,507,l),
(586,150,l),
(637,0,l)
);
},
{
closed = 1;
nodes = (
(781,36,l),
(868,386,l),
(893,480,l),
(849,520,l),
(809,519,l),
(750,290,l),
(740,61,l),
(668,8,l)
);
},
{
closed = 1;
nodes = (
(893,480,l),
(865,520,l),
(757,520,l),
(739,515,l),
(746,464,l),
(846,406,l)
);
}
);
width = 898;
}
);
metricLeft = v;
metricRight = v;
unicode = 119;
},
{
glyphname = x;
kernLeft = a;
lastChange = "2024-06-24 11:25:56 +0000";
layers = (
{
guides = (
{
angle = 90;
pos = (480,337);
}
);
layerId = m01;
shapes = (
{
closed = 1;
nodes = (
(460,0,l),
(480,93,l),
(318,278,l),
(404,360,l),
(480,394,l),
(484,487,l),
(463,520,l),
(369,520,l),
(311,500,l),
(311,438,l),
(328,415,l),
(262,349,l),
(187,431,l),
(208,474,l),
(183,520,l),
(28,520,l),
(18,477,l),
(35,356,l),
(151,229,l),
(76,157,l),
(18,121,l),
(18,31,l),
(56,0,l),
(183,0,l),
(187,84,l),
(170,102,l),
(210,164,l),
(282,84,l),
(279,31,l),
(310,0,l)
);
}
);
width = 501;
},
{
guides = (
{
angle = 42.4256;
pos = (328,520);
showMeasurement = 1;
}
);
layerId = m002;
shapes = (
{
closed = 1;
nodes = (
(468,0,l),
(462,53,l),
(292,265,l),
(362,344,l),
(426,416,l),
(489,487,l),
(468,520,l),
(374,520,l),
(351,459,l),
(335,436,l),
(315,409,l),
(242,310,l),
(146,434,l),
(167,477,l),
(147,520,l),
(49,520,l),
(31,484,l),
(101,400,l),
(213,269,l),
(104,119,l),
(24,87,l),
(23,31,l),
(61,0,l),
(134,0,l),
(141,53,l),
(169,93,l),
(261,224,l),
(355,109,l),
(338,35,l),
(362,0,l)
);
}
);
width = 526;
}
);
metricLeft = a;
metricRight = a;
unicode = 120;
},
{
glyphname = y;
kernLeft = v;
kernRight = v;
lastChange = "2024-07-01 16:58:42 +0000";
layers = (
{
anchors = (
{
name = bottom;
pos = (291,0);
},
{
name = top;
pos = (321,520);
}
);
layerId = m01;
shapes = (
{
closed = 1;
nodes = (
(359,-19,l),
(195,485,l),
(65,520,l),
(29,434,l),
(94,343,l),
(155,26,l),
(271,-17,l)
);
},
{
closed = 1;
nodes = (
(273,-225,l),
(395,-102,l),
(436,36,l),
(339,93,l),
(277,50,l),
(273,-142,l),
(151,-76,l),
(74,-154,l),
(127,-243,l)
);
},
{
closed = 1;
nodes = (
(279,395,l),
(286,491,l),
(191,520,l),
(65,520,l),
(94,343,l)
);
},
{
closed = 1;
nodes = (
(436,36,l),
(523,386,l),
(551,487,l),
(476,520,l),
(385,520,l),
(331,290,l),
(321,61,l),
(323,8,l)
);
}
);
width = 551;
},
{
anchors = (
{
name = bottom;
pos = (296,0);
},
{
name = top;
pos = (326,520);
}
);
guides = (
{
pos = (704,271);
showMeasurement = 1;
}
);
layerId = m002;
shapes = (
{
closed = 1;
nodes = (
(289,-19,l),
(125,485,l),
(70,520,l),
(34,434,l),
(99,343,l),
(185,69,l),
(204,9,l)
);
},
{
closed = 1;
nodes = (
(278,-225,l),
(400,-102,l),
(441,36,l),
(204,9,l),
(338,-50,l),
(257,-182,l),
(132,-128,l),
(79,-154,l),
(132,-243,l)
);
},
{
closed = 1;
nodes = (
(217,438,l),
(230,500,l),
(196,520,l),
(70,520,l),
(116,438,l)
);
},
{
closed = 1;
nodes = (
(441,36,l),
(528,386,l),
(556,487,l),
(528,520,l),
(470,520,l),
(430,322,l),
(369,66,l),
(338,-19,l)
);
}
);
width = 561;
}
);
metricLeft = v;
metricRight = v;
unicode = 121;
},
{
glyphname = z;
kernLeft = a;
lastChange = "2024-06-23 13:05:45 +0000";
layers = (
{
anchors = (
{
name = bottom;
pos = (238,0);
},
{
name = center;
pos = (238,260);
},
{
name = top;
pos = (272,533);
}
);
layerId = m01;
shapes = (
{
closed = 1;
nodes = (
(259,175,l),
(459,336,l),
(474,394,l),
(418,410,l),
(303,389,l),
(18,140,l),
(50,24,l),
(186,99,l)
);
},
{
closed = 1;
nodes = (
(412,0,l),
(445,24,l),
(184,118,l),
(41,92,l),
(22,-1,l)
);
},
{
closed = 1;
nodes = (
(482,21,l),
(501,215,l),
(450,224,l),
(387,238,l),
(321,149,l),
(315,8,l)
);
},
{
closed = 1;
nodes = (
(199,375,l),
(217,434,l),
(171,505,l),
(33,498,l),
(22,383,l),
(34,321,l)
);
},
{
closed = 1;
nodes = (
(470,480,l),
(456,519,l),
(264,501,l),
(121,430,l),
(474,394,l)
);
},
{
closed = 1;
nodes = (
(385,473,l),
(456,519,l),
(115,520,l),
(66,452,l)
);
}
);
width = 518;
},
{
anchors = (
{
name = bottom;
pos = (239,0);
},
{
name = center;
pos = (239,260);
},
{
name = top;
pos = (273,533);
}
);
guides = (
{
pos = (567,128);
showMeasurement = 1;
}
);
layerId = m002;
shapes = (
{
closed = 1;
nodes = (
(220,175,l),
(457,366,l),
(473,442,l),
(371,471,l),
(371,403,l),
(39,44,l),
(132,38,l),
(147,99,l)
);
},
{
closed = 1;
nodes = (
(413,0,l),
(446,24,l),
(191,68,l),
(39,44,l),
(23,-1,l)
);
},
{
closed = 1;
nodes = (
(483,21,l),
(502,215,l),
(491,230,l),
(469,238,l),
(403,149,l),
(397,8,l)
);
},
{
closed = 1;
nodes = (
(114,367,l),
(132,426,l),
(86,497,l),
(34,498,l),
(23,383,l),
(35,321,l)
);
},
{
closed = 1;
nodes = (
(471,480,l),
(457,519,l),
(265,501,l),
(239,472,l),
(473,442,l)
);
},
{
closed = 1;
nodes = (
(386,473,l),
(457,519,l),
(89,520,l),
(40,452,l)
);
}
);
width = 539;
}
);
metricLeft = a;
metricRight = a;
unicode = 122;
},
{
glyphname = a.001;
kernLeft = a;
kernRight = ar;
lastChange = "2024-07-05 18:32:11 +0000";
layers = (
{
anchors = (
{
name = bottom;
pos = (312,-2);
},
{
name = ogonek;
pos = (462,8);
},
{
name = top;
pos = (261,546);
}
);
layerId = m01;
shapes = (
{
closed = 1;
nodes = (
(242,0,l),
(316,120,l),
(316,90,l),
(292,46,l),
(316,0,l),
(506,0,l),
(514,95,l),
(457,131,l),
(465,465,l),
(331,531,l),
(248,520,l),
(53,520,l),
(25,339,l),
(81,295,l),
(176,358,l),
(206,427,l),
(286,427,l),
(315,409,l),
(313,301,l),
(197,339,l),
(33,229,l),
(25,112,l),
(85,0,l)
);
},
{
closed = 1;
nodes = (
(153,242,l),
(313,242,l),
(315,160,l),
(292,128,l),
(181,127,l),
(140,206,l)
);
}
);
width = 531;
},
{
anchors = (
{
name = bottom;
pos = (361,-27);
},
{
name = ogonek;
pos = (467,8);
},
{
name = top;
pos = (266,546);
}
);
guides = (
{
orientation = center;
pos = (-304,172);
showMeasurement = 1;
}
);
layerId = m002;
shapes = (
{
closed = 1;
nodes = (
(298,0,l),
(383,120,l),
(383,90,l),
(359,46,l),
(383,0,l),
(506,0,l),
(514,32,l),
(457,68,l),
(457,453,l),
(331,531,l),
(248,520,l),
(71,520,l),
(33,378,l),
(53,361,l),
(106,378,l),
(125,453,l),
(187,486,l),
(382,451,l),
(380,301,l),
(197,339,l),
(33,229,l),
(25,112,l),
(85,0,l)
);
},
{
closed = 1;
nodes = (
(153,276,l),
(380,276,l),
(382,160,l),
(308,70,l),
(113,70,l),
(108,219,l)
);
}
);
width = 541;
}
);
},
{
glyphname = a.002;
kernLeft = a;
kernRight = ar;
lastChange = "2024-07-01 17:00:04 +0000";
layers = (
{
anchors = (
{
name = bottom;
pos = (312,-2);
},
{
name = ogonek;
pos = (462,8);
},
{
name = top;
pos = (261,546);
}
);
layerId = m01;
shapes = (
{
closed = 1;
nodes = (
(247,10,l),
(333,148,l),
(346,169,l),
(261,145,l),
(191,126,l),
(140,182,l),
(152,218,l),
(282,202,l),
(326,198,l),
(346,269,l),
(266,329,l),
(158,278,l),
(33,205,l),
(25,112,l),
(85,0,l)
);
},
{
closed = 1;
nodes = (
(178,330,l),
(205,382,l),
(189,417,l),
(211,444,l),
(230,475,l),
(191,520,l),
(64,520,l),
(18,475,l),
(55,324,l),
(108,292,l)
);
},
{
closed = 1;
nodes = (
(506,0,l),
(514,95,l),
(457,131,l),
(465,475,l),
(381,407,l),
(314,358,l),
(314,286,l),
(313,266,l),
(316,105,l),
(292,46,l),
(316,0,l)
);
},
{
closed = 1;
nodes = (
(465,475,l),
(403,507,l),
(368,525,l),
(247,525,l),
(92,430,l),
(259,402,l),
(368,385,l)
);
}
);
width = 531;
},
{
anchors = (
{
name = bottom;
pos = (361,-27);
},
{
name = ogonek;
pos = (467,8);
},
{
name = top;
pos = (266,546);
}
);
guides = (
{
orientation = center;
pos = (-364,365);
showMeasurement = 1;
}
);
layerId = m002;
shapes = (
{
closed = 1;
nodes = (
(252,10,l),
(350,77,l),
(406,167,l),
(190,49,l),
(138,79,l),
(76,115,l),
(102,204,l),
(228,280,l),
(390,257,l),
(415,292,l),
(271,352,l),
(163,301,l),
(38,228,l),
(30,112,l),
(90,0,l)
);
},
{
closed = 1;
nodes = (
(105,354,l),
(133,409,l),
(117,473,l),
(216,460,l),
(265,489,l),
(196,520,l),
(69,520,l),
(23,475,l),
(63,343,l),
(82,348,l)
);
},
{
closed = 1;
nodes = (
(503,0,l),
(504,50,l),
(462,86,l),
(470,475,l),
(326,486,l),
(390,463,l),
(383,286,l),
(382,266,l),
(385,47,l),
(367,27,l),
(367,0,l)
);
},
{
closed = 1;
nodes = (
(470,475,l),
(415,501,l),
(357,528,l),
(192,506,l),
(170,495,l),
(216,460,l),
(371,443,l)
);
}
);
width = 541;
}
);
},
{
glyphname = s.001;
kernLeft = s;
kernRight = s;
lastChange = "2024-07-05 18:05:15 +0000";
layers = (
{
anchors = (
{
name = bottom;
pos = (276,35);
},
{
name = top;
pos = (230,538);
}
);
layerId = m01;
shapes = (
{
closed = 1;
nodes = (
(129,216,l),
(222,244,l),
(288,266,l),
(288,51,l),
(245,51,l),
(160,169,l),
(22,142,l),
(25,10,l),
(62,0,l),
(380,0,l),
(453,126,l),
(453,244,l),
(371,312,l),
(306,292,l),
(190,260,l),
(188,446,l),
(242,463,l),
(280,421,l),
(280,343,l),
(415,328,l),
(462,377,l),
(432,520,l),
(245,525,l),
(75,520,l),
(22,479,l),
(22,250,l)
);
}
);
width = 479;
},
{
anchors = (
{
name = bottom;
pos = (256,9);
},
{
name = top;
pos = (235,538);
}
);
guides = (
{
pos = (495,353);
showMeasurement = 1;
},
{
angle = 90;
pos = (27,212);
}
);
layerId = m002;
shapes = (
{
closed = 1;
nodes = (
(59,258,l),
(322,265,l),
(378,238,l),
(378,44,l),
(179,51,l),
(94,122,l),
(31,95,l),
(30,10,l),
(118,3,l),
(225,0,l),
(365,9,l),
(458,41,l),
(458,277,l),
(414,314,l),
(115,292,l),
(115,440,l),
(286,465,l),
(382,462,l),
(392,402,l),
(437,388,l),
(484,437,l),
(467,510,l),
(290,520,l),
(80,510,l),
(27,469,l),
(39,276,l)
);
}
);
width = 489;
}
);
metricLeft = c;
},
{
glyphname = g.ss01;
kernLeft = c;
lastChange = "2024-05-29 09:58:23 +0000";
layers = (
{
anchors = (
{
name = bottom;
pos = (269,-240);
},
{
name = top;
pos = (298,552);
}
);
layerId = m01;
shapes = (
{
closed = 1;
nodes = (
(179,38,l),
(225,112,l),
(191,374,l),
(149,412,l),
(155,469,l),
(105,452,l),
(43,354,l),
(48,222,l),
(68,26,l)
);
},
{
closed = 1;
nodes = (
(381,-241,l),
(348,-84,l),
(177,-140,l),
(193,-63,l),
(142,-34,l),
(81,-36,l),
(20,-74,l),
(93,-155,l),
(204,-253,l)
);
},
{
closed = 1;
nodes = (
(352,38,l),
(413,18,l),
(403,91,l),
(377,148,l),
(97,121,l),
(132,-2,l)
);
},
{
closed = 1;
nodes = (
(484,-80,l),
(427,188,l),
(359,112,l),
(309,108,l),
(346,-52,l),
(329,-117,l),
(279,-131,l),
(304,-170,l),
(337,-220,l),
(463,-225,l)
);
},
{
closed = 1;
nodes = (
(474,334,l),
(456,504,l),
(407,529,l),
(322,515,l),
(319,318,l),
(298,192,l),
(352,136,l),
(413,18,l)
);
},
{
closed = 1;
nodes = (
(407,428,l),
(407,529,l),
(199,524,l),
(96,504,l),
(44,417,l),
(165,397,l)
);
},
{
closed = 1;
nodes = (
(506,365,l),
(542,433,l),
(543,527,l),
(389,507,l),
(392,465,l),
(440,354,l)
);
}
);
width = 548;
},
{
anchors = (
{
name = bottom;
pos = (274,-240);
},
{
name = top;
pos = (303,552);
}
);
guides = (
{
pos = (647,258);
showMeasurement = 1;
}
);
layerId = m002;
shapes = (
{
closed = 1;
nodes = (
(184,38,l),
(129,122,l),
(145,405,l),
(104,452,l),
(160,509,l),
(110,492,l),
(48,354,l),
(53,222,l),
(73,26,l)
);
},
{
closed = 1;
nodes = (
(386,-241,l),
(398,-155,l),
(182,-197,l),
(162,-70,l),
(111,-41,l),
(97,-43,l),
(36,-81,l),
(98,-141,l),
(209,-239,l)
);
},
{
closed = 1;
nodes = (
(402,38,l),
(418,18,l),
(408,44,l),
(432,101,l),
(102,74,l),
(137,-2,l)
);
},
{
closed = 1;
nodes = (
(489,-80,l),
(432,188,l),
(414,65,l),
(409,61,l),
(396,-52,l),
(379,-188,l),
(284,-202,l),
(309,-208,l),
(342,-220,l),
(468,-225,l)
);
},
{
closed = 1;
nodes = (
(479,334,l),
(461,495,l),
(412,520,l),
(388,506,l),
(404,318,l),
(372,192,l),
(407,89,l),
(418,18,l)
);
},
{
closed = 1;
nodes = (
(412,459,l),
(412,520,l),
(145,520,l),
(101,504,l),
(49,457,l),
(120,437,l)
);
},
{
closed = 1;
nodes = (
(511,413,l),
(547,466,l),
(540,520,l),
(458,520,l),
(418,480,l),
(445,402,l)
);
}
);
width = 558;
}
);
},
{
glyphname = h.ss01;
kernLeft = h;
kernRight = n;
lastChange = "2024-07-01 17:01:32 +0000";
layers = (
{
anchors = (
{
name = bottom;
pos = (265,0);
},
{
name = center;
pos = (128,571);
},
{
name = top;
pos = (131,699);
}
);
layerId = m01;
shapes = (
{
closed = 1;
nodes = (
(277,0,l),
(280,88,l),
(222,124,l),
(227,520,l),
(229,606,l),
(96,658,l),
(52,596,l),
(59,105,l),
(35,45,l),
(59,0,l)
);
},
{
closed = 1;
nodes = (
(365,-87,l),
(479,-29,l),
(487,60,l),
(479,388,l),
(500,508,l),
(376,528,l),
(295,521,l),
(223,413,l),
(222,379,l),
(296,424,l),
(320,414,l),
(325,258,l),
(332,29,l),
(332,-48,l)
);
},
{
closed = 1;
nodes = (
(229,606,l),
(229,683,l),
(118,713,l),
(32,686,l),
(15,595,l),
(90,584,l)
);
}
);
width = 524;
},
{
anchors = (
{
name = bottom;
pos = (269,0);
},
{
name = center;
pos = (132,571);
},
{
name = top;
pos = (135,699);
}
);
guides = (
{
pos = (610,583);
showMeasurement = 1;
},
{
pos = (310,239);
showMeasurement = 1;
}
);
layerId = m002;
shapes = (
{
closed = 1;
nodes = (
(168,0,l),
(181,63,l),
(149,99,l),
(147,517,l),
(147,650,l),
(100,658,l),
(56,640,l),
(63,80,l),
(39,20,l),
(63,0,l)
);
},
{
closed = 1;
nodes = (
(449,-87,l),
(477,-29,l),
(491,60,l),
(483,388,l),
(504,508,l),
(380,528,l),
(299,521,l),
(126,413,l),
(125,379,l),
(297,457,l),
(402,447,l),
(410,258,l),
(417,29,l),
(409,-69,l)
);
},
{
closed = 1;
nodes = (
(147,650,l),
(147,683,l),
(120,713,l),
(36,686,l),
(19,639,l),
(94,628,l)
);
}
);
width = 533;
}
);
metricLeft = h;
metricRight = n;
},
{
glyphname = o.ss01;
kernLeft = c;
kernRight = o;
lastChange = "2024-07-01 17:41:33 +0000";
layers = (
{
anchors = (
{
name = bottom;
pos = (231,0);
},
{
name = center;
pos = (207,260);
},
{
name = ogonek;
pos = (401,8);
},
{
name = top;
pos = (255,546);
},
{
name = topright;
pos = (433,520);
}
);
layerId = m01;
shapes = (
{
closed = 1;
nodes = (
(135,43,l),
(181,86,l),
(181,370,l),
(128,397,l),
(109,473,l),
(77,467,l),
(22,440,l),
(22,316,l),
(22,59,l),
(47,33,l)
);
},
{
closed = 1;
nodes = (
(466,116,l),
(475,383,l),
(441,489,l),
(394,524,l),
(324,476,l),
(325,147,l),
(338,121,l),
(151,121,l),
(47,33,l),
(107,-1,l),
(350,0,l)
);
},
{
closed = 1;
nodes = (
(114,401,l),
(378,401,l),
(394,524,l),
(143,524,l),
(39,467,l),
(22,440,l),
(42,397,l)
);
}
);
width = 529;
},
{
anchors = (
{
name = bottom;
pos = (230,0);
},
{
name = center;
pos = (230,260);
},
{
name = ogonek;
pos = (424,8);
},
{
name = top;
pos = (264,549);
},
{
name = topright;
pos = (456,520);
}
);
guides = (
{
pos = (284,251);
showMeasurement = 1;
},
{
angle = -89.1;
pos = (313,145);
showMeasurement = 1;
}
);
layerId = m002;
shapes = (
{
closed = 1;
nodes = (
(155,23,l),
(125,87,l),
(116,400,l),
(107,411,l),
(124,471,l),
(89,454,l),
(27,357,l),
(34,318,l),
(60,41,l),
(85,15,l)
);
},
{
closed = 1;
nodes = (
(462,109,l),
(490,378,l),
(473,485,l),
(426,520,l),
(403,509,l),
(393,110,l),
(367,72,l),
(175,72,l),
(85,15,l),
(145,-1,l),
(394,0,l)
);
},
{
closed = 1;
nodes = (
(148,455,l),
(426,467,l),
(426,520,l),
(166,520,l),
(80,506,l),
(27,357,l),
(106,345,l)
);
}
);
width = 531;
}
);
metricLeft = c;
metricRight = b;
},
{
glyphname = s.ss01;
kernLeft = s;
kernRight = s;
lastChange = "2024-05-29 15:10:11 +0000";
layers = (
{
anchors = (
{
name = bottom;
pos = (249,35);
},
{
name = top;
pos = (219,538);
}
);
layerId = m01;
shapes = (
{
closed = 1;
nodes = (
(124,204,l),
(184,247,l),
(181,457,l),
(184,528,l),
(22,482,l),
(23,204,l)
);
},
{
closed = 1;
nodes = (
(407,69,l),
(272,69,l),
(152,185,l),
(38,114,l),
(90,2,l),
(320,0,l)
);
},
{
closed = 1;
nodes = (
(427,277,l),
(345,342,l),
(26,268,l),
(28,262,l),
(311,225,l)
);
},
{
closed = 1;
nodes = (
(411,21,l),
(427,277,l),
(302,319,l),
(273,47,l)
);
},
{
closed = 1;
nodes = (
(406,398,l),
(453,447,l),
(436,520,l),
(259,530,l),
(75,523,l),
(43,472,l),
(125,412,l),
(272,426,l),
(303,361,l)
);
}
);
width = 453;
},
{
anchors = (
{
name = bottom;
pos = (254,35);
},
{
name = top;
pos = (224,538);
}
);
guides = (
{
pos = (575,398);
showMeasurement = 1;
}
);
layerId = m002;
shapes = (
{
closed = 1;
nodes = (
(80,208,l),
(111,243,l),
(108,453,l),
(189,528,l),
(27,482,l),
(28,204,l)
);
},
{
closed = 1;
nodes = (
(412,69,l),
(206,42,l),
(86,158,l),
(43,114,l),
(95,2,l),
(325,0,l)
);
},
{
closed = 1;
nodes = (
(432,277,l),
(350,342,l),
(31,268,l),
(33,262,l),
(314,272,l)
);
},
{
closed = 1;
nodes = (
(416,21,l),
(432,277,l),
(361,317,l),
(332,45,l)
);
},
{
closed = 1;
nodes = (
(390,389,l),
(458,447,l),
(441,520,l),
(264,530,l),
(80,523,l),
(71,491,l),
(156,462,l),
(322,483,l),
(361,398,l)
);
}
);
width = 463;
}
);
metricLeft = s;
metricRight = s;
},
{
glyphname = ordfeminine;
lastChange = "2024-06-10 18:56:12 +0000";
layers = (
{
layerId = m01;
shapes = (
{
pos = (0,179);
ref = a;
},
{
closed = 1;
nodes = (
(471,39,l),
(471,104,l),
(431,126,l),
(121,126,l),
(87,100,l),
(80,17,l),
(96,0,l),
(454,0,l)
);
}
);
width = 531;
},
{
layerId = m002;
shapes = (
{
pos = (0,181);
ref = a;
},
{
closed = 1;
nodes = (
(458,17,l),
(459,55,l),
(419,77,l),
(116,77,l),
(82,51,l),
(75,17,l),
(91,0,l),
(442,0,l)
);
}
);
width = 541;
}
);
unicode = 170;
},
{
glyphname = ordmasculine;
lastChange = "2024-06-10 18:52:55 +0000";
layers = (
{
layerId = m01;
shapes = (
{
pos = (-2,180);
ref = o;
},
{
closed = 1;
nodes = (
(398,39,l),
(398,104,l),
(358,126,l),
(121,126,l),
(87,100,l),
(80,17,l),
(96,0,l),
(381,0,l)
);
}
);
width = 495;
},
{
layerId = m002;
shapes = (
{
pos = (-7,179);
ref = o;
},
{
closed = 1;
nodes = (
(392,17,l),
(393,55,l),
(353,77,l),
(116,77,l),
(82,51,l),
(75,17,l),
(91,0,l),
(376,0,l)
);
}
);
width = 503;
}
);
unicode = 186;
},
{
glyphname = zero;
lastChange = "2024-06-18 17:10:03 +0000";
layers = (
{
layerId = m01;
shapes = (
{
closed = 1;
nodes = (
(350,0,l),
(520,140,l),
(520,558,l),
(516,607,l),
(439,699,l),
(304,699,l),
(242,676,l),
(187,699,l),
(22,611,l),
(21,583,l),
(20,495,l),
(20,151,l),
(159,0,l)
);
},
{
closed = 1;
nodes = (
(196,573,l),
(327,576,l),
(363,541,l),
(362,254,l),
(362,132,l),
(239,133,l),
(196,174,l)
);
}
);
width = 540;
},
{
guides = (
{
pos = (-47,326);
showMeasurement = 1;
}
);
layerId = m002;
shapes = (
{
closed = 1;
nodes = (
(455,0,l),
(520,140,l),
(520,558,l),
(516,607,l),
(439,699,l),
(304,699,l),
(242,676,l),
(187,699,l),
(22,611,l),
(21,583,l),
(20,495,l),
(20,151,l),
(100,0,l)
);
},
{
closed = 1;
nodes = (
(100,631,l),
(405,634,l),
(441,599,l),
(440,254,l),
(440,59,l),
(143,60,l),
(100,101,l)
);
}
);
width = 540;
}
);
unicode = 48;
},
{
glyphname = one;
lastChange = "2024-06-12 16:56:34 +0000";
layers = (
{
layerId = m01;
shapes = (
{
closed = 1;
nodes = (
(225,0,l),
(245,67,l),
(259,532,l),
(263,661,l),
(102,596,l),
(107,30,l)
);
},
{
closed = 1;
nodes = (
(291,0,l),
(307,110,l),
(244,167,l),
(70,134,l),
(49,77,l),
(76,2,l)
);
},
{
closed = 1;
nodes = (
(259,532,l),
(267,686,l),
(210,706,l),
(49,646,l),
(20,569,l),
(27,528,l)
);
}
);
width = 327;
},
{
guides = (
{
pos = (359,284);
showMeasurement = 1;
}
);
layerId = m002;
shapes = (
{
closed = 1;
nodes = (
(245,0,l),
(244,67,l),
(258,602,l),
(262,661,l),
(180,604,l),
(170,30,l)
);
},
{
closed = 1;
nodes = (
(311,0,l),
(327,39,l),
(236,96,l),
(90,63,l),
(79,15,l),
(96,2,l)
);
},
{
closed = 1;
nodes = (
(258,602,l),
(266,686,l),
(198,715,l),
(69,646,l),
(40,633,l),
(47,598,l)
);
}
);
width = 355;
}
);
unicode = 49;
},
{
glyphname = two;
lastChange = "2024-06-23 19:29:59 +0000";
layers = (
{
layerId = m01;
shapes = (
{
closed = 1;
nodes = (
(200,57,l),
(98,128,l),
(192,149,l),
(207,199,l),
(517,389,l),
(523,592,l),
(443,670,l),
(344,444,l),
(48,245,l),
(39,161,l),
(37,0,l)
);
},
{
closed = 1;
nodes = (
(449,2,l),
(500,38,l),
(332,97,l),
(170,121,l),
(86,135,l),
(57,103,l),
(37,0,l)
);
},
{
closed = 1;
nodes = (
(161,401,l),
(242,418,l),
(204,529,l),
(277,670,l),
(124,687,l),
(48,613,l),
(40,556,l),
(57,442,l)
);
},
{
closed = 1;
nodes = (
(500,38,l),
(520,230,l),
(469,239,l),
(416,239,l),
(306,168,l),
(333,23,l)
);
},
{
closed = 1;
nodes = (
(401,638,l),
(282,700,l),
(124,687,l),
(112,625,l)
);
},
{
closed = 1;
nodes = (
(517,652,l),
(434,700,l),
(282,700,l),
(142,575,l),
(523,575,l)
);
}
);
width = 543;
},
{
guides = (
{
pos = (671,133);
showMeasurement = 1;
}
);
layerId = m002;
shapes = (
{
closed = 1;
nodes = (
(133,57,l),
(114,82,l),
(153,90,l),
(167,204,l),
(540,366,l),
(536,617,l),
(495,634,l),
(466,408,l),
(75,225,l),
(66,107,l),
(64,0,l)
);
},
{
closed = 1;
nodes = (
(476,2,l),
(527,38,l),
(347,54,l),
(112,73,l),
(104,101,l),
(84,49,l),
(64,0,l)
);
},
{
closed = 1;
nodes = (
(109,385,l),
(167,430,l),
(104,510,l),
(210,687,l),
(120,637,l),
(75,613,l),
(67,556,l),
(47,386,l)
);
},
{
closed = 1;
nodes = (
(527,38,l),
(547,230,l),
(535,239,l),
(524,239,l),
(414,168,l),
(441,23,l)
);
},
{
closed = 1;
nodes = (
(428,638,l),
(309,705,l),
(151,690,l),
(139,625,l)
);
},
{
closed = 1;
nodes = (
(530,652,l),
(476,703,l),
(309,705,l),
(139,640,l),
(536,617,l)
);
}
);
width = 570;
}
);
unicode = 50;
},
{
glyphname = three;
lastChange = "2024-06-12 17:12:03 +0000";
layers = (
{
layerId = m01;
shapes = (
{
closed = 1;
nodes = (
(419,361,l),
(553,551,l),
(483,693,l),
(388,700,l),
(200,657,l),
(222,634,l),
(339,564,l),
(337,301,l)
);
},
{
closed = 1;
nodes = (
(183,94,l),
(244,177,l),
(178,242,l),
(136,266,l),
(48,260,l),
(54,64,l)
);
},
{
closed = 1;
nodes = (
(253,28,l),
(333,0,l),
(483,0,l),
(160,150,l),
(54,64,l),
(136,0,l)
);
},
{
closed = 1;
nodes = (
(532,262,l),
(419,361,l),
(337,301,l),
(339,49,l),
(483,0,l)
);
},
{
closed = 1;
nodes = (
(349,447,l),
(242,384,l),
(226,326,l),
(337,301,l)
);
},
{
closed = 1;
nodes = (
(210,472,l),
(262,640,l),
(390,573,l),
(388,700,l),
(128,700,l),
(20,517,l),
(36,450,l)
);
}
);
width = 573;
},
{
guides = (
{
pos = (703,483);
showMeasurement = 1;
}
);
layerId = m002;
shapes = (
{
closed = 1;
nodes = (
(452,361,l),
(568,551,l),
(498,693,l),
(403,700,l),
(132,657,l),
(154,634,l),
(465,635,l),
(367,296,l)
);
},
{
closed = 1;
nodes = (
(156,19,l),
(200,177,l),
(134,242,l),
(109,266,l),
(81,260,l),
(87,64,l)
);
},
{
closed = 1;
nodes = (
(229,22,l),
(485,0,l),
(478,51,l),
(133,75,l),
(87,64,l),
(169,0,l)
);
},
{
closed = 1;
nodes = (
(565,262,l),
(407,405,l),
(475,243,l),
(409,14,l),
(485,0,l)
);
},
{
closed = 1;
nodes = (
(423,413,l),
(279,409,l),
(263,390,l),
(367,296,l)
);
},
{
closed = 1;
nodes = (
(142,472,l),
(173,647,l),
(476,626,l),
(403,700,l),
(143,700,l),
(35,517,l),
(51,450,l)
);
}
);
width = 573;
}
);
unicode = 51;
},
{
glyphname = four;
lastChange = "2024-06-18 17:06:41 +0000";
layers = (
{
layerId = m01;
shapes = (
{
closed = 1;
nodes = (
(496,117,l),
(530,206,l),
(517,270,l),
(150,218,l),
(177,267,l),
(472,655,l),
(409,700,l),
(334,700,l),
(30,306,l),
(76,117,l)
);
},
{
closed = 1;
nodes = (
(409,700,l),
(345,590,l),
(302,144,l),
(282,56,l),
(327,0,l),
(457,0,l),
(475,500,l),
(495,679,l)
);
}
);
width = 550;
},
{
guides = (
{
pos = (588,363);
showMeasurement = 1;
}
);
layerId = m002;
shapes = (
{
closed = 1;
nodes = (
(487,117,l),
(510,122,l),
(497,186,l),
(101,178,l),
(110,282,l),
(405,670,l),
(400,700,l),
(325,700,l),
(21,306,l),
(67,117,l)
);
},
{
closed = 1;
nodes = (
(400,700,l),
(395,625,l),
(369,144,l),
(339,56,l),
(384,0,l),
(448,0,l),
(466,500,l),
(486,679,l)
);
}
);
width = 523;
}
);
unicode = 52;
},
{
glyphname = five;
lastChange = "2024-06-18 17:05:10 +0000";
layers = (
{
layerId = m01;
shapes = (
{
closed = 1;
nodes = (
(342,291,l),
(479,200,l),
(480,285,l),
(473,414,l),
(390,456,l),
(52,412,l),
(26,336,l),
(43,277,l)
);
},
{
closed = 1;
nodes = (
(308,0,l),
(436,0,l),
(399,124,l),
(189,124,l),
(160,194,l),
(66,176,l),
(20,22,l),
(121,0,l)
);
},
{
closed = 1;
nodes = (
(527,277,l),
(473,414,l),
(398,315,l),
(379,68,l),
(436,0,l)
);
},
{
closed = 1;
nodes = (
(164,424,l),
(171,531,l),
(352,670,l),
(285,700,l),
(52,670,l),
(52,350,l)
);
},
{
closed = 1;
nodes = (
(363,557,l),
(414,508,l),
(526,536,l),
(548,582,l),
(495,700,l),
(271,683,l),
(155,555,l)
);
}
);
width = 568;
},
{
guides = (
{
pos = (683,210);
showMeasurement = 1;
}
);
layerId = m002;
shapes = (
{
closed = 1;
nodes = (
(398,382,l),
(474,261,l),
(474,307,l),
(514,383,l),
(429,456,l),
(91,371,l),
(79,346,l),
(92,326,l)
);
},
{
closed = 1;
nodes = (
(347,0,l),
(491,21,l),
(482,75,l),
(166,75,l),
(138,194,l),
(105,176,l),
(59,22,l),
(160,0,l)
);
},
{
closed = 1;
nodes = (
(566,277,l),
(514,383,l),
(459,337,l),
(472,42,l),
(491,21,l)
);
},
{
closed = 1;
nodes = (
(166,383,l),
(181,631,l),
(233,663,l),
(324,700,l),
(100,700,l),
(91,371,l)
);
},
{
closed = 1;
nodes = (
(491,643,l),
(490,513,l),
(565,536,l),
(587,582,l),
(534,700,l),
(324,700,l),
(166,654,l)
);
}
);
width = 592;
}
);
unicode = 53;
},
{
glyphname = six;
lastChange = "2024-06-18 17:07:00 +0000";
layers = (
{
layerId = m01;
shapes = (
{
closed = 1;
nodes = (
(184,0,l),
(188,550,l),
(228,570,l),
(316,569,l),
(353,508,l),
(479,489,l),
(510,636,l),
(442,693,l),
(295,703,l),
(142,685,l),
(25,503,l),
(20,136,l),
(91,0,l)
);
},
{
closed = 1;
nodes = (
(329,0,l),
(453,41,l),
(344,68,l),
(72,126,l),
(77,57,l),
(123,0,l)
);
},
{
closed = 1;
nodes = (
(172,316,l),
(241,382,l),
(348,346,l),
(352,298,l),
(516,262,l),
(472,378,l),
(402,441,l),
(249,462,l),
(207,417,l),
(157,358,l)
);
},
{
closed = 1;
nodes = (
(516,262,l),
(446,391,l),
(348,368,l),
(329,61,l),
(453,41,l)
);
}
);
width = 552;
},
{
guides = (
{
pos = (708,210);
showMeasurement = 1;
}
);
layerId = m002;
shapes = (
{
closed = 1;
nodes = (
(143,0,l),
(147,550,l),
(202,656,l),
(419,652,l),
(456,511,l),
(497,492,l),
(528,639,l),
(460,696,l),
(339,706,l),
(143,693,l),
(66,503,l),
(61,136,l),
(132,0,l)
);
},
{
closed = 1;
nodes = (
(370,0,l),
(494,41,l),
(479,51,l),
(133,76,l),
(118,57,l),
(139,0,l)
);
},
{
closed = 1;
nodes = (
(178,359,l),
(240,391,l),
(469,346,l),
(473,298,l),
(557,262,l),
(513,378,l),
(443,441,l),
(276,470,l),
(126,378,l),
(113,325,l)
);
},
{
closed = 1;
nodes = (
(557,262,l),
(487,391,l),
(469,368,l),
(464,44,l),
(494,41,l)
);
}
);
width = 578;
}
);
unicode = 54;
},
{
glyphname = seven;
lastChange = "2024-07-01 17:36:10 +0000";
layers = (
{
layerId = m01;
shapes = (
{
closed = 1;
nodes = (
(280,1,l),
(314,27,l),
(494,574,l),
(432,700,l),
(207,676,l),
(179,584,l),
(343,584,l),
(130,0,l)
);
},
{
closed = 1;
nodes = (
(168,470,l),
(224,611,l),
(291,668,l),
(256,700,l),
(20,700,l),
(36,481,l)
);
},
{
closed = 1;
nodes = (
(453,371,l),
(158,362,l),
(108,254,l),
(128,219,l),
(417,222,l),
(454,271,l),
(472,362,l)
);
}
);
width = 514;
},
{
guides = (
{
angle = 180;
pos = (589,132);
showMeasurement = 1;
}
);
layerId = m002;
shapes = (
{
closed = 1;
nodes = (
(198,1,l),
(232,27,l),
(509,574,l),
(447,700,l),
(130,676,l),
(116,623,l),
(454,623,l),
(130,0,l)
);
},
{
closed = 1;
nodes = (
(97,556,l),
(161,650,l),
(295,668,l),
(271,700,l),
(35,700,l),
(57,567,l)
);
},
{
closed = 1;
nodes = (
(425,371,l),
(166,368,l),
(146,329,l),
(159,300,l),
(412,297,l),
(440,331,l),
(444,362,l)
);
}
);
width = 521;
}
);
unicode = 55;
},
{
glyphname = eight;
lastChange = "2024-06-12 16:39:44 +0000";
layers = (
{
layerId = m01;
shapes = (
{
closed = 1;
nodes = (
(499,97,l),
(202,109,l),
(205,298,l),
(344,343,l),
(208,402,l),
(20,298,l),
(38,110,l),
(112,1,l),
(445,0,l)
);
},
{
closed = 1;
nodes = (
(126,442,l),
(184,452,l),
(186,650,l),
(49,662,l),
(20,454,l),
(111,373,l)
);
},
{
closed = 1;
nodes = (
(501,361,l),
(118,450,l),
(111,373,l),
(431,291,l)
);
},
{
closed = 1;
nodes = (
(571,232,l),
(501,361,l),
(394,326,l),
(394,31,l),
(517,11,l)
);
},
{
closed = 1;
nodes = (
(536,423,l),
(552,582,l),
(489,700,l),
(126,700,l),
(103,566,l),
(368,575,l),
(396,566,l),
(396,438,l),
(243,400,l),
(353,359,l)
);
}
);
width = 591;
},
{
guides = (
{
pos = (808,520);
showMeasurement = 1;
},
{
pos = (885,452);
}
);
layerId = m002;
shapes = (
{
closed = 1;
nodes = (
(530,49,l),
(126,61,l),
(124,273,l),
(354,361,l),
(257,386,l),
(40,298,l),
(47,110,l),
(121,1,l),
(476,0,l)
);
},
{
closed = 1;
nodes = (
(179,394,l),
(133,452,l),
(145,650,l),
(79,662,l),
(40,454,l),
(131,373,l)
);
},
{
closed = 1;
nodes = (
(521,361,l),
(134,426,l),
(131,373,l),
(516,286,l)
);
},
{
closed = 1;
nodes = (
(591,232,l),
(521,361,l),
(492,299,l),
(481,31,l),
(526,11,l)
);
},
{
closed = 1;
nodes = (
(556,423,l),
(582,582,l),
(519,700,l),
(116,700,l),
(93,630,l),
(453,639,l),
(499,606,l),
(485,452,l),
(292,396,l),
(389,373,l)
);
}
);
width = 602;
}
);
unicode = 56;
},
{
glyphname = nine;
lastChange = "2024-06-18 17:06:57 +0000";
layers = (
{
layerId = m01;
shapes = (
{
closed = 1;
nodes = (
(320,0,l),
(337,121,l),
(265,134,l),
(190,145,l),
(148,198,l),
(40,170,l),
(20,125,l),
(78,0,l)
);
},
{
closed = 1;
nodes = (
(192,358,l),
(167,618,l),
(45,654,l),
(20,408,l),
(89,279,l)
);
},
{
closed = 1;
nodes = (
(291,271,l),
(369,403,l),
(409,441,l),
(383,479,l),
(261,382,l),
(76,365,l),
(45,298,l),
(128,240,l)
);
},
{
closed = 1;
nodes = (
(455,652,l),
(377,708,l),
(144,680,l),
(45,654,l),
(156,608,l),
(405,554,l)
);
},
{
closed = 1;
nodes = (
(452,691,l),
(347,678,l),
(341,253,l),
(337,121,l),
(167,50,l),
(320,0,l),
(475,125,l),
(486,197,l),
(505,658,l)
);
}
);
width = 525;
},
{
guides = (
{
pos = (676,507);
showMeasurement = 1;
}
);
layerId = m002;
shapes = (
{
closed = 1;
nodes = (
(312,0,l),
(324,57,l),
(192,92,l),
(109,114,l),
(78,179,l),
(43,170,l),
(23,125,l),
(81,0,l)
);
},
{
closed = 1;
nodes = (
(118,328,l),
(111,644,l),
(57,680,l),
(43,367,l),
(59,298,l)
);
},
{
closed = 1;
nodes = (
(334,255,l),
(423,435,l),
(446,461,l),
(420,499,l),
(306,337,l),
(81,336,l),
(59,298,l),
(131,240,l)
);
},
{
closed = 1;
nodes = (
(447,652,l),
(369,708,l),
(156,706,l),
(57,680,l),
(100,634,l),
(416,648,l)
);
},
{
closed = 1;
nodes = (
(444,691,l),
(412,678,l),
(406,253,l),
(402,121,l),
(272,40,l),
(312,0,l),
(467,125,l),
(478,197,l),
(497,658,l)
);
}
);
width = 512;
}
);
unicode = 57;
},
{
glyphname = period;
kernLeft = period;
kernRight = comma;
lastChange = "2024-06-19 10:23:19 +0000";
layers = (
{
layerId = m01;
shapes = (
{
closed = 1;
nodes = (
(202,11,l),
(194,79,l),
(123,169,l),
(21,131,l),
(25,36,l),
(90,-14,l)
);
}
);
width = 214;
},
{
layerId = m002;
shapes = (
{
closed = 1;
nodes = (
(171,15,l),
(166,58,l),
(121,114,l),
(57,90,l),
(59,30,l),
(100,-1,l)
);
}
);
width = 224;
}
);
unicode = 46;
},
{
glyphname = comma;
kernLeft = period;
kernRight = comma_d;
lastChange = "2024-05-29 13:05:19 +0000";
layers = (
{
layerId = m01;
shapes = (
{
closed = 1;
nodes = (
(165,-124,l),
(201,14,l),
(72,44,l),
(92,-50,l),
(61,-61,l),
(26,-161,l),
(106,-206,l)
);
},
{
closed = 1;
nodes = (
(201,14,l),
(206,110,l),
(98,150,l),
(24,57,l),
(16,-12,l),
(133,-38,l)
);
}
);
width = 246;
},
{
layerId = m002;
shapes = (
{
closed = 1;
nodes = (
(148,-57,l),
(170,31,l),
(88,50,l),
(102,-9,l),
(81,-17,l),
(60,-80,l),
(110,-109,l)
);
},
{
closed = 1;
nodes = (
(170,31,l),
(173,89,l),
(108,112,l),
(64,57,l),
(60,16,l),
(129,0,l)
);
}
);
width = 256;
}
);
unicode = 44;
},
{
glyphname = colon;
lastChange = "2024-05-29 13:37:03 +0000";
layers = (
{
layerId = m01;
shapes = (
{
closed = 1;
nodes = (
(201,335,l),
(197,429,l),
(132,480,l),
(20,454,l),
(28,387,l),
(97,297,l)
);
},
{
closed = 1;
nodes = (
(201,25,l),
(193,93,l),
(122,183,l),
(20,145,l),
(24,50,l),
(89,0,l)
);
}
);
width = 301;
},
{
layerId = m002;
shapes = (
{
closed = 1;
nodes = (
(172,430,l),
(170,488,l),
(131,520,l),
(62,503,l),
(67,461,l),
(109,406,l)
);
},
{
closed = 1;
nodes = (
(168,14,l),
(163,53,l),
(121,104,l),
(60,83,l),
(62,29,l),
(101,0,l)
);
}
);
width = 312;
}
);
unicode = 58;
},
{
glyphname = exclam;
lastChange = "2024-06-23 19:15:23 +0000";
layers = (
{
layerId = m01;
shapes = (
{
closed = 1;
nodes = (
(218,245,l),
(262,382,l),
(273,666,l),
(215,710,l),
(98,708,l),
(77,601,l),
(128,242,l),
(179,222,l)
);
},
{
closed = 1;
nodes = (
(282,11,l),
(274,78,l),
(204,168,l),
(101,130,l),
(105,36,l),
(170,-15,l)
);
}
);
width = 318;
},
{
guides = (
{
pos = (371,390);
showMeasurement = 1;
}
);
layerId = m002;
shapes = (
{
closed = 1;
nodes = (
(152,236,l),
(196,373,l),
(180,666,l),
(149,710,l),
(93,706,l),
(82,636,l),
(105,233,l),
(132,213,l)
);
},
{
closed = 1;
nodes = (
(203,17,l),
(198,60,l),
(152,119,l),
(85,94,l),
(88,33,l),
(130,0,l)
);
}
);
width = 244;
}
);
unicode = 33;
},
{
glyphname = question;
lastChange = "2024-06-18 18:00:37 +0000";
layers = (
{
layerId = m01;
shapes = (
{
closed = 1;
nodes = (
(318,286,l),
(314,379,l),
(469,463,l),
(439,732,l),
(184,677,l),
(97,635,l),
(287,647,l),
(303,460,l),
(242,466,l),
(187,335,l),
(202,254,l),
(290,247,l)
);
},
{
closed = 1;
nodes = (
(370,7,l),
(362,75,l),
(291,165,l),
(189,127,l),
(193,32,l),
(258,-18,l)
);
},
{
closed = 1;
nodes = (
(198,470,l),
(234,600,l),
(402,677,l),
(316,747,l),
(90,721,l),
(68,625,l),
(56,441,l),
(159,417,l)
);
}
);
width = 504;
},
{
guides = (
{
pos = (619,344);
showMeasurement = 1;
},
{
angle = 270;
pos = (233,825);
showMeasurement = 1;
}
);
layerId = m002;
shapes = (
{
closed = 1;
nodes = (
(279,273,l),
(275,366,l),
(474,450,l),
(444,719,l),
(125,676,l),
(102,658,l),
(363,670,l),
(379,447,l),
(247,453,l),
(192,322,l),
(207,241,l),
(251,234,l)
);
},
{
closed = 1;
nodes = (
(308,14,l),
(303,59,l),
(255,120,l),
(186,94,l),
(189,30,l),
(233,-3,l)
);
},
{
closed = 1;
nodes = (
(157,560,l),
(175,638,l),
(406,666,l),
(444,719,l),
(95,708,l),
(73,624,l),
(79,531,l),
(107,520,l)
);
}
);
width = 514;
}
);
unicode = 63;
},
{
glyphname = bullet;
lastChange = "2024-05-29 09:58:23 +0000";
layers = (
{
layerId = m01;
shapes = (
{
closed = 1;
nodes = (
(373,300,l),
(329,386,l),
(265,430,l),
(165,368,l),
(178,240,l),
(316,189,l)
);
}
);
width = 534;
},
{
layerId = m002;
shapes = (
{
closed = 1;
nodes = (
(341,306,l),
(312,363,l),
(269,392,l),
(203,351,l),
(211,266,l),
(303,232,l)
);
}
);
width = 544;
}
);
unicode = 8226;
},
{
glyphname = asterisk;
lastChange = "2024-06-18 12:46:22 +0000";
layers = (
{
layerId = m01;
shapes = (
{
closed = 1;
nodes = (
(286,547,l),
(199,572,l),
(207,603,l),
(142,678,l),
(69,630,l),
(106,546,l),
(200,452,l)
);
},
{
closed = 1;
nodes = (
(175,356,l),
(296,409,l),
(240,523,l),
(184,452,l),
(158,471,l),
(66,438,l),
(84,351,l)
);
},
{
closed = 1;
nodes = (
(389,358,l),
(375,490,l),
(250,470,l),
(300,395,l),
(275,377,l),
(278,278,l),
(366,269,l)
);
},
{
closed = 1;
nodes = (
(362,455,l),
(366,543,l),
(262,580,l),
(192,494,l),
(184,431,l),
(297,407,l)
);
},
{
closed = 1;
nodes = (
(318,602,l),
(350,605,l),
(395,692,l),
(325,744,l),
(259,679,l),
(205,558,l),
(324,512,l)
);
},
{
closed = 1;
nodes = (
(525,530,l),
(444,573,l),
(313,589,l),
(304,462,l),
(387,494,l),
(400,465,l),
(496,446,l)
);
}
);
width = 534;
},
{
layerId = m002;
shapes = (
{
closed = 1;
nodes = (
(205,585,l),
(152,600,l),
(157,619,l),
(117,665,l),
(72,636,l),
(95,584,l),
(152,527,l)
);
},
{
closed = 1;
nodes = (
(137,468,l),
(211,501,l),
(177,570,l),
(143,527,l),
(127,539,l),
(71,518,l),
(82,465,l)
);
},
{
closed = 1;
nodes = (
(268,470,l),
(259,550,l),
(183,538,l),
(213,492,l),
(198,481,l),
(200,421,l),
(254,415,l)
);
},
{
closed = 1;
nodes = (
(251,529,l),
(254,583,l),
(190,605,l),
(148,553,l),
(143,514,l),
(212,499,l)
);
},
{
closed = 1;
nodes = (
(224,619,l),
(244,620,l),
(271,673,l),
(229,705,l),
(188,666,l),
(155,592,l),
(228,564,l)
);
},
{
closed = 1;
nodes = (
(351,575,l),
(301,601,l),
(221,611,l),
(216,533,l),
(267,553,l),
(274,535,l),
(333,523,l)
);
}
);
width = 365;
}
);
unicode = 42;
},
{
glyphname = numbersign;
lastChange = "2024-06-23 13:15:19 +0000";
layers = (
{
layerId = m01;
shapes = (
{
closed = 1;
nodes = (
(226,0,l),
(381,603,l),
(396,654,l),
(396,706,l),
(316,718,l),
(263,634,l),
(102,31,l),
(137,-23,l)
);
},
{
closed = 1;
nodes = (
(488,0,l),
(642,603,l),
(658,654,l),
(658,706,l),
(576,702,l),
(525,634,l),
(364,31,l),
(380,-1,l)
);
},
{
closed = 1;
nodes = (
(106,392,l),
(650,398,l),
(703,398,l),
(753,413,l),
(751,496,l),
(646,520,l),
(100,520,l),
(58,471,l)
);
},
{
closed = 1;
nodes = (
(45,149,l),
(573,154,l),
(626,154,l),
(675,169,l),
(658,261,l),
(569,276,l),
(41,276,l),
(15,199,l)
);
}
);
width = 753;
},
{
guides = (
{
angle = -89.1;
pos = (355,-31);
showMeasurement = 1;
}
);
layerId = m002;
shapes = (
{
closed = 1;
nodes = (
(167,0,l),
(340,603,l),
(355,654,l),
(355,706,l),
(321,728,l),
(288,689,l),
(89,31,l),
(124,-23,l)
);
},
{
closed = 1;
nodes = (
(475,0,l),
(647,603,l),
(663,654,l),
(663,706,l),
(627,702,l),
(589,683,l),
(397,31,l),
(413,-1,l)
);
},
{
closed = 1;
nodes = (
(130,453,l),
(655,456,l),
(708,456,l),
(758,471,l),
(756,493,l),
(723,520,l),
(124,520,l),
(82,487,l)
);
},
{
closed = 1;
nodes = (
(43,168,l),
(578,172,l),
(631,172,l),
(667,187,l),
(660,223,l),
(633,239,l),
(36,239,l),
(13,209,l)
);
}
);
width = 763;
}
);
unicode = 35;
},
{
glyphname = slash;
lastChange = "2024-06-17 10:33:25 +0000";
layers = (
{
layerId = m01;
shapes = (
{
closed = 1;
nodes = (
(143,-169,l),
(371,695,l),
(371,758,l),
(309,811,l),
(247,803,l),
(223,723,l),
(0,-143,l),
(79,-190,l)
);
}
);
width = 371;
},
{
guides = (
{
angle = -16.3355;
pos = (428,309);
showMeasurement = 1;
}
);
layerId = m002;
shapes = (
{
closed = 1;
nodes = (
(75,-126,l),
(286,695,l),
(302,746,l),
(291,789,l),
(239,798,l),
(210,723,l),
(0,-97,l),
(28,-133,l)
);
}
);
width = 302;
}
);
unicode = 47;
},
{
glyphname = backslash;
lastChange = "2024-05-29 09:58:23 +0000";
layers = (
{
layerId = m01;
shapes = (
{
closed = 1;
nodes = (
(382,-143,l),
(181,639,l),
(128,734,l),
(17,714,l),
(17,662,l),
(32,611,l),
(226,-172,l),
(346,-198,l)
);
}
);
width = 438;
},
{
guides = (
{
angle = 13.5207;
pos = (-46,238);
showMeasurement = 1;
}
);
layerId = m002;
shapes = (
{
closed = 1;
nodes = (
(387,-143,l),
(186,639,l),
(152,714,l),
(122,715,l),
(98,662,l),
(113,611,l),
(307,-172,l),
(335,-179,l)
);
}
);
width = 448;
}
);
unicode = 92;
},
{
glyphname = hyphen;
kernLeft = hyphen;
kernRight = hyphen;
lastChange = "2024-06-23 19:20:03 +0000";
layers = (
{
layerId = m01;
shapes = (
{
closed = 1;
nodes = (
(61,272,l),
(56,195,l),
(94,188,l),
(350,193,l),
(367,234,l),
(373,286,l),
(334,322,l),
(86,305,l)
);
}
);
width = 429;
},
{
guides = (
{
angle = 270;
pos = (230,383);
showMeasurement = 1;
}
);
layerId = m002;
shapes = (
{
closed = 1;
nodes = (
(66,263,l),
(61,230,l),
(99,223,l),
(355,228,l),
(372,258,l),
(378,277,l),
(339,313,l),
(91,296,l)
);
}
);
width = 439;
}
);
unicode = 45;
},
{
glyphname = endash;
kernLeft = hyphen;
kernRight = hyphen;
lastChange = "2024-05-29 09:58:23 +0000";
layers = (
{
layerId = m01;
shapes = (
{
closed = 1;
nodes = (
(25,272,l),
(20,195,l),
(58,188,l),
(485,193,l),
(502,234,l),
(508,286,l),
(468,322,l),
(50,305,l)
);
}
);
width = 528;
},
{
guides = (
{
angle = 270;
pos = (271,404);
showMeasurement = 1;
}
);
layerId = m002;
shapes = (
{
closed = 1;
nodes = (
(20,272,l),
(15,238,l),
(53,231,l),
(480,236,l),
(497,264,l),
(503,286,l),
(463,322,l),
(45,305,l)
);
}
);
width = 518;
}
);
unicode = 8211;
},
{
glyphname = emdash;
kernLeft = hyphen;
kernRight = hyphen;
lastChange = "2024-05-31 16:25:31 +0000";
layers = (
{
layerId = m01;
shapes = (
{
closed = 1;
nodes = (
(107,272,l),
(102,195,l),
(140,188,l),
(826,193,l),
(842,234,l),
(848,286,l),
(809,322,l),
(132,305,l)
);
}
);
width = 864;
},
{
guides = (
{
angle = 270;
pos = (453,353);
showMeasurement = 1;
}
);
layerId = m002;
shapes = (
{
closed = 1;
nodes = (
(30,255,l),
(25,232,l),
(63,225,l),
(749,230,l),
(765,254,l),
(771,269,l),
(732,305,l),
(55,288,l)
);
}
);
width = 796;
}
);
unicode = 8212;
},
{
glyphname = underscore;
kernRight = hyphen;
lastChange = "2024-06-10 10:19:54 +0000";
layers = (
{
layerId = m01;
shapes = (
{
closed = 1;
nodes = (
(61,0,l),
(56,-77,l),
(94,-84,l),
(351,-79,l),
(368,-38,l),
(373,14,l),
(334,50,l),
(86,33,l)
);
}
);
width = 429;
},
{
guides = (
{
angle = 270;
pos = (245,119);
showMeasurement = 1;
}
);
layerId = m002;
shapes = (
{
closed = 1;
nodes = (
(66,-15,l),
(61,-48,l),
(99,-55,l),
(356,-50,l),
(373,-24,l),
(378,-1,l),
(339,35,l),
(91,18,l)
);
}
);
width = 439;
}
);
metricLeft = hyphen;
metricRight = hyphen;
unicode = 95;
},
{
glyphname = parenleft;
lastChange = "2024-06-17 17:55:34 +0000";
layers = (
{
layerId = m01;
shapes = (
{
closed = 1;
nodes = (
(293,810,l),
(357,753,l),
(345,700,l),
(317,632,l),
(242,598,l),
(176,408,l),
(226,50,l),
(317,-7,l),
(367,-76,l),
(293,-140,l),
(98,-57,l),
(40,212,l),
(46,489,l),
(138,754,l)
);
}
);
width = 367;
},
{
guides = (
{
pos = (360,296);
showMeasurement = 1;
}
);
layerId = m002;
shapes = (
{
closed = 1;
nodes = (
(267,779,l),
(292,734,l),
(277,703,l),
(208,644,l),
(180,591,l),
(112,462,l),
(143,50,l),
(267,-43,l),
(292,-118,l),
(267,-140,l),
(103,-57,l),
(45,212,l),
(51,530,l),
(143,723,l)
);
}
);
width = 297;
}
);
unicode = 40;
},
{
glyphname = parenright;
lastChange = "2024-05-29 13:57:18 +0000";
layers = (
{
layerId = m01;
shapes = (
{
closed = 1;
nodes = (
(74,-140,l),
(10,-83,l),
(22,-30,l),
(50,14,l),
(125,71,l),
(191,190,l),
(141,623,l),
(50,680,l),
(0,749,l),
(74,813,l),
(269,730,l),
(327,325,l),
(321,109,l),
(229,-85,l)
);
}
);
width = 367;
},
{
guides = (
{
pos = (0,309);
showMeasurement = 1;
}
);
layerId = m002;
shapes = (
{
closed = 1;
nodes = (
(35,-140,l),
(5,-96,l),
(16,-59,l),
(59,-36,l),
(119,34,l),
(177,100,l),
(154,598,l),
(23,700,l),
(16,744,l),
(35,778,l),
(199,695,l),
(257,325,l),
(251,109,l),
(159,-85,l)
);
}
);
width = 406;
}
);
unicode = 41;
},
{
glyphname = braceleft;
lastChange = "2024-05-29 11:33:14 +0000";
layers = (
{
layerId = m01;
shapes = (
{
closed = 1;
nodes = (
(198,777,l),
(133,732,l),
(133,541,l),
(115,427,l),
(50,350,l),
(115,281,l),
(140,153,l),
(103,8,l),
(167,-68,l),
(234,-87,l),
(385,-87,l),
(363,-12,l),
(264,43,l),
(285,164,l),
(254,269,l),
(182,350,l),
(271,427,l),
(290,541,l),
(266,651,l),
(367,702,l),
(406,777,l)
);
}
);
width = 425;
},
{
guides = (
{
pos = (788,445);
showMeasurement = 1;
}
);
layerId = m002;
shapes = (
{
closed = 1;
nodes = (
(203,785,l),
(138,740,l),
(138,549,l),
(120,435,l),
(55,358,l),
(120,289,l),
(145,160,l),
(108,15,l),
(172,-61,l),
(239,-80,l),
(314,-80,l),
(292,-47,l),
(193,8,l),
(214,171,l),
(183,277,l),
(111,358,l),
(200,435,l),
(219,549,l),
(195,702,l),
(296,753,l),
(308,785,l)
);
}
);
width = 338;
}
);
unicode = 123;
},
{
glyphname = bracketleft;
lastChange = "2024-06-10 10:21:05 +0000";
layers = (
{
layerId = m01;
shapes = (
{
closed = 1;
nodes = (
(338,767,l),
(210,693,l),
(220,32,l),
(324,-44,l),
(319,-129,l),
(82,-130,l),
(81,866,l),
(340,876,l)
);
}
);
width = 350;
},
{
guides = (
{
angle = 270;
pos = (215,722);
showMeasurement = 1;
}
);
layerId = m002;
shapes = (
{
closed = 1;
nodes = (
(290,747,l),
(162,700,l),
(172,-33,l),
(276,-76,l),
(271,-129,l),
(87,-130,l),
(86,799,l),
(292,809,l)
);
}
);
width = 377;
}
);
unicode = 91;
},
{
glyphname = guillemetright;
kernLeft = guillemet_right_left;
kernRight = guillemet_right_right;
lastChange = "2024-06-01 11:35:49 +0000";
layers = (
{
layerId = m01;
shapes = (
{
closed = 1;
nodes = (
(312,422,l),
(346,424,l),
(500,286,l),
(516,235,l),
(333,42,l),
(292,42,l),
(246,94,l),
(261,151,l),
(370,242,l),
(246,342,l),
(246,388,l)
);
},
{
closed = 1;
nodes = (
(82,406,l),
(115,408,l),
(270,286,l),
(286,235,l),
(102,42,l),
(62,42,l),
(16,94,l),
(30,151,l),
(140,242,l),
(33,321,l),
(33,367,l)
);
}
);
width = 530;
},
{
guides = (
{
angle = 46.1304;
pos = (483,375);
showMeasurement = 1;
}
);
layerId = m002;
shapes = (
{
closed = 1;
nodes = (
(315,422,l),
(349,424,l),
(503,286,l),
(519,235,l),
(336,42,l),
(295,42,l),
(280,69,l),
(295,117,l),
(431,251,l),
(280,368,l),
(280,414,l)
);
},
{
closed = 1;
nodes = (
(85,406,l),
(118,408,l),
(273,286,l),
(289,235,l),
(105,42,l),
(65,42,l),
(50,69,l),
(64,126,l),
(205,243,l),
(67,347,l),
(67,393,l)
);
}
);
width = 569;
}
);
unicode = 187;
},
{
glyphname = guilsinglleft;
kernLeft = guillemet_left_left;
kernRight = guillemet_left_right;
lastChange = "2024-06-18 12:58:13 +0000";
layers = (
{
layerId = m01;
shapes = (
{
closed = 1;
nodes = (
(306,342,l),
(219,242,l),
(291,151,l),
(306,94,l),
(260,42,l),
(219,42,l),
(36,235,l),
(52,286,l),
(206,424,l),
(240,422,l),
(306,388,l)
);
}
);
width = 306;
},
{
guides = (
{
angle = 45.2834;
pos = (329,297);
showMeasurement = 1;
}
);
layerId = m002;
shapes = (
{
closed = 1;
nodes = (
(271,373,l),
(148,244,l),
(269,122,l),
(284,65,l),
(274,42,l),
(233,42,l),
(50,235,l),
(66,286,l),
(220,424,l),
(254,422,l),
(271,419,l)
);
}
);
width = 334;
}
);
unicode = 8249;
},
{
glyphname = quotedbl;
lastChange = "2024-06-26 16:44:40 +0000";
layers = (
{
layerId = m01;
shapes = (
{
closed = 1;
nodes = (
(121,708,l),
(166,705,l),
(166,581,l),
(169,504,l),
(124,495,l),
(52,531,l),
(44,692,l)
);
},
{
closed = 1;
nodes = (
(234,708,l),
(306,705,l),
(307,581,l),
(310,504,l),
(238,495,l),
(199,531,l),
(191,692,l)
);
}
);
width = 326;
},
{
guides = (
{
pos = (385,647);
showMeasurement = 1;
}
);
layerId = m002;
shapes = (
{
closed = 1;
nodes = (
(87,708,l),
(132,705,l),
(132,581,l),
(135,504,l),
(90,495,l),
(57,531,l),
(49,692,l)
);
},
{
closed = 1;
nodes = (
(203,708,l),
(242,705,l),
(243,581,l),
(246,504,l),
(207,495,l),
(168,531,l),
(160,692,l)
);
}
);
width = 267;
}
);
unicode = 34;
},
{
glyphname = at;
lastChange = "2024-05-31 17:09:38 +0000";
layers = (
{
layerId = m01;
shapes = (
{
closed = 1;
nodes = (
(470,91,l),
(562,142,l),
(569,250,l),
(484,226,l),
(414,208,l),
(363,264,l),
(361,396,l),
(492,373,l),
(552,322,l),
(555,439,l),
(449,487,l),
(368,448,l),
(242,375,l),
(248,194,l),
(304,64,l)
);
},
{
closed = 1;
nodes = (
(726,74,l),
(753,152,l),
(720,152,l),
(675,218,l),
(683,466,l),
(544,487,l),
(537,418,l),
(539,186,l),
(515,127,l),
(539,82,l)
);
},
{
closed = 1;
nodes = (
(726,74,l),
(809,84,l),
(843,142,l),
(894,230,l),
(915,446,l),
(873,601,l),
(676,698,l),
(384,711,l),
(280,668,l),
(117,530,l),
(50,321,l),
(82,120,l),
(181,-44,l),
(288,-109,l),
(532,-147,l),
(772,-105,l),
(772,-10,l),
(698,39,l),
(573,-2,l),
(403,-22,l),
(327,-10,l),
(240,78,l),
(187,217,l),
(183,394,l),
(316,550,l),
(565,602,l),
(715,536,l),
(764,396,l),
(764,300,l),
(764,182,l),
(753,152,l)
);
},
{
closed = 1;
nodes = (
(581,434,l),
(649,343,l),
(710,377,l),
(726,413,l),
(711,489,l),
(544,487,l)
);
}
);
width = 965;
},
{
guides = (
{
pos = (1095,296);
showMeasurement = 1;
}
);
layerId = m002;
shapes = (
{
closed = 1;
nodes = (
(518,96,l),
(607,223,l),
(621,260,l),
(484,162,l),
(414,144,l),
(330,201,l),
(328,370,l),
(518,434,l),
(608,373,l),
(613,439,l),
(543,487,l),
(384,487,l),
(242,375,l),
(248,194,l),
(342,65,l)
);
},
{
closed = 1;
nodes = (
(726,74,l),
(742,132,l),
(709,132,l),
(675,164,l),
(683,466,l),
(602,487,l),
(595,418,l),
(597,186,l),
(573,127,l),
(597,82,l)
);
},
{
closed = 1;
nodes = (
(726,74,l),
(809,84,l),
(843,142,l),
(894,230,l),
(915,446,l),
(873,601,l),
(676,698,l),
(384,711,l),
(280,668,l),
(117,530,l),
(50,321,l),
(82,120,l),
(181,-44,l),
(288,-109,l),
(532,-147,l),
(772,-105,l),
(772,-10,l),
(698,39,l),
(600,-77,l),
(464,-82,l),
(388,-70,l),
(267,-25,l),
(150,117,l),
(150,418,l),
(261,568,l),
(467,649,l),
(755,608,l),
(830,450,l),
(822,304,l),
(806,182,l),
(742,132,l)
);
},
{
closed = 1;
nodes = (
(639,434,l),
(649,393,l),
(710,427,l),
(726,463,l),
(711,489,l),
(602,487,l)
);
}
);
width = 965;
}
);
unicode = 64;
},
{
glyphname = ampersand;
lastChange = "2024-06-17 17:48:49 +0000";
layers = (
{
layerId = m01;
shapes = (
{
closed = 1;
nodes = (
(677,0,l),
(703,67,l),
(696,142,l),
(369,366,l),
(245,477,l),
(228,608,l),
(102,607,l),
(86,587,l),
(51,482,l),
(144,319,l),
(525,84,l),
(591,0,l)
);
},
{
closed = 1;
nodes = (
(483,60,l),
(514,124,l),
(541,236,l),
(657,232,l),
(670,301,l),
(605,349,l),
(538,331,l),
(441,242,l),
(319,62,l),
(216,73,l),
(167,202,l),
(265,343,l),
(506,432,l),
(524,537,l),
(380,523,l),
(357,489,l),
(263,377,l),
(38,229,l),
(0,101,l),
(67,0,l),
(437,0,l)
);
},
{
closed = 1;
nodes = (
(524,537,l),
(540,619,l),
(466,700,l),
(217,702,l),
(102,607,l),
(228,608,l),
(229,631,l),
(331,609,l),
(357,599,l),
(361,495,l)
);
}
);
width = 703;
},
{
guides = (
{
angle = -38.283;
pos = (741,-250);
showMeasurement = 1;
}
);
layerId = m002;
shapes = (
{
closed = 1;
nodes = (
(645,0,l),
(659,67,l),
(652,142,l),
(325,366,l),
(134,499,l),
(119,575,l),
(94,700,l),
(35,563,l),
(100,444,l),
(218,378,l),
(444,213,l),
(592,0,l)
);
},
{
closed = 1;
nodes = (
(367,0,l),
(457,101,l),
(546,202,l),
(638,279,l),
(645,306,l),
(612,332,l),
(562,297,l),
(358,81,l),
(226,25,l),
(94,111,l),
(87,244,l),
(271,372,l),
(485,520,l),
(488,548,l),
(428,589,l),
(407,545,l),
(218,407,l),
(43,289,l),
(5,101,l),
(64,0,l),
(212,0,l)
);
},
{
closed = 1;
nodes = (
(488,548,l),
(490,615,l),
(443,700,l),
(179,721,l),
(94,700,l),
(119,575,l),
(134,672,l),
(343,661,l),
(412,634,l),
(407,545,l)
);
}
);
width = 664;
}
);
unicode = 38;
},
{
glyphname = paragraph;
lastChange = "2024-06-11 14:52:25 +0000";
layers = (
{
layerId = m01;
shapes = (
{
closed = 1;
nodes = (
(143,63,l),
(211,-18,l),
(321,0,l),
(332,700,l),
(185,700,l),
(123,654,l),
(40,591,l),
(68,410,l),
(172,353,l),
(193,354,l),
(185,108,l)
);
},
{
closed = 1;
nodes = (
(393,-18,l),
(503,8,l),
(509,700,l),
(393,700,l)
);
},
{
closed = 1;
nodes = (
(543,538,l),
(582,645,l),
(563,700,l),
(262,700,l),
(270,538,l)
);
}
);
width = 622;
},
{
guides = (
{
pos = (661,224);
showMeasurement = 1;
}
);
layerId = m002;
shapes = (
{
closed = 1;
nodes = (
(143,63,l),
(211,-18,l),
(277,0,l),
(277,700,l),
(185,700,l),
(129,659,l),
(40,591,l),
(68,410,l),
(172,353,l),
(193,354,l),
(193,108,l)
);
},
{
closed = 1;
nodes = (
(424,-18,l),
(503,8,l),
(509,700,l),
(424,700,l)
);
},
{
closed = 1;
nodes = (
(542,619,l),
(582,645,l),
(563,700,l),
(224,700,l),
(231,619,l)
);
}
);
width = 600;
}
);
unicode = 182;
},
{
glyphname = section;
lastChange = "2024-06-10 18:13:23 +0000";
layers = (
{
layerId = m01;
shapes = (
{
closed = 1;
nodes = (
(537,582,l),
(584,631,l),
(568,720,l),
(390,714,l),
(126,701,l),
(105,667,l),
(74,660,l),
(82,434,l),
(83,408,l),
(97,219,l),
(400,187,l),
(386,96,l),
(222,125,l),
(216,154,l),
(176,162,l),
(42,110,l),
(41,-4,l),
(270,-18,l),
(521,54,l),
(540,236,l),
(559,461,l),
(476,526,l),
(242,487,l),
(234,608,l),
(403,610,l),
(434,545,l)
);
},
{
closed = 1;
nodes = (
(257,424,l),
(425,411,l),
(415,290,l),
(224,259,l),
(214,381,l)
);
}
);
width = 624;
},
{
guides = (
{
angle = 270;
pos = (324,427);
showMeasurement = 1;
}
);
layerId = m002;
shapes = (
{
closed = 1;
nodes = (
(573,578,l),
(589,622,l),
(563,725,l),
(385,713,l),
(131,692,l),
(107,659,l),
(79,651,l),
(90,399,l),
(88,399,l),
(102,210,l),
(454,178,l),
(454,35,l),
(179,0,l),
(136,137,l),
(96,145,l),
(47,101,l),
(46,-13,l),
(160,-69,l),
(540,-7,l),
(545,227,l),
(564,452,l),
(481,517,l),
(168,478,l),
(160,620,l),
(454,659,l),
(488,557,l)
);
},
{
closed = 1;
nodes = (
(212,415,l),
(466,437,l),
(466,256,l),
(179,272,l),
(169,372,l)
);
}
);
width = 634;
}
);
unicode = 167;
},
{
glyphname = registered;
lastChange = "2024-06-11 14:40:29 +0000";
layers = (
{
layerId = m01;
shapes = (
{
closed = 1;
nodes = (
(319,102,l),
(466,102,l),
(463,268,l),
(478,272,l),
(570,107,l),
(720,106,l),
(741,143,l),
(674,286,l),
(570,297,l),
(674,321,l),
(731,453,l),
(673,561,l),
(510,591,l),
(486,560,l),
(358,593,l),
(228,544,l),
(254,429,l),
(279,401,l),
(301,238,l),
(282,169,l)
);
},
{
closed = 1;
nodes = (
(584,442,l),
(556,374,l),
(450,363,l),
(445,385,l),
(392,418,l)
);
},
{
pos = (28,25);
ref = _arc;
},
{
angle = 180;
pos = (941,657);
ref = _arc;
}
);
width = 993;
},
{
layerId = m002;
shapes = (
{
closed = 1;
nodes = (
(331,102,l),
(386,102,l),
(384,276,l),
(471,274,l),
(621,107,l),
(732,106,l),
(753,143,l),
(667,181,l),
(523,291,l),
(686,321,l),
(743,453,l),
(685,561,l),
(522,591,l),
(498,560,l),
(370,593,l),
(240,544,l),
(266,429,l),
(291,401,l),
(313,238,l),
(294,124,l)
);
},
{
closed = 1;
nodes = (
(657,520,l),
(630,333,l),
(382,325,l),
(373,453,l),
(331,520,l)
);
},
{
pos = (40,25);
ref = _arc;
},
{
angle = 180;
pos = (953,657);
ref = _arc;
}
);
width = 993;
}
);
unicode = 174;
},
{
glyphname = degree;
lastChange = "2024-06-01 08:29:12 +0000";
layers = (
{
layerId = m01;
shapes = (
{
closed = 1;
nodes = (
(220,425,l),
(155,498,l),
(187,672,l),
(121,687,l),
(58,651,l),
(50,479,l),
(98,414,l)
);
},
{
closed = 1;
nodes = (
(355,447,l),
(323,503,l),
(204,477,l),
(98,531,l),
(98,414,l),
(168,409,l),
(318,407,l)
);
},
{
closed = 1;
nodes = (
(355,509,l),
(355,622,l),
(238,683,l),
(246,492,l),
(227,452,l),
(293,420,l),
(355,447,l)
);
},
{
closed = 1;
nodes = (
(248,622,l),
(355,622,l),
(318,700,l),
(140,700,l),
(58,651,l),
(73,584,l)
);
}
);
width = 425;
},
{
layerId = m002;
shapes = (
{
closed = 1;
nodes = (
(166,504,l),
(124,577,l),
(156,672,l),
(141,687,l),
(78,651,l),
(70,558,l),
(118,493,l)
);
},
{
closed = 1;
nodes = (
(318,526,l),
(286,564,l),
(208,536,l),
(118,543,l),
(118,493,l),
(188,488,l),
(281,486,l)
);
},
{
closed = 1;
nodes = (
(318,588,l),
(322,660,l),
(254,683,l),
(254,571,l),
(243,531,l),
(256,499,l),
(318,526,l)
);
},
{
closed = 1;
nodes = (
(211,664,l),
(322,660,l),
(281,700,l),
(160,700,l),
(97,681,l),
(93,626,l)
);
}
);
width = 376;
}
);
unicode = 176;
},
{
glyphname = bar;
lastChange = "2024-05-29 09:58:23 +0000";
layers = (
{
layerId = m01;
shapes = (
{
closed = 1;
nodes = (
(129,691,l),
(222,660,l),
(218,-175,l),
(118,-186,l),
(80,-108,l),
(86,654,l)
);
}
);
width = 302;
},
{
guides = (
{
pos = (-153,283);
showMeasurement = 1;
}
);
layerId = m002;
shapes = (
{
closed = 1;
nodes = (
(146,674,l),
(170,660,l),
(166,-175,l),
(123,-186,l),
(85,-108,l),
(91,654,l)
);
}
);
width = 255;
}
);
unicode = 124;
},
{
glyphname = cent;
lastChange = "2024-06-11 08:55:54 +0000";
layers = (
{
anchors = (
{
name = bottom;
pos = (294,59);
},
{
name = top;
pos = (234,520);
}
);
layerId = m01;
shapes = (
{
closed = 1;
nodes = (
(366,136,l),
(239,165,l),
(190,253,l),
(170,326,l),
(205,478,l),
(237,524,l),
(139,604,l),
(58,584,l),
(24,420,l),
(22,300,l),
(46,173,l),
(72,132,l)
);
},
{
closed = 1;
nodes = (
(239,119,l),
(278,91,l),
(525,92,l),
(544,247,l),
(507,299,l),
(414,270,l),
(404,216,l),
(273,146,l),
(72,132,l),
(154,89,l)
);
},
{
closed = 1;
nodes = (
(369,0,l),
(373,675,l),
(280,693,l),
(237,669,l),
(231,25,l),
(269,-11,l)
);
},
{
closed = 1;
nodes = (
(550,421,l),
(549,584,l),
(447,616,l),
(278,612,l),
(139,604,l),
(124,543,l),
(190,454,l),
(281,524,l),
(397,535,l),
(393,425,l),
(436,412,l)
);
}
);
width = 576;
},
{
anchors = (
{
name = bottom;
pos = (299,59);
},
{
name = top;
pos = (239,520);
}
);
guides = (
{
pos = (597,361);
showMeasurement = 1;
}
);
layerId = m002;
shapes = (
{
closed = 1;
nodes = (
(371,136,l),
(185,164,l),
(110,216,l),
(110,293,l),
(110,478,l),
(173,555,l),
(144,604,l),
(63,584,l),
(29,420,l),
(27,300,l),
(51,173,l),
(77,132,l)
);
},
{
closed = 1;
nodes = (
(244,119,l),
(283,91,l),
(530,92,l),
(549,247,l),
(508,277,l),
(479,264,l),
(458,170,l),
(278,146,l),
(77,132,l),
(159,89,l)
);
},
{
closed = 1;
nodes = (
(345,0,l),
(349,675,l),
(289,693,l),
(270,669,l),
(264,25,l),
(302,-11,l)
);
},
{
closed = 1;
nodes = (
(555,467,l),
(554,584,l),
(452,616,l),
(283,612,l),
(144,604,l),
(129,543,l),
(95,454,l),
(173,552,l),
(445,565,l),
(487,471,l),
(530,458,l)
);
}
);
width = 586;
}
);
metricLeft = c;
metricRight = c;
unicode = 162;
},
{
glyphname = dollar;
lastChange = "2024-06-17 17:59:16 +0000";
layers = (
{
layerId = m01;
shapes = (
{
closed = 1;
nodes = (
(487,65,l),
(506,382,l),
(424,446,l),
(216,404,l),
(211,589,l),
(341,590,l),
(377,478,l),
(481,515,l),
(522,611,l),
(506,700,l),
(136,700,l),
(127,671,l),
(69,653,l),
(43,349,l),
(44,349,l),
(42,306,l),
(377,272,l),
(302,105,l),
(204,126,l),
(193,224,l),
(149,237,l),
(41,193,l),
(45,-1,l),
(394,0,l)
);
},
{
closed = 1;
nodes = (
(377,755,l),
(352,763,l),
(248,743,l),
(248,657,l),
(380,655,l)
);
},
{
closed = 1;
nodes = (
(205,37,l),
(205,-49,l),
(260,-69,l),
(328,-61,l),
(331,39,l)
);
}
);
width = 538;
},
{
guides = (
{
angle = 270;
pos = (214,290);
showMeasurement = 1;
}
);
layerId = m002;
shapes = (
{
closed = 1;
nodes = (
(399,48,l),
(492,113,l),
(511,361,l),
(429,425,l),
(145,383,l),
(130,586,l),
(413,586,l),
(441,470,l),
(472,465,l),
(513,561,l),
(497,650,l),
(141,650,l),
(132,621,l),
(74,603,l),
(57,429,l),
(50,371,l),
(146,329,l),
(447,348,l),
(399,105,l),
(146,117,l),
(135,204,l),
(107,217,l),
(60,173,l),
(64,47,l)
);
},
{
closed = 1;
nodes = (
(333,705,l),
(308,713,l),
(253,693,l),
(253,627,l),
(336,616,l)
);
},
{
closed = 1;
nodes = (
(253,88,l),
(253,-1,l),
(308,-21,l),
(333,-13,l),
(336,90,l)
);
}
);
width = 548;
}
);
unicode = 36;
},
{
glyphname = euro;
lastChange = "2024-06-11 15:30:05 +0000";
layers = (
{
layerId = m01;
shapes = (
{
closed = 1;
nodes = (
(74,408,l),
(138,55,l),
(353,79,l),
(242,163,l),
(225,257,l),
(273,520,l),
(306,538,l),
(419,658,l),
(323,694,l),
(138,596,l)
);
},
{
closed = 1;
nodes = (
(593,94,l),
(629,183,l),
(560,213,l),
(452,114,l),
(260,80,l),
(138,55,l),
(187,0,l),
(293,-24,l),
(536,0,l)
);
},
{
closed = 1;
nodes = (
(376,564,l),
(507,494,l),
(593,538,l),
(593,626,l),
(490,630,l)
);
},
{
closed = 1;
nodes = (
(452,702,l),
(200,603,l),
(124,498,l),
(203,484,l),
(593,626,l),
(496,679,l)
);
},
{
closed = 1;
nodes = (
(16,367,l),
(38,330,l),
(374,329,l),
(407,354,l),
(409,426,l),
(28,426,l)
);
},
{
closed = 1;
nodes = (
(43,236,l),
(65,198,l),
(370,198,l),
(420,245,l),
(420,294,l),
(55,294,l)
);
}
);
width = 645;
},
{
guides = (
{
pos = (838,450);
showMeasurement = 1;
}
);
layerId = m002;
shapes = (
{
closed = 1;
nodes = (
(79,441,l),
(143,79,l),
(281,51,l),
(170,187,l),
(153,257,l),
(175,508,l),
(285,594,l),
(414,662,l),
(328,694,l),
(143,596,l)
);
},
{
closed = 1;
nodes = (
(522,56,l),
(627,198,l),
(557,233,l),
(438,90,l),
(246,71,l),
(143,79,l),
(192,24,l),
(298,0,l),
(418,0,l)
);
},
{
closed = 1;
nodes = (
(459,632,l),
(536,505,l),
(598,538,l),
(598,626,l),
(495,630,l)
);
},
{
closed = 1;
nodes = (
(457,702,l),
(205,603,l),
(129,498,l),
(192,586,l),
(598,626,l),
(501,679,l)
);
},
{
closed = 1;
nodes = (
(26,361,l),
(46,357,l),
(427,362,l),
(455,378,l),
(457,450,l),
(38,420,l)
);
},
{
closed = 1;
nodes = (
(47,224,l),
(68,224,l),
(394,216,l),
(432,241,l),
(432,290,l),
(59,282,l)
);
}
);
width = 655;
}
);
unicode = 8364;
},
{
glyphname = sterling;
kernLeft = A;
kernRight = L;
lastChange = "2024-06-11 14:43:16 +0000";
layers = (
{
layerId = m01;
shapes = (
{
closed = 1;
nodes = (
(457,616,l),
(523,647,l),
(517,718,l),
(311,756,l),
(135,642,l),
(135,577,l),
(135,313,l),
(115,206,l),
(44,97,l),
(67,0,l),
(494,0,l),
(506,87,l),
(440,124,l),
(190,124,l),
(277,179,l),
(275,450,l),
(275,581,l),
(311,664,l),
(399,588,l)
);
},
{
closed = 1;
nodes = (
(60,344,l),
(90,324,l),
(351,324,l),
(373,361,l),
(371,450,l),
(115,450,l),
(77,436,l)
);
}
);
width = 523;
},
{
guides = (
{
pos = (503,359);
showMeasurement = 1;
},
{
angle = 270;
pos = (296,237);
showMeasurement = 1;
}
);
layerId = m002;
shapes = (
{
closed = 1;
nodes = (
(466,616,l),
(532,647,l),
(526,718,l),
(320,756,l),
(144,642,l),
(144,577,l),
(144,313,l),
(124,149,l),
(53,40,l),
(76,0,l),
(503,0,l),
(515,43,l),
(449,80,l),
(160,76,l),
(211,135,l),
(209,387,l),
(209,585,l),
(245,663,l),
(349,716,l)
);
},
{
closed = 1;
nodes = (
(69,351,l),
(99,331,l),
(360,331,l),
(382,368,l),
(380,411,l),
(124,411,l),
(91,411,l)
);
}
);
width = 552;
}
);
metricLeft = B;
metricRight = L;
unicode = 163;
},
{
glyphname = yen;
lastChange = "2024-06-11 09:01:49 +0000";
layers = (
{
layerId = m01;
shapes = (
{
ref = Y;
},
{
closed = 1;
nodes = (
(58,226,l),
(471,226,l),
(492,311,l),
(483,336,l),
(75,336,l),
(47,300,l)
);
},
{
closed = 1;
nodes = (
(78,101,l),
(465,101,l),
(492,186,l),
(483,211,l),
(75,211,l),
(67,175,l)
);
}
);
width = 569;
},
{
guides = (
{
angle = 270;
pos = (384,64);
showMeasurement = 1;
}
);
layerId = m002;
shapes = (
{
pos = (0,-1);
ref = Y;
},
{
closed = 1;
nodes = (
(91,212,l),
(437,212,l),
(458,266,l),
(449,291,l),
(108,291,l),
(80,255,l)
);
},
{
closed = 1;
nodes = (
(111,94,l),
(431,94,l),
(458,151,l),
(449,176,l),
(108,176,l),
(100,140,l)
);
}
);
width = 579;
}
);
metricLeft = Y;
metricRight = Y;
unicode = 165;
},
{
glyphname = plus;
lastChange = "2024-06-11 08:21:17 +0000";
layers = (
{
layerId = m01;
shapes = (
{
closed = 1;
nodes = (
(128,272,l),
(103,195,l),
(141,188,l),
(438,193,l),
(455,234,l),
(460,286,l),
(421,322,l),
(133,305,l)
);
},
{
closed = 1;
nodes = (
(299,437,l),
(222,442,l),
(215,404,l),
(219,97,l),
(260,80,l),
(313,75,l),
(349,114,l),
(331,412,l)
);
}
);
width = 560;
},
{
guides = (
{
angle = 270;
pos = (358,107);
showMeasurement = 1;
}
);
layerId = m002;
shapes = (
{
closed = 1;
nodes = (
(108,254,l),
(103,223,l),
(141,216,l),
(435,222,l),
(452,245,l),
(457,269,l),
(423,298,l),
(133,287,l)
);
},
{
closed = 1;
nodes = (
(277,431,l),
(239,436,l),
(232,398,l),
(239,91,l),
(258,74,l),
(301,69,l),
(320,108,l),
(309,406,l)
);
}
);
width = 560;
}
);
unicode = 43;
},
{
glyphname = multiply;
lastChange = "2024-06-11 09:15:00 +0000";
layers = (
{
layerId = m01;
shapes = (
{
closed = 1;
nodes = (
(162,381,l),
(103,331,l),
(125,299,l),
(374,67,l),
(415,84,l),
(456,116,l),
(455,169,l),
(203,386,l)
);
},
{
closed = 1;
nodes = (
(441,294,l),
(442,347,l),
(401,379,l),
(360,396,l),
(136,164,l),
(114,132,l),
(173,82,l),
(214,77,l)
);
}
);
width = 560;
},
{
layerId = m002;
shapes = (
{
closed = 1;
nodes = (
(152,370,l),
(135,337,l),
(145,323,l),
(371,95,l),
(407,100,l),
(424,109,l),
(423,162,l),
(193,375,l)
);
},
{
closed = 1;
nodes = (
(420,318,l),
(424,364,l),
(407,373,l),
(373,382,l),
(145,149,l),
(135,129,l),
(159,89,l),
(197,91,l)
);
}
);
width = 560;
}
);
unicode = 215;
},
{
glyphname = divide;
lastChange = "2024-06-11 09:06:08 +0000";
layers = (
{
layerId = m01;
shapes = (
{
closed = 1;
nodes = (
(84,272,l),
(79,195,l),
(117,188,l),
(457,193,l),
(474,234,l),
(480,286,l),
(441,322,l),
(109,305,l)
);
},
{
closed = 1;
nodes = (
(364,375,l),
(360,469,l),
(295,520,l),
(183,494,l),
(191,427,l),
(260,337,l)
);
},
{
closed = 1;
nodes = (
(371,7,l),
(363,75,l),
(292,165,l),
(190,127,l),
(194,32,l),
(259,-18,l)
);
}
);
width = 560;
},
{
layerId = m002;
shapes = (
{
closed = 1;
nodes = (
(83,263,l),
(78,230,l),
(116,223,l),
(459,228,l),
(476,258,l),
(482,277,l),
(443,313,l),
(108,296,l)
);
},
{
closed = 1;
nodes = (
(328,430,l),
(326,488,l),
(287,520,l),
(218,503,l),
(223,461,l),
(265,406,l)
);
},
{
closed = 1;
nodes = (
(339,16,l),
(334,55,l),
(292,106,l),
(231,85,l),
(233,31,l),
(272,2,l)
);
}
);
width = 560;
}
);
unicode = 247;
},
{
glyphname = equal;
lastChange = "2024-06-11 08:20:53 +0000";
layers = (
{
layerId = m01;
shapes = (
{
closed = 1;
nodes = (
(95,404,l),
(90,327,l),
(128,320,l),
(449,325,l),
(466,366,l),
(471,418,l),
(432,454,l),
(120,437,l)
);
},
{
closed = 1;
nodes = (
(466,158,l),
(471,234,l),
(434,242,l),
(113,237,l),
(96,196,l),
(90,143,l),
(130,107,l),
(442,125,l)
);
}
);
width = 560;
},
{
guides = (
{
angle = 270;
pos = (268,268);
showMeasurement = 1;
}
);
layerId = m002;
shapes = (
{
closed = 1;
nodes = (
(96,376,l),
(91,337,l),
(129,330,l),
(446,335,l),
(463,376,l),
(468,390,l),
(429,422,l),
(121,405,l)
);
},
{
closed = 1;
nodes = (
(463,173,l),
(468,216,l),
(431,224,l),
(114,219,l),
(97,178,l),
(91,158,l),
(131,131,l),
(439,149,l)
);
}
);
width = 560;
}
);
unicode = 61;
},
{
glyphname = greater;
kernLeft = guillemet_right_left;
kernRight = guillemet_right_right;
lastChange = "2024-06-01 11:18:14 +0000";
layers = (
{
layerId = m01;
shapes = (
{
closed = 1;
nodes = (
(21,398,l),
(52,366,l),
(303,229,l),
(55,120,l),
(24,43,l),
(51,6,l),
(97,-5,l),
(534,173,l),
(560,220,l),
(130,490,l),
(50,448,l)
);
}
);
width = 560;
},
{
guides = (
{
angle = -65.4239;
pos = (342,-32);
showMeasurement = 1;
}
);
layerId = m002;
shapes = (
{
closed = 1;
nodes = (
(41,432,l),
(56,400,l),
(369,222,l),
(56,95,l),
(35,63,l),
(20,20,l),
(35,-5,l),
(472,173,l),
(498,220,l),
(68,490,l),
(36,479,l)
);
}
);
width = 518;
}
);
unicode = 62;
},
{
glyphname = asciicircum;
lastChange = "2024-06-11 14:20:00 +0000";
layers = (
{
layerId = m01;
shapes = (
{
closed = 1;
nodes = (
(338,479,l),
(372,527,l),
(251,700,l),
(152,700,l),
(123,660,l),
(170,602,l),
(283,471,l)
);
},
{
closed = 1;
nodes = (
(186,576,l),
(204,674,l),
(98,670,l),
(10,521,l),
(44,474,l),
(99,465,l)
);
}
);
width = 392;
},
{
layerId = m002;
shapes = (
{
closed = 1;
nodes = (
(376,493,l),
(382,527,l),
(261,700,l),
(162,700,l),
(133,660,l),
(199,662,l),
(329,487,l)
);
},
{
closed = 1;
nodes = (
(171,603,l),
(214,674,l),
(108,670,l),
(20,521,l),
(29,501,l),
(84,492,l)
);
}
);
width = 402;
}
);
unicode = 94;
},
{
glyphname = percent;
lastChange = "2024-06-24 11:24:31 +0000";
layers = (
{
layerId = m01;
shapes = (
{
closed = 1;
nodes = (
(358,0,l),
(615,586,l),
(630,637,l),
(630,688,l),
(519,708,l),
(466,614,l),
(203,29,l),
(243,-14,l)
);
},
{
closed = 1;
nodes = (
(319,388,l),
(355,414,l),
(308,500,l),
(45,446,l),
(126,364,l),
(253,356,l)
);
},
{
closed = 1;
nodes = (
(126,364,l),
(195,428,l),
(166,632,l),
(120,643,l),
(41,591,l),
(40,528,l),
(45,429,l)
);
},
{
closed = 1;
nodes = (
(797,20,l),
(850,107,l),
(728,127,l),
(542,121,l),
(542,0,l),
(754,0,l)
);
},
{
closed = 1;
nodes = (
(646,39,l),
(646,139,l),
(676,297,l),
(524,281,l),
(493,45,l),
(542,0,l)
);
},
{
closed = 1;
nodes = (
(311,599,l),
(311,700,l),
(164,700,l),
(94,678,l),
(41,591,l),
(130,571,l)
);
},
{
closed = 1;
nodes = (
(355,414,l),
(361,675,l),
(311,700,l),
(226,687,l),
(243,533,l),
(216,411,l)
);
},
{
closed = 1;
nodes = (
(850,107,l),
(851,170,l),
(845,294,l),
(792,341,l),
(716,242,l),
(722,70,l),
(739,55,l)
);
},
{
closed = 1;
nodes = (
(837,221,l),
(792,341,l),
(620,347,l),
(524,281,l),
(540,259,l),
(565,203,l)
);
}
);
width = 891;
},
{
guides = (
{
angle = -22.1901;
pos = (1149,90);
showMeasurement = 1;
}
);
layerId = m002;
shapes = (
{
closed = 1;
nodes = (
(437,-19,l),
(715,598,l),
(745,668,l),
(730,700,l),
(689,708,l),
(636,614,l),
(352,-2,l),
(368,-19,l)
);
},
{
closed = 1;
nodes = (
(424,306,l),
(438,362,l),
(405,382,l),
(163,377,l),
(164,329,l),
(358,312,l)
);
},
{
closed = 1;
nodes = (
(174,354,l),
(184,358,l),
(190,632,l),
(144,643,l),
(101,591,l),
(100,528,l),
(121,354,l)
);
},
{
closed = 1;
nodes = (
(926,1,l),
(938,54,l),
(862,57,l),
(684,72,l),
(684,25,l),
(760,0,l)
);
},
{
closed = 1;
nodes = (
(694,39,l),
(696,206,l),
(713,364,l),
(652,336,l),
(635,50,l),
(684,25,l)
);
},
{
closed = 1;
nodes = (
(464,651,l),
(464,700,l),
(248,700,l),
(154,678,l),
(101,591,l),
(222,620,l)
);
},
{
closed = 1;
nodes = (
(460,332,l),
(488,632,l),
(464,700,l),
(390,687,l),
(418,530,l),
(393,329,l)
);
},
{
closed = 1;
nodes = (
(977,26,l),
(985,154,l),
(966,338,l),
(885,356,l),
(903,291,l),
(908,50,l),
(908,32,l)
);
},
{
closed = 1;
nodes = (
(966,338,l),
(916,403,l),
(748,403,l),
(693,374,l),
(674,306,l),
(698,338,l)
);
}
);
width = 1035;
}
);
unicode = 37;
},
{
glyphname = upArrow;
lastChange = "2024-05-29 09:58:24 +0000";
layers = (
{
layerId = m01;
shapes = (
{
closed = 1;
nodes = (
(295,569,l),
(106,310,l),
(50,227,l),
(74,153,l),
(166,136,l),
(452,525,l),
(392,614,l)
);
},
{
closed = 1;
nodes = (
(300,478,l),
(404,307,l),
(576,134,l),
(663,168,l),
(678,237,l),
(452,525,l),
(387,558,l),
(276,525,l)
);
},
{
closed = 1;
nodes = (
(274,-71,l),
(356,-62,l),
(452,22,l),
(388,372,l),
(423,489,l),
(364,446,l),
(268,366,l),
(305,354,l),
(252,-28,l)
);
}
);
width = 728;
},
{
guides = (
{
angle = 218.4741;
pos = (74,22);
showMeasurement = 1;
}
);
layerId = m002;
shapes = (
{
closed = 1;
nodes = (
(258,553,l),
(81,310,l),
(25,227,l),
(38,210,l),
(96,193,l),
(364,550,l),
(320,634,l)
);
},
{
closed = 1;
nodes = (
(325,511,l),
(444,366,l),
(592,189,l),
(653,209,l),
(653,237,l),
(412,515,l),
(320,634,l),
(285,537,l)
);
},
{
closed = 1;
nodes = (
(294,-71,l),
(338,-62,l),
(402,22,l),
(362,507,l),
(344,549,l),
(324,549,l),
(315,534,l),
(300,499,l),
(272,-28,l)
);
}
);
width = 678;
}
);
unicode = 8593;
},
{
glyphname = northEastArrow;
lastChange = "2024-05-29 09:58:24 +0000";
layers = (
{
layerId = m01;
shapes = (
{
closed = 1;
nodes = (
(558,494,l),
(238,470,l),
(138,460,l),
(97,394,l),
(143,312,l),
(625,346,l),
(655,448,l)
);
},
{
closed = 1;
nodes = (
(491,430,l),
(428,241,l),
(406,-2,l),
(489,-46,l),
(551,-14,l),
(625,346,l),
(608,416,l),
(511,479,l)
);
},
{
closed = 1;
nodes = (
(55,96,l),
(114,39,l),
(241,20,l),
(467,295,l),
(578,344,l),
(507,362,l),
(385,383,l),
(400,347,l),
(74,141,l)
);
}
);
width = 705;
},
{
layerId = m002;
shapes = (
{
closed = 1;
nodes = (
(501,521,l),
(201,516,l),
(101,511,l),
(95,490,l),
(116,433,l),
(563,435,l),
(603,520,l)
);
},
{
closed = 1;
nodes = (
(508,442,l),
(464,260,l),
(412,35,l),
(465,-2,l),
(487,15,l),
(564,375,l),
(603,520,l),
(505,490,l)
);
},
{
closed = 1;
nodes = (
(25,116,l),
(59,87,l),
(164,86,l),
(527,410,l),
(550,450,l),
(538,466,l),
(521,464,l),
(484,455,l),
(46,160,l)
);
}
);
width = 628;
}
);
unicode = 8599;
},
{
glyphname = rightArrow;
lastChange = "2024-05-29 09:58:24 +0000";
layers = (
{
layerId = m01;
shapes = (
{
closed = 1;
nodes = (
(690,341,l),
(431,530,l),
(349,586,l),
(274,562,l),
(257,470,l),
(646,184,l),
(736,243,l)
);
},
{
closed = 1;
nodes = (
(599,335,l),
(429,231,l),
(255,60,l),
(289,-27,l),
(358,-42,l),
(646,184,l),
(679,249,l),
(646,360,l)
);
},
{
closed = 1;
nodes = (
(50,362,l),
(59,280,l),
(143,184,l),
(493,248,l),
(610,213,l),
(567,272,l),
(487,368,l),
(476,330,l),
(93,384,l)
);
}
);
width = 786;
},
{
layerId = m002;
shapes = (
{
closed = 1;
nodes = (
(655,358,l),
(611,390,l),
(323,596,l),
(306,583,l),
(296,520,l),
(646,257,l),
(695,277,l)
);
},
{
closed = 1;
nodes = (
(607,296,l),
(462,177,l),
(312,52,l),
(305,-32,l),
(333,-32,l),
(611,209,l),
(695,277,l),
(633,336,l)
);
},
{
closed = 1;
nodes = (
(25,327,l),
(34,283,l),
(118,219,l),
(603,259,l),
(645,277,l),
(645,297,l),
(630,306,l),
(595,321,l),
(68,349,l)
);
}
);
width = 720;
}
);
unicode = 8594;
},
{
glyphname = southEastArrow;
lastChange = "2024-05-29 09:58:24 +0000";
layers = (
{
layerId = m01;
shapes = (
{
closed = 1;
nodes = (
(620,102,l),
(138,135,l),
(92,54,l),
(133,-13,l),
(233,-23,l),
(553,-46,l),
(650,-1,l)
);
},
{
closed = 1;
nodes = (
(603,31,l),
(620,102,l),
(546,461,l),
(484,494,l),
(401,450,l),
(423,206,l),
(486,17,l),
(506,-32,l)
);
},
{
closed = 1;
nodes = (
(395,100,l),
(380,64,l),
(502,86,l),
(573,103,l),
(462,152,l),
(236,427,l),
(109,408,l),
(50,351,l),
(69,306,l)
);
}
);
width = 700;
},
{
layerId = m002;
shapes = (
{
closed = 1;
nodes = (
(568,92,l),
(122,86,l),
(102,29,l),
(108,9,l),
(208,5,l),
(508,5,l),
(610,7,l)
);
},
{
closed = 1;
nodes = (
(610,7,l),
(568,152,l),
(486,510,l),
(463,527,l),
(411,489,l),
(467,265,l),
(514,84,l),
(511,36,l)
);
},
{
closed = 1;
nodes = (
(489,70,l),
(527,62,l),
(544,60,l),
(556,77,l),
(532,116,l),
(164,434,l),
(59,432,l),
(25,402,l),
(47,359,l)
);
}
);
width = 635;
}
);
unicode = 8600;
},
{
glyphname = downArrow;
lastChange = "2024-05-29 09:58:24 +0000";
layers = (
{
layerId = m01;
shapes = (
{
closed = 1;
nodes = (
(435,-26,l),
(624,234,l),
(680,316,l),
(656,390,l),
(564,407,l),
(278,18,l),
(338,-71,l)
);
},
{
closed = 1;
nodes = (
(430,66,l),
(326,236,l),
(154,410,l),
(67,375,l),
(52,306,l),
(278,18,l),
(343,-14,l),
(454,18,l)
);
},
{
closed = 1;
nodes = (
(456,614,l),
(374,606,l),
(278,522,l),
(342,171,l),
(307,54,l),
(366,98,l),
(462,178,l),
(425,189,l),
(478,571,l)
);
}
);
width = 730;
},
{
layerId = m002;
shapes = (
{
closed = 1;
nodes = (
(420,11,l),
(597,254,l),
(653,337,l),
(640,354,l),
(582,371,l),
(314,14,l),
(358,-70,l)
);
},
{
closed = 1;
nodes = (
(353,53,l),
(234,198,l),
(86,375,l),
(25,355,l),
(25,327,l),
(266,49,l),
(358,-70,l),
(393,27,l)
);
},
{
closed = 1;
nodes = (
(384,635,l),
(340,626,l),
(276,542,l),
(316,57,l),
(334,15,l),
(354,15,l),
(363,30,l),
(378,65,l),
(406,592,l)
);
}
);
width = 678;
}
);
unicode = 8595;
},
{
glyphname = southWestArrow;
lastChange = "2024-05-29 09:58:24 +0000";
layers = (
{
layerId = m01;
shapes = (
{
closed = 1;
nodes = (
(153,-46,l),
(473,-23,l),
(572,-13,l),
(614,54,l),
(567,135,l),
(86,102,l),
(55,-1,l)
);
},
{
closed = 1;
nodes = (
(219,17,l),
(282,206,l),
(304,450,l),
(222,494,l),
(159,461,l),
(86,102,l),
(102,31,l),
(199,-32,l)
);
},
{
closed = 1;
nodes = (
(655,351,l),
(596,408,l),
(470,427,l),
(243,152,l),
(132,103,l),
(203,86,l),
(326,64,l),
(310,100,l),
(637,306,l)
);
}
);
width = 705;
},
{
layerId = m002;
shapes = (
{
closed = 1;
nodes = (
(127,0,l),
(427,8,l),
(527,15,l),
(533,35,l),
(511,92,l),
(64,86,l),
(25,0,l)
);
},
{
closed = 1;
nodes = (
(119,79,l),
(161,262,l),
(211,487,l),
(158,523,l),
(136,506,l),
(63,146,l),
(25,0,l),
(123,31,l)
);
},
{
closed = 1;
nodes = (
(599,410,l),
(565,439,l),
(459,438,l),
(100,111,l),
(77,71,l),
(90,55,l),
(107,57,l),
(144,67,l),
(578,366,l)
);
}
);
width = 624;
}
);
unicode = 8601;
},
{
glyphname = leftArrow;
lastChange = "2024-05-29 09:58:24 +0000";
layers = (
{
layerId = m01;
shapes = (
{
closed = 1;
nodes = (
(140,184,l),
(529,470,l),
(512,562,l),
(437,586,l),
(355,530,l),
(96,341,l),
(50,243,l)
);
},
{
closed = 1;
nodes = (
(107,249,l),
(140,184,l),
(428,-42,l),
(497,-27,l),
(531,60,l),
(357,231,l),
(187,335,l),
(140,360,l)
);
},
{
closed = 1;
nodes = (
(310,330,l),
(299,368,l),
(219,272,l),
(176,213,l),
(293,248,l),
(643,184,l),
(727,280,l),
(736,362,l),
(693,384,l)
);
}
);
width = 786;
},
{
layerId = m002;
shapes = (
{
closed = 1;
nodes = (
(109,257,l),
(466,525,l),
(449,583,l),
(432,596,l),
(349,540,l),
(106,363,l),
(25,301,l)
);
},
{
closed = 1;
nodes = (
(25,301,l),
(144,209,l),
(422,-32,l),
(450,-32,l),
(470,29,l),
(293,177,l),
(148,296,l),
(122,336,l)
);
},
{
closed = 1;
nodes = (
(160,321,l),
(125,306,l),
(110,297,l),
(110,277,l),
(152,259,l),
(637,219,l),
(721,283,l),
(730,327,l),
(687,349,l)
);
}
);
width = 755;
}
);
unicode = 8592;
},
{
glyphname = northWestArrow;
lastChange = "2024-05-29 09:58:24 +0000";
layers = (
{
layerId = m01;
shapes = (
{
closed = 1;
nodes = (
(86,346,l),
(567,312,l),
(614,394,l),
(572,460,l),
(473,470,l),
(153,494,l),
(55,448,l)
);
},
{
closed = 1;
nodes = (
(102,416,l),
(86,346,l),
(159,-14,l),
(222,-46,l),
(304,-2,l),
(282,241,l),
(219,430,l),
(199,479,l)
);
},
{
closed = 1;
nodes = (
(310,347,l),
(326,383,l),
(203,362,l),
(132,344,l),
(243,295,l),
(470,20,l),
(596,39,l),
(655,96,l),
(637,141,l)
);
}
);
width = 705;
},
{
layerId = m002;
shapes = (
{
closed = 1;
nodes = (
(67,434,l),
(513,438,l),
(534,494,l),
(528,515,l),
(428,519,l),
(127,521,l),
(25,520,l)
);
},
{
closed = 1;
nodes = (
(25,520,l),
(66,375,l),
(147,16,l),
(169,-1,l),
(222,36,l),
(167,261,l),
(121,442,l),
(124,490,l)
);
},
{
closed = 1;
nodes = (
(146,455,l),
(109,464,l),
(91,466,l),
(79,450,l),
(102,410,l),
(469,90,l),
(574,91,l),
(608,121,l),
(586,165,l)
);
}
);
width = 633;
}
);
unicode = 8598;
},
{
glyphname = leftRightArrow;
lastChange = "2024-05-29 09:58:24 +0000";
layers = (
{
layerId = m01;
shapes = (
{
closed = 1;
nodes = (
(96,202,l),
(355,14,l),
(437,-42,l),
(512,-18,l),
(529,74,l),
(140,359,l),
(50,300,l)
);
},
{
closed = 1;
nodes = (
(187,208,l),
(357,312,l),
(531,483,l),
(497,570,l),
(428,586,l),
(140,359,l),
(107,294,l),
(140,183,l)
);
},
{
closed = 1;
nodes = (
(581,161,l),
(739,263,l),
(577,359,l),
(293,295,l),
(176,330,l),
(219,271,l),
(299,175,l),
(310,213,l),
(489,184,l)
);
},
{
closed = 1;
nodes = (
(1066,359,l),
(677,74,l),
(694,-18,l),
(769,-42,l),
(851,14,l),
(1110,202,l),
(1156,300,l)
);
},
{
closed = 1;
nodes = (
(1099,294,l),
(1066,359,l),
(778,586,l),
(709,570,l),
(675,483,l),
(849,312,l),
(1019,208,l),
(1066,183,l)
);
},
{
closed = 1;
nodes = (
(981,215,l),
(993,178,l),
(1073,274,l),
(1116,333,l),
(999,298,l),
(586,359,l),
(498,266,l),
(489,184,l),
(681,186,l)
);
}
);
width = 1206;
},
{
layerId = m002;
shapes = (
{
closed = 1;
nodes = (
(106,201,l),
(349,24,l),
(432,-32,l),
(449,-19,l),
(466,39,l),
(109,307,l),
(25,263,l)
);
},
{
closed = 1;
nodes = (
(148,268,l),
(293,387,l),
(470,535,l),
(450,596,l),
(422,596,l),
(144,355,l),
(25,263,l),
(122,228,l)
);
},
{
closed = 1;
nodes = (
(724,258,l),
(716,280,l),
(637,313,l),
(152,305,l),
(110,287,l),
(110,267,l),
(125,258,l),
(160,243,l),
(684,246,l)
);
},
{
closed = 1;
nodes = (
(1112,307,l),
(755,39,l),
(772,-19,l),
(789,-32,l),
(872,24,l),
(1115,201,l),
(1196,263,l)
);
},
{
closed = 1;
nodes = (
(1196,263,l),
(1077,355,l),
(799,596,l),
(771,596,l),
(751,535,l),
(928,387,l),
(1073,268,l),
(1099,228,l)
);
},
{
closed = 1;
nodes = (
(1061,243,l),
(1096,258,l),
(1111,267,l),
(1111,287,l),
(1069,305,l),
(637,313,l),
(508,280,l),
(500,258,l),
(684,246,l)
);
}
);
width = 1221;
}
);
unicode = 8596;
},
{
glyphname = upDownArrow;
lastChange = "2024-05-31 17:07:27 +0000";
layers = (
{
layerId = m01;
shapes = (
{
closed = 1;
nodes = (
(433,-235,l),
(622,24,l),
(678,106,l),
(654,181,l),
(562,198,l),
(276,-191,l),
(336,-281,l)
);
},
{
closed = 1;
nodes = (
(428,-144,l),
(324,26,l),
(152,200,l),
(65,166,l),
(50,97,l),
(276,-191,l),
(341,-224,l),
(452,-191,l)
);
},
{
closed = 1;
nodes = (
(440,256,l),
(372,408,l),
(291,181,l),
(340,-38,l),
(305,-155,l),
(364,-112,l),
(460,-32,l),
(423,-21,l),
(452,158,l)
);
},
{
closed = 1;
nodes = (
(276,634,l),
(562,245,l),
(654,262,l),
(678,336,l),
(622,418,l),
(433,678,l),
(336,723,l)
);
},
{
closed = 1;
nodes = (
(341,666,l),
(276,634,l),
(50,346,l),
(65,277,l),
(152,242,l),
(324,416,l),
(428,586,l),
(452,634,l)
);
},
{
closed = 1;
nodes = (
(420,549,l),
(458,560,l),
(362,640,l),
(303,683,l),
(338,566,l),
(291,181,l),
(370,66,l),
(452,158,l),
(450,248,l)
);
}
);
width = 728;
},
{
layerId = m002;
shapes = (
{
closed = 1;
nodes = (
(420,-152,l),
(597,91,l),
(653,174,l),
(640,191,l),
(582,208,l),
(314,-149,l),
(358,-233,l)
);
},
{
closed = 1;
nodes = (
(353,-110,l),
(234,35,l),
(86,212,l),
(25,192,l),
(25,164,l),
(266,-114,l),
(358,-233,l),
(393,-136,l)
);
},
{
closed = 1;
nodes = (
(363,341,l),
(341,333,l),
(308,254,l),
(316,-106,l),
(334,-148,l),
(354,-148,l),
(363,-133,l),
(378,-98,l),
(375,301,l)
);
},
{
closed = 1;
nodes = (
(314,729,l),
(582,372,l),
(640,389,l),
(653,406,l),
(597,489,l),
(435,700,l),
(349,813,l)
);
},
{
closed = 1;
nodes = (
(349,813,l),
(199,630,l),
(25,416,l),
(25,388,l),
(86,368,l),
(234,545,l),
(353,690,l),
(393,716,l)
);
},
{
closed = 1;
nodes = (
(378,678,l),
(363,713,l),
(354,728,l),
(334,728,l),
(316,686,l),
(308,254,l),
(341,250,l),
(363,242,l),
(375,301,l)
);
}
);
width = 678;
}
);
unicode = 8597;
},
